<?xml version="1.0" encoding="UTF-8" standalone="no"?>
<svg
   xmlns:dc="http://purl.org/dc/elements/1.1/"
   xmlns:cc="http://creativecommons.org/ns#"
   xmlns:rdf="http://www.w3.org/1999/02/22-rdf-syntax-ns#"
   xmlns:svg="http://www.w3.org/2000/svg"
   xmlns="http://www.w3.org/2000/svg"
   xmlns:sodipodi="http://sodipodi.sourceforge.net/DTD/sodipodi-0.dtd"
   xmlns:inkscape="http://www.inkscape.org/namespaces/inkscape"
   version="1.1"
   id="svg2"
   xml:space="preserve"
   width="934.66669"
   height="137.33333"
   viewBox="0 0 934.66669 137.33333"
   sodipodi:docname="Olympus-locker-logo.ai"><metadata
     id="metadata8"><rdf:RDF><cc:Work
         rdf:about=""><dc:format>image/svg+xml</dc:format><dc:type
           rdf:resource="http://purl.org/dc/dcmitype/StillImage" /></cc:Work></rdf:RDF></metadata><defs
     id="defs6"><clipPath
       clipPathUnits="userSpaceOnUse"
       id="clipPath18"><path
         d="M 0,103 H 701 V 0 H 0 Z"
         id="path16" /></clipPath><clipPath
       clipPathUnits="userSpaceOnUse"
       id="clipPath78"><path
         d="M 9.144,4 H 104 V 98.856 H 9.144 Z"
         id="path76" /></clipPath><linearGradient
       x1="0"
       y1="0"
       x2="1"
       y2="0"
       gradientUnits="userSpaceOnUse"
       gradientTransform="matrix(0,-94.135475,94.135475,0,56.678768,98.490753)"
       spreadMethod="pad"
       id="linearGradient102"><stop
         style="stop-opacity:1;stop-color:#e94747"
         offset="0"
         id="stop96" /><stop
         style="stop-opacity:1;stop-color:#42d7f8"
         offset="0.00000034"
         id="stop98" /><stop
         style="stop-opacity:1;stop-color:#4860f9"
         offset="1"
         id="stop100" /></linearGradient><linearGradient
       x1="0"
       y1="0"
       x2="1"
       y2="0"
       gradientUnits="userSpaceOnUse"
       gradientTransform="matrix(0,62.540691,-62.540691,0,56.678764,20.152674)"
       spreadMethod="pad"
       id="linearGradient124"><stop
         style="stop-opacity:1;stop-color:#e94747"
         offset="0"
         id="stop118" /><stop
         style="stop-opacity:1;stop-color:#42d7f8"
         offset="0.00000034"
         id="stop120" /><stop
         style="stop-opacity:1;stop-color:#4861f9"
         offset="1"
         id="stop122" /></linearGradient><linearGradient
       x1="0"
       y1="0"
       x2="1"
       y2="0"
       gradientUnits="userSpaceOnUse"
       gradientTransform="matrix(0,-63.573513,63.573513,0,56.678852,83.209778)"
       spreadMethod="pad"
       id="linearGradient144"><stop
         style="stop-opacity:1;stop-color:#42d5f8"
         offset="0"
         id="stop140" /><stop
         style="stop-opacity:1;stop-color:#284ff3"
         offset="1"
         id="stop142" /></linearGradient><clipPath
       clipPathUnits="userSpaceOnUse"
       id="clipPath154"><path
         d="M 9.144,4 H 104 V 98.856 H 9.144 Z"
         id="path152" /></clipPath><linearGradient
       x1="0"
       y1="0"
       x2="1"
       y2="0"
       gradientUnits="userSpaceOnUse"
       gradientTransform="matrix(0,-68.187889,-68.187889,0,512.88892,85.539368)"
       spreadMethod="pad"
       id="linearGradient306"><stop
         style="stop-opacity:1;stop-color:#3bc6f3"
         offset="0"
         id="stop300" /><stop
         style="stop-opacity:1;stop-color:#3bc6f3"
         offset="0.00102244"
         id="stop302" /><stop
         style="stop-opacity:1;stop-color:#3950e2"
         offset="1"
         id="stop304" /></linearGradient></defs><sodipodi:namedview
     pagecolor="#ffffff"
     bordercolor="#666666"
     borderopacity="1"
     objecttolerance="10"
     gridtolerance="10"
     guidetolerance="10"
     inkscape:pageopacity="0"
     inkscape:pageshadow="2"
     inkscape:window-width="640"
     inkscape:window-height="480"
     id="namedview4" /><g
     id="g10"
     inkscape:groupmode="layer"
     inkscape:label="Olympus-locker-logo"
     transform="matrix(1.3333333,0,0,-1.3333333,0,137.33333)"><g
       id="g12"><g
         id="g14"
         clip-path="url(#clipPath18)"><g
           id="g20"
           transform="translate(129.1465,52.3877)"><path
             d="m 0,0 c 0.046,-0.77 0.062,-1.366 0.121,-1.957 1.306,-13.18 14.206,-17.572 23.225,-12.614 6.091,3.348 8.39,9.028 7.942,15.755 C 30.467,13.527 18.993,19.285 8.926,14.778 2.659,11.971 0.187,6.478 0,0 m -10.603,1.442 c 0.213,1.355 0.372,2.722 0.648,4.065 2.489,12.086 12.55,20.365 24.907,20.533 10.735,0.147 19.07,-4.259 23.994,-13.804 7.428,-14.397 0.971,-33.723 -16.814,-37.782 -16.752,-3.824 -28.43,6.399 -31.589,17.746 -0.475,1.707 -0.628,3.503 -0.937,5.257 -0.053,0.298 -0.139,0.59 -0.209,0.885 z"
             style="fill:#ffffff;fill-opacity:1;fill-rule:nonzero;stroke:none"
             id="path22" /></g><g
           id="g24"
           transform="translate(331.6279,78.4268)"><path
             d="m 0,0 v -52.235 h -10.432 v 29.804 c -0.094,0.037 -0.188,0.074 -0.282,0.111 -5.113,-5.676 -10.225,-11.352 -15.442,-17.144 -5.172,5.74 -10.31,11.443 -15.642,17.362 v -30.092 h -10.475 v 52.185 c 1.091,0 2.156,0.064 3.205,-0.036 0.35,-0.034 0.708,-0.447 0.982,-0.758 7.031,-7.989 14.051,-15.989 21.075,-23.985 0.235,-0.267 0.487,-0.52 0.86,-0.916 0.462,0.51 0.906,0.987 1.337,1.475 6.716,7.633 13.45,15.25 20.122,22.921 0.865,0.994 1.719,1.531 3.034,1.321 C -1.156,-0.067 -0.63,0 0,0"
             style="fill:#ffffff;fill-opacity:1;fill-rule:nonzero;stroke:none"
             id="path26" /></g><g
           id="g28"
           transform="translate(390.1245,78.3755)"><path
             d="m 0,0 h 10.469 v -1.401 c 0,-9.654 0.038,-19.307 -0.012,-28.961 -0.04,-7.625 4.877,-10.859 10.749,-11.308 1.752,-0.134 3.595,0.006 5.308,0.402 5.432,1.258 8.266,4.963 8.272,10.541 0.008,9.733 0.002,19.466 0.002,29.2 v 1.494 h 10.53 v -1.393 c 0,-10.21 -0.096,-20.422 0.029,-30.63 0.107,-8.693 -4.125,-14.7 -11.751,-17.921 -9.554,-4.036 -18.969,-3.418 -27.315,3.406 -4.146,3.39 -6.323,7.894 -6.334,13.316 -0.022,10.885 -0.006,21.77 -0.004,32.655 0,0.156 0.029,0.311 0.057,0.6"
             style="fill:#ffffff;fill-opacity:1;fill-rule:nonzero;stroke:none"
             id="path30" /></g><g
           id="g32"
           transform="translate(352.5537,57.5269)"><path
             d="m 0,0 c 0.82,0 1.483,-0.004 2.146,0 4.563,0.031 9.131,-0.052 13.687,0.133 3.24,0.131 5.127,2.232 5.258,5.347 0.124,2.927 -1.625,5.181 -4.867,5.359 C 10.923,11.13 5.599,11.006 0.285,11.051 0.219,11.052 0.151,10.972 0,10.876 V 9.868 Z m -10.407,20.783 c 0.162,0.051 0.237,0.097 0.312,0.097 8.462,-0.016 16.926,0.034 25.387,-0.105 1.988,-0.032 4.023,-0.519 5.939,-1.111 5.786,-1.789 9.044,-5.936 9.331,-11.994 0.11,-2.314 -0.008,-4.72 -0.531,-6.965 -1.344,-5.767 -5.44,-8.754 -11.012,-9.857 -2.168,-0.429 -4.407,-0.61 -6.62,-0.675 C 8.747,-9.935 5.089,-9.856 1.433,-9.856 H 0.016 v -21.467 h -10.423 z"
             style="fill:#ffffff;fill-opacity:1;fill-rule:nonzero;stroke:none"
             id="path34" /></g><g
           id="g36"
           transform="translate(482.4629,71.5068)"><path
             d="m 0,0 c -2.358,-2.36 -4.628,-4.632 -6.964,-6.969 -1.634,1.807 -3.653,3.139 -6.134,3.679 -2.844,0.62 -5.69,0.639 -8.46,-0.302 -0.905,-0.308 -1.871,-0.826 -2.486,-1.531 -2.259,-2.585 -2.104,-5.577 1.19,-7.003 2.153,-0.932 4.512,-1.511 6.837,-1.897 3.572,-0.593 6.915,-1.675 10.068,-3.45 5.297,-2.983 7.049,-7.761 6.69,-13.461 -0.365,-5.818 -4.12,-9.324 -8.849,-11.995 -4.176,-2.358 -8.741,-2.67 -13.401,-2.404 -6.23,0.357 -11.76,2.458 -16.467,6.607 -0.326,0.288 -0.633,0.598 -0.836,0.789 2.318,2.311 4.609,4.596 6.983,6.962 0.35,-0.307 0.885,-0.899 1.529,-1.323 4.879,-3.213 10.162,-4.097 15.796,-2.531 2.356,0.654 3.688,2.363 3.845,4.767 0.157,2.39 -0.96,4.201 -3.107,5.327 -2.342,1.229 -4.93,1.43 -7.482,1.78 -3.46,0.475 -6.69,1.613 -9.76,3.273 -3.647,1.973 -5.447,5.116 -5.79,9.129 -0.63,7.378 2.417,12.155 9.631,15.557 4.229,1.995 8.629,2.095 13.16,1.731 5.401,-0.433 9.891,-2.679 13.725,-6.4 C -0.172,0.229 -0.083,0.101 0,0"
             style="fill:#ffffff;fill-opacity:1;fill-rule:nonzero;stroke:none"
             id="path38" /></g><g
           id="g40"
           transform="translate(252.4175,26.1997)"><path
             d="m 0,0 h -10.494 v 1.413 c 0,7.787 0.022,15.574 -0.033,23.361 -0.005,0.761 -0.308,1.642 -0.757,2.26 -5.807,8.004 -11.666,15.969 -17.509,23.946 -0.251,0.342 -0.482,0.697 -0.86,1.247 h 1.449 c 3.258,0 6.517,-0.025 9.774,0.018 0.804,0.011 1.289,-0.245 1.753,-0.906 3.557,-5.071 7.155,-10.113 10.741,-15.163 0.206,-0.289 0.423,-0.57 0.703,-0.946 2.116,2.908 4.19,5.754 6.261,8.603 1.845,2.538 3.672,5.087 5.542,7.605 0.252,0.34 0.703,0.748 1.068,0.753 3.765,0.055 7.531,0.034 11.544,0.034 C 18.817,51.707 18.583,51.363 18.336,51.028 12.491,43.052 6.63,35.088 0.826,27.083 0.355,26.435 0.041,25.513 0.035,24.715 -0.023,16.968 0,9.221 0,1.473 Z"
             style="fill:#ffffff;fill-opacity:1;fill-rule:nonzero;stroke:none"
             id="path42" /></g><g
           id="g44"
           transform="translate(178.9561,78.3984)"><path
             d="m 0,0 h 10.368 v -42.467 h 27.834 v -9.731 H 0 Z"
             style="fill:#ffffff;fill-opacity:1;fill-rule:nonzero;stroke:none"
             id="path46" /></g><g
           id="g48"
           transform="translate(585.168,51.7915)"><path
             d="m 0,0 c -0.121,1.539 -0.181,2.568 -0.287,3.593 -0.623,6.009 -3.939,9.235 -9.725,9.478 -5.217,0.221 -8.8,-2.46 -10.078,-7.523 -0.689,-2.733 -0.673,-5.494 -0.36,-8.268 0.053,-0.471 0.162,-0.937 0.267,-1.4 1.474,-6.475 6.108,-8.523 11.79,-7.789 4.13,0.534 6.604,3.071 7.605,7.013 C -0.342,-3.142 -0.203,-1.311 0,0 m -10.389,-15.18 c -5.729,-0.022 -10.28,2.077 -12.556,7.594 -0.859,2.079 -1.302,4.433 -1.414,6.687 -0.122,2.462 0.044,5.033 0.635,7.42 1.6,6.454 6.542,9.909 13.523,9.818 C -2.425,16.238 2.939,11.334 3.5,3.557 3.689,0.934 3.669,-1.79 3.182,-4.361 1.859,-11.338 -3.122,-15.168 -10.389,-15.18"
             style="fill:#ffffff;fill-opacity:1;fill-rule:nonzero;stroke:none"
             id="path50" /></g><g
           id="g52"
           transform="translate(676.5527,64.6924)"><path
             d="m 0,0 v -11.991 c 2.754,0.19 5.465,0.146 8.082,0.622 2.743,0.499 3.999,2.622 3.929,5.701 -0.065,2.839 -1.283,4.572 -4.074,5.038 C 5.378,-0.203 2.748,-0.2 0,0 M -3.639,3.163 C 0.654,2.953 4.842,3.008 8.953,2.475 c 4.16,-0.54 6.321,-3.03 6.706,-6.75 0.47,-4.543 -1.149,-7.504 -5.055,-9.249 -0.282,-0.126 -0.557,-0.268 -0.928,-0.448 2.723,-4.529 5.415,-9.002 8.232,-13.687 -1.449,0 -2.706,-0.048 -3.954,0.036 -0.28,0.019 -0.6,0.454 -0.784,0.767 -2.149,3.663 -4.298,7.326 -6.387,11.022 -0.412,0.728 -0.876,0.964 -1.679,0.936 -1.664,-0.059 -3.331,-0.018 -5.145,-0.018 v -12.687 h -3.598 z"
             style="fill:#ffffff;fill-opacity:1;fill-rule:nonzero;stroke:none"
             id="path54" /></g><g
           id="g56"
           transform="translate(622.7871,67.6104)"><path
             d="m 0,0 h 3.546 v -15.053 c 1.618,1.763 3.003,3.269 4.385,4.778 2.869,3.134 5.763,6.247 8.585,9.424 0.626,0.705 1.254,0.974 2.153,0.912 C 19.562,0 20.464,0.047 21.66,0.047 c -1.546,-1.684 -2.894,-3.163 -4.254,-4.632 -2.4,-2.594 -4.778,-5.209 -7.228,-7.755 -0.681,-0.707 -0.756,-1.142 -0.138,-1.964 3.77,-5.016 7.472,-10.082 11.194,-15.133 0.229,-0.311 0.439,-0.635 0.79,-1.145 -1.409,0 -2.629,-0.056 -3.839,0.036 -0.343,0.026 -0.722,0.434 -0.966,0.756 -3.192,4.209 -6.362,8.435 -9.536,12.656 -0.306,0.406 -0.614,0.81 -0.985,1.3 C 5.71,-16.712 4.754,-17.48 3.911,-18.357 3.638,-18.641 3.567,-19.21 3.564,-19.65 3.538,-23.224 3.55,-26.797 3.55,-30.481 H 0 Z"
             style="fill:#ffffff;fill-opacity:1;fill-rule:nonzero;stroke:none"
             id="path58" /></g><g
           id="g60"
           transform="translate(666.1143,40.2817)"><path
             d="M 0,0 V -3.161 H -17.039 V 27.3 h 16.987 v -3.125 h -13.32 v -9.73 H -0.851 V 11.16 H -13.404 V 0 Z"
             style="fill:#ffffff;fill-opacity:1;fill-rule:nonzero;stroke:none"
             id="path62" /></g><g
           id="g64"
           transform="translate(616.0596,40.8086)"><path
             d="m 0,0 c 0.057,-3.734 0.755,-3.141 -2.839,-3.753 -2.659,-0.453 -5.481,-0.484 -8.163,-0.149 -5.254,0.654 -8.575,3.878 -10.09,8.881 -1.197,3.953 -1.266,7.997 -0.216,11.998 1.738,6.613 7.19,10.516 14.316,10.341 2.83,-0.07 5.596,-0.456 8.221,-1.796 -0.5,-1.024 -0.965,-1.981 -1.48,-3.037 -0.619,0.229 -1.199,0.443 -1.779,0.659 -2.395,0.887 -4.879,1.187 -7.38,0.755 -4.334,-0.747 -6.938,-3.498 -8.098,-7.614 -0.912,-3.234 -0.862,-6.537 0.018,-9.775 1.461,-5.374 5.879,-8.147 11.798,-7.445 C -3.808,-0.711 -1.942,-0.324 0,0"
             style="fill:#ffffff;fill-opacity:1;fill-rule:nonzero;stroke:none"
             id="path66" /></g><g
           id="g68"
           transform="translate(540.0791,67.6172)"><path
             d="M 0,0 H 3.565 V -13.569 -27.287 H 16.96 v -3.238 H 0 Z"
             style="fill:#ffffff;fill-opacity:1;fill-rule:nonzero;stroke:none"
             id="path70" /></g></g></g><g
       id="g72"><g
         id="g74"
         clip-path="url(#clipPath78)"><g
           id="g80"
           transform="translate(102.9336,51.4229)"><path
             d="m 0,0 c 0,-25.545 -20.709,-46.254 -46.255,-46.254 -25.546,0 -46.255,20.709 -46.255,46.254 0,25.546 20.709,46.255 46.255,46.255 C -20.709,46.255 0,25.546 0,0"
             style="fill:#0c0c3f;fill-opacity:1;fill-rule:nonzero;stroke:none"
             id="path82" /></g></g></g><g
       id="g84"><g
         id="g86"><g
           id="g92"><g
             id="g94"><path
               d="M 9.611,51.423 C 9.611,25.429 30.684,4.355 56.678,4.355 v 0 c 25.996,0 47.069,21.074 47.069,47.068 v 0 c 0,25.995 -21.073,47.068 -47.069,47.068 v 0 C 30.684,98.491 9.611,77.418 9.611,51.423 M 39.015,9.607 c -5.404,2.285 -10.258,5.558 -14.426,9.726 v 0 c -4.169,4.169 -7.441,9.022 -9.727,14.426 v 0 c -2.365,5.594 -3.565,11.536 -3.565,17.664 v 0 c 0,6.128 1.2,12.071 3.565,17.665 v 0 c 2.286,5.403 5.558,10.257 9.727,14.425 v 0 c 4.168,4.169 9.022,7.441 14.426,9.727 v 0 c 5.594,2.365 11.536,3.565 17.663,3.565 v 0 c 6.129,0 12.071,-1.2 17.666,-3.565 v 0 c 5.403,-2.286 10.257,-5.558 14.425,-9.727 v 0 c 4.169,-4.168 7.441,-9.022 9.727,-14.425 v 0 c 2.366,-5.594 3.565,-11.537 3.565,-17.665 v 0 c 0,-6.128 -1.199,-12.07 -3.565,-17.664 v 0 C 96.21,28.355 92.938,23.502 88.769,19.333 v 0 C 84.601,15.165 79.747,11.892 74.344,9.607 v 0 C 68.749,7.24 62.807,6.041 56.678,6.041 v 0 c -6.127,0 -12.069,1.199 -17.663,3.566"
               style="fill:url(#linearGradient102);stroke:none"
               id="path104" /></g></g></g></g><g
       id="g106"><g
         id="g108"><g
           id="g114"><g
             id="g116"><path
               d="m 25.408,51.423 c 0,-17.27 14,-31.27 31.27,-31.27 v 0 c 17.271,0 31.271,14 31.271,31.27 v 0 c 0,17.27 -14,31.271 -31.271,31.271 v 0 c -17.27,0 -31.27,-14.001 -31.27,-31.271"
               style="fill:url(#linearGradient124);stroke:none"
               id="path126" /></g></g></g></g><g
       id="g128"><g
         id="g130"><g
           id="g136"><g
             id="g138"><path
               d="m 24.892,51.423 c 0,-17.555 14.232,-31.787 31.786,-31.787 v 0 c 17.556,0 31.787,14.232 31.787,31.787 v 0 c 0,17.556 -14.231,31.787 -31.787,31.787 v 0 C 39.124,83.21 24.892,68.979 24.892,51.423 M 35.393,30.138 c -5.685,5.686 -8.816,13.245 -8.816,21.285 v 0 c 0,8.04 3.131,15.599 8.816,21.285 v 0 c 5.686,5.686 13.245,8.817 21.285,8.817 v 0 c 8.041,0 15.6,-3.131 21.286,-8.817 v 0 c 5.685,-5.686 8.817,-13.245 8.817,-21.285 v 0 c 0,-8.04 -3.132,-15.599 -8.817,-21.285 v 0 C 72.278,24.453 64.719,21.322 56.678,21.322 v 0 c -8.04,0 -15.599,3.131 -21.285,8.816"
               style="fill:url(#linearGradient144);stroke:none"
               id="path146" /></g></g></g></g><g
       id="g148"><g
         id="g150"
         clip-path="url(#clipPath154)"><g
           id="g156"
           transform="translate(89.6636,59.3301)"><path
             d="M 0,0 C 0.6,-2.52 0.92,-5.105 0.949,-7.692 0.931,-9.094 0.893,-10.5 0.706,-11.89 c -0.02,-0.171 0.041,-0.344 0.168,-0.485 0.127,-0.14 0.312,-0.235 0.512,-0.262 1.185,-0.164 2.475,-0.342 3.765,-0.52 1.012,-0.14 2.023,-0.28 2.983,-0.413 -0.066,-0.461 -0.155,-0.918 -0.23,-1.378 l -0.116,-0.689 c -0.04,-0.229 -0.096,-0.455 -0.142,-0.682 -0.098,-0.454 -0.194,-0.907 -0.291,-1.357 -0.11,-0.448 -0.231,-0.89 -0.346,-1.33 -0.058,-0.22 -0.117,-0.441 -0.176,-0.662 -0.06,-0.221 -0.135,-0.438 -0.203,-0.658 -0.141,-0.438 -0.283,-0.878 -0.425,-1.32 -0.153,-0.437 -0.326,-0.868 -0.491,-1.302 l -0.253,-0.649 c -0.083,-0.217 -0.187,-0.424 -0.28,-0.636 l -2.1,0.9 c 0.981,2.293 1.746,4.679 2.276,7.117 0.089,0.405 -0.173,0.799 -0.584,0.879 l -3.72,0.734 c -0.411,0.081 -0.807,-0.137 -0.884,-0.485 -0.55,-2.527 -1.388,-4.993 -2.493,-7.342 l -0.477,-0.941 c -0.16,-0.314 -0.309,-0.633 -0.491,-0.933 -0.352,-0.609 -0.684,-1.229 -1.076,-1.811 -0.093,-0.145 -0.114,-0.328 -0.061,-0.509 0.054,-0.181 0.179,-0.347 0.347,-0.458 0.999,-0.66 2.084,-1.378 3.17,-2.097 0.851,-0.563 1.703,-1.127 2.511,-1.663 -0.246,-0.394 -0.534,-0.762 -0.8,-1.143 l -0.406,-0.569 -0.203,-0.284 -0.213,-0.275 c -0.287,-0.366 -0.572,-0.73 -0.855,-1.093 l -0.213,-0.272 -0.224,-0.261 c -0.15,-0.174 -0.299,-0.347 -0.447,-0.52 -0.149,-0.172 -0.298,-0.345 -0.447,-0.518 l -0.226,-0.26 -0.237,-0.25 c -0.319,-0.333 -0.639,-0.668 -0.96,-1.003 -0.158,-0.169 -0.326,-0.33 -0.496,-0.488 l -0.509,-0.476 c -0.342,-0.315 -0.675,-0.64 -1.037,-0.93 l -1.503,1.723 c 1.88,1.64 3.601,3.462 5.133,5.431 0.257,0.326 0.194,0.792 -0.146,1.045 l -3.038,2.271 c -0.331,0.246 -0.785,0.224 -1.006,-0.055 -1.591,-2.04 -3.412,-3.898 -5.42,-5.53 l -0.835,-0.64 -0.417,-0.322 c -0.141,-0.103 -0.288,-0.2 -0.431,-0.301 l -0.865,-0.601 c -0.292,-0.194 -0.594,-0.373 -0.89,-0.561 -0.146,-0.091 -0.244,-0.247 -0.275,-0.435 -0.029,-0.187 0.011,-0.391 0.114,-0.564 0.611,-1.029 1.275,-2.15 1.94,-3.269 0.52,-0.879 1.041,-1.757 1.535,-2.591 -0.407,-0.226 -0.814,-0.451 -1.221,-0.677 -0.204,-0.113 -0.405,-0.228 -0.61,-0.338 l -0.623,-0.313 c -0.415,-0.206 -0.825,-0.422 -1.241,-0.618 -0.421,-0.189 -0.838,-0.377 -1.253,-0.563 -0.411,-0.194 -0.84,-0.354 -1.268,-0.524 -0.214,-0.083 -0.429,-0.167 -0.645,-0.251 -0.215,-0.085 -0.43,-0.169 -0.651,-0.239 -0.44,-0.146 -0.881,-0.292 -1.322,-0.438 -0.111,-0.036 -0.22,-0.074 -0.332,-0.106 l -0.335,-0.092 -0.672,-0.182 -0.608,2.203 c 2.404,0.664 4.745,1.556 6.981,2.662 0.371,0.185 0.515,0.637 0.322,1.008 l -1.745,3.366 c -0.195,0.372 -0.611,0.544 -0.93,0.385 -1.155,-0.588 -2.36,-1.071 -3.571,-1.529 -0.305,-0.108 -0.615,-0.204 -0.922,-0.307 l -0.461,-0.153 -0.23,-0.077 -0.234,-0.065 -0.937,-0.26 c -0.156,-0.042 -0.311,-0.091 -0.468,-0.128 l -0.474,-0.107 -1.027,-0.234 -1.037,-0.185 -0.519,-0.093 c -0.172,-0.03 -0.347,-0.046 -0.521,-0.07 l -1.044,-0.135 c -0.171,-0.026 -0.328,-0.11 -0.436,-0.264 -0.109,-0.152 -0.161,-0.35 -0.143,-0.551 0.106,-1.192 0.222,-2.49 0.337,-3.787 0.089,-1.017 0.179,-2.033 0.264,-2.999 -0.464,-0.034 -0.928,-0.068 -1.393,-0.101 -0.465,-0.015 -0.93,-0.03 -1.394,-0.045 -0.232,-0.006 -0.464,-0.02 -0.695,-0.019 -0.231,0.002 -0.462,0.005 -0.693,0.007 -0.46,0.008 -0.919,0.003 -1.374,0.022 -0.908,0.059 -1.832,0.087 -2.752,0.21 l -0.692,0.079 c -0.231,0.028 -0.463,0.05 -0.691,0.093 -0.458,0.08 -0.916,0.159 -1.373,0.238 l 0.411,2.248 c 2.454,-0.449 4.951,-0.661 7.446,-0.632 0.415,0.013 0.74,0.362 0.725,0.781 l -0.116,3.79 c -0.014,0.419 -0.315,0.749 -0.671,0.738 -2.588,-0.037 -5.175,0.251 -7.7,0.807 -0.689,0.133 -1.361,0.337 -2.039,0.516 -0.342,0.083 -0.671,0.207 -1.005,0.312 -0.333,0.112 -0.669,0.214 -1,0.33 -0.161,0.062 -0.343,0.046 -0.507,-0.044 -0.164,-0.089 -0.298,-0.245 -0.368,-0.434 -0.425,-1.12 -0.886,-2.338 -1.348,-3.555 -0.362,-0.954 -0.724,-1.909 -1.068,-2.815 -0.431,0.174 -0.869,0.333 -1.297,0.516 -0.425,0.188 -0.85,0.376 -1.274,0.563 -0.211,0.096 -0.426,0.181 -0.633,0.285 -0.207,0.102 -0.414,0.205 -0.62,0.307 -0.412,0.205 -0.821,0.409 -1.228,0.612 -0.397,0.222 -0.796,0.446 -1.197,0.67 -0.201,0.113 -0.401,0.226 -0.603,0.34 -0.195,0.124 -0.391,0.247 -0.587,0.371 -0.391,0.249 -0.782,0.499 -1.174,0.75 -0.377,0.271 -0.754,0.543 -1.13,0.814 l 1.342,1.85 c 2.019,-1.465 4.178,-2.736 6.435,-3.798 0.379,-0.168 0.824,0.006 0.993,0.39 l 1.543,3.464 c 0.169,0.383 0.042,0.811 -0.285,0.955 -2.357,1.092 -4.567,2.472 -6.602,4.067 -0.273,0.22 -0.553,0.431 -0.822,0.656 l -0.791,0.693 -0.397,0.346 -0.376,0.367 -0.757,0.73 c -0.124,0.12 -0.289,0.188 -0.477,0.177 -0.186,-0.009 -0.373,-0.092 -0.519,-0.232 -0.868,-0.825 -1.811,-1.722 -2.754,-2.62 -0.74,-0.703 -1.48,-1.407 -2.183,-2.075 -0.315,0.342 -0.631,0.686 -0.946,1.028 -0.302,0.355 -0.604,0.709 -0.905,1.063 -0.148,0.178 -0.306,0.349 -0.446,0.533 -0.142,0.182 -0.284,0.364 -0.426,0.546 -0.28,0.366 -0.572,0.72 -0.837,1.089 -0.522,0.744 -1.071,1.488 -1.55,2.282 l -0.37,0.59 -0.184,0.296 -0.17,0.304 c -0.225,0.407 -0.449,0.813 -0.673,1.219 l 2.013,1.081 c 1.18,-2.198 2.569,-4.284 4.144,-6.219 0.269,-0.317 0.745,-0.354 1.064,-0.082 l 2.893,2.451 c 0.319,0.272 0.391,0.713 0.16,0.984 -1.637,2.004 -3.027,4.209 -4.17,6.532 l -0.236,0.471 -0.212,0.482 -0.425,0.964 c -0.133,0.326 -0.253,0.656 -0.381,0.983 -0.126,0.328 -0.257,0.654 -0.36,0.99 -0.053,0.164 -0.181,0.295 -0.356,0.367 -0.173,0.071 -0.379,0.078 -0.571,0.015 -1.139,-0.367 -2.379,-0.768 -3.618,-1.168 -0.972,-0.312 -1.943,-0.625 -2.866,-0.923 l -0.213,0.664 -0.186,0.674 c -0.122,0.449 -0.253,0.895 -0.369,1.344 -0.204,0.905 -0.442,1.798 -0.59,2.696 -0.357,1.783 -0.556,3.652 -0.634,5.503 l 2.283,0.103 c 0.114,-2.491 0.466,-4.972 1.05,-7.398 0.086,-0.406 0.507,-0.643 0.913,-0.535 l 3.67,0.956 c 0.404,0.107 0.651,0.471 0.578,0.821 -0.6,2.52 -0.92,5.105 -0.949,7.692 0.019,1.402 0.057,2.808 0.244,4.198 0.02,0.171 -0.041,0.344 -0.169,0.485 -0.127,0.14 -0.311,0.235 -0.511,0.262 -1.186,0.164 -2.476,0.342 -3.766,0.519 -1.011,0.141 -2.022,0.281 -2.983,0.414 0.067,0.46 0.156,0.918 0.23,1.378 l 0.117,0.688 c 0.04,0.23 0.095,0.456 0.142,0.683 0.097,0.454 0.194,0.907 0.29,1.357 0.11,0.448 0.232,0.89 0.346,1.33 0.059,0.22 0.117,0.441 0.176,0.662 0.06,0.221 0.136,0.438 0.204,0.658 0.141,0.438 0.282,0.878 0.424,1.32 0.154,0.437 0.326,0.868 0.492,1.302 l 0.252,0.649 c 0.083,0.217 0.187,0.424 0.28,0.636 l 2.101,-0.9 c -0.981,-2.293 -1.746,-4.679 -2.277,-7.117 -0.088,-0.405 0.173,-0.799 0.584,-0.879 l 3.721,-0.734 c 0.411,-0.081 0.807,0.137 0.883,0.484 0.551,2.528 1.388,4.993 2.494,7.343 l 0.477,0.941 c 0.16,0.313 0.309,0.633 0.491,0.933 0.351,0.609 0.683,1.229 1.076,1.811 0.093,0.145 0.114,0.328 0.06,0.509 -0.054,0.181 -0.178,0.347 -0.347,0.457 -0.998,0.661 -2.084,1.379 -3.17,2.098 -0.851,0.563 -1.702,1.127 -2.511,1.662 0.246,0.395 0.534,0.763 0.8,1.144 l 0.407,0.569 0.202,0.283 0.214,0.276 c 0.286,0.366 0.571,0.73 0.855,1.093 l 0.213,0.272 0.224,0.261 c 0.149,0.174 0.298,0.347 0.447,0.519 0.148,0.173 0.297,0.346 0.447,0.519 l 0.225,0.26 0.238,0.25 c 0.318,0.333 0.638,0.667 0.959,1.003 0.158,0.17 0.326,0.33 0.497,0.488 l 0.508,0.476 c 0.342,0.315 0.675,0.64 1.038,0.93 l 1.502,-1.723 c -1.88,-1.64 -3.601,-3.462 -5.132,-5.432 -0.258,-0.325 -0.195,-0.791 0.146,-1.044 l 3.037,-2.271 c 0.332,-0.246 0.785,-0.224 1.007,0.055 1.59,2.039 3.411,3.898 5.419,5.53 l 0.836,0.64 0.416,0.321 c 0.142,0.104 0.288,0.201 0.432,0.302 l 0.864,0.601 c 0.292,0.194 0.595,0.373 0.891,0.561 0.146,0.091 0.244,0.247 0.274,0.435 0.03,0.187 -0.01,0.391 -0.113,0.564 -0.612,1.029 -1.276,2.149 -1.94,3.269 -0.521,0.878 -1.041,1.757 -1.535,2.591 0.406,0.225 0.813,0.451 1.22,0.677 0.204,0.112 0.406,0.228 0.611,0.338 l 0.622,0.313 c 0.416,0.206 0.825,0.422 1.241,0.618 0.421,0.189 0.838,0.377 1.253,0.563 0.411,0.194 0.841,0.354 1.268,0.523 0.215,0.084 0.43,0.168 0.645,0.252 0.215,0.085 0.431,0.169 0.652,0.239 0.439,0.146 0.881,0.291 1.322,0.438 0.11,0.035 0.22,0.074 0.331,0.106 l 0.336,0.092 0.671,0.182 0.608,-2.203 c -2.403,-0.664 -4.744,-1.556 -6.981,-2.662 -0.371,-0.185 -0.515,-0.637 -0.321,-1.008 l 1.745,-3.366 c 0.194,-0.372 0.611,-0.544 0.929,-0.385 1.155,0.588 2.36,1.071 3.571,1.529 0.305,0.108 0.615,0.203 0.922,0.307 l 0.461,0.153 0.231,0.077 0.234,0.065 0.936,0.26 c 0.156,0.042 0.311,0.091 0.469,0.128 l 0.473,0.107 1.028,0.234 1.036,0.185 0.519,0.093 c 0.173,0.03 0.348,0.046 0.521,0.07 l 1.045,0.135 c 0.17,0.026 0.327,0.11 0.436,0.264 0.108,0.152 0.16,0.35 0.142,0.551 -0.106,1.192 -0.221,2.49 -0.337,3.787 -0.089,1.016 -0.178,2.033 -0.263,2.999 0.463,0.034 0.927,0.068 1.392,0.101 0.466,0.015 0.931,0.03 1.395,0.045 0.232,0.006 0.463,0.02 0.695,0.019 0.231,-0.002 0.462,-0.005 0.692,-0.007 0.461,-0.008 0.92,-0.003 1.375,-0.022 0.907,-0.059 1.831,-0.087 2.752,-0.21 l 0.691,-0.079 c 0.231,-0.028 0.463,-0.05 0.691,-0.093 0.458,-0.08 0.916,-0.159 1.373,-0.238 l -0.41,-2.249 c -2.454,0.449 -4.952,0.661 -7.447,0.633 -0.415,-0.013 -0.74,-0.362 -0.725,-0.781 l 0.117,-3.79 c 0.014,-0.419 0.315,-0.75 0.67,-0.738 2.588,0.037 5.176,-0.25 7.7,-0.807 0.69,-0.133 1.362,-0.337 2.04,-0.516 0.341,-0.083 0.67,-0.207 1.005,-0.313 0.333,-0.111 0.669,-0.214 1,-0.329 0.161,-0.062 0.342,-0.046 0.506,0.043 0.165,0.09 0.298,0.246 0.369,0.435 0.424,1.119 0.885,2.338 1.347,3.555 0.362,0.954 0.724,1.909 1.069,2.815 0.431,-0.174 0.869,-0.333 1.296,-0.516 0.425,-0.188 0.851,-0.376 1.274,-0.563 0.211,-0.096 0.427,-0.181 0.634,-0.284 0.207,-0.103 0.413,-0.206 0.619,-0.308 0.412,-0.205 0.822,-0.409 1.228,-0.612 0.397,-0.222 0.796,-0.446 1.198,-0.67 0.2,-0.114 0.401,-0.227 0.602,-0.34 0.196,-0.124 0.391,-0.247 0.587,-0.371 0.391,-0.249 0.783,-0.5 1.174,-0.75 0.377,-0.271 0.754,-0.543 1.13,-0.814 l -1.341,-1.85 c -2.02,1.466 -4.179,2.736 -6.435,3.798 -0.379,0.168 -0.825,-0.006 -0.994,-0.39 l -1.543,-3.463 c -0.169,-0.384 -0.041,-0.812 0.285,-0.956 2.357,-1.092 4.567,-2.472 6.602,-4.067 0.273,-0.22 0.554,-0.431 0.823,-0.656 l 0.79,-0.694 0.397,-0.345 0.377,-0.366 0.757,-0.731 c 0.123,-0.12 0.288,-0.188 0.476,-0.178 0.187,0.01 0.374,0.093 0.52,0.232 0.867,0.826 1.811,1.723 2.754,2.621 0.74,0.703 1.48,1.407 2.183,2.075 0.315,-0.343 0.63,-0.685 0.946,-1.028 0.301,-0.355 0.603,-0.709 0.904,-1.063 0.148,-0.178 0.306,-0.349 0.447,-0.532 0.142,-0.183 0.284,-0.365 0.425,-0.547 0.28,-0.366 0.573,-0.72 0.838,-1.089 0.522,-0.744 1.071,-1.488 1.55,-2.282 l 0.369,-0.59 0.184,-0.296 0.171,-0.304 C 3.133,12.568 3.358,12.162 3.582,11.756 L 1.568,10.675 c -1.179,2.199 -2.568,4.284 -4.144,6.22 -0.269,0.316 -0.745,0.353 -1.064,0.081 l -2.893,-2.451 c -0.319,-0.272 -0.39,-0.712 -0.159,-0.983 1.636,-2.005 3.026,-4.21 4.169,-6.534 l 0.236,-0.47 0.212,-0.483 0.426,-0.964 c 0.132,-0.325 0.252,-0.655 0.38,-0.982 0.126,-0.328 0.258,-0.654 0.36,-0.99 C -0.855,2.955 -0.728,2.824 -0.553,2.752 -0.379,2.681 -0.173,2.674 0.019,2.737 1.158,3.104 2.397,3.504 3.636,3.904 4.608,4.217 5.58,4.53 6.503,4.828 L 6.716,4.163 6.901,3.49 C 7.023,3.041 7.154,2.595 7.271,2.146 7.475,1.241 7.712,0.348 7.86,-0.55 8.217,-2.333 8.417,-4.202 8.495,-6.053 L 6.211,-6.157 C 6.098,-3.665 5.745,-1.184 5.162,1.242 5.076,1.648 4.654,1.885 4.248,1.777 L 0.579,0.821 C 0.174,0.714 -0.073,0.35 0,0 M 4.719,-6.945 C 4.731,-7.342 5.081,-7.662 5.5,-7.66 l 3.792,0.027 c 0.414,0.002 0.741,0.363 0.734,0.814 -0.005,0.275 -0.01,0.551 -0.016,0.827 L 10,-5.578 9.971,-5.165 c -0.043,0.552 -0.087,1.103 -0.13,1.654 -0.072,0.547 -0.144,1.093 -0.215,1.636 L 9.57,-1.469 C 9.549,-1.334 9.522,-1.201 9.498,-1.066 9.449,-0.799 9.4,-0.532 9.351,-0.267 8.947,1.843 8.396,3.999 7.702,6.065 7.633,6.282 7.496,6.453 7.307,6.551 7.117,6.648 6.902,6.662 6.711,6.592 5.594,6.184 4.379,5.74 3.165,5.296 2.194,4.943 1.223,4.589 0.301,4.252 -0.133,5.415 -0.608,6.563 -1.16,7.674 c -1.09,2.228 -2.412,4.341 -3.939,6.293 l 1.791,1.403 C -1.829,13.482 -0.531,11.453 0.562,9.318 0.74,8.964 1.188,8.824 1.565,9.007 l 3.408,1.665 c 0.372,0.181 0.515,0.651 0.32,1.056 -0.98,1.97 -2.156,3.879 -3.437,5.619 -1.282,1.727 -2.731,3.416 -4.233,4.999 -0.161,0.161 -0.365,0.249 -0.578,0.256 -0.213,0.007 -0.412,-0.073 -0.553,-0.219 -0.829,-0.853 -1.731,-1.779 -2.633,-2.706 -0.721,-0.74 -1.442,-1.481 -2.127,-2.183 l -0.668,0.646 -0.698,0.614 c -0.234,0.203 -0.464,0.411 -0.701,0.61 l -0.73,0.576 c -1.948,1.531 -4.058,2.856 -6.287,3.951 l 1.003,2.042 c 2.155,-1.056 4.209,-2.313 6.125,-3.757 0.31,-0.245 0.773,-0.178 1.033,0.15 l 2.343,2.982 c 0.257,0.325 0.183,0.814 -0.167,1.097 -1.746,1.345 -3.643,2.538 -5.544,3.558 -1.907,0.987 -3.935,1.885 -5.974,2.658 -0.211,0.084 -0.437,0.067 -0.631,-0.017 -0.194,-0.087 -0.339,-0.245 -0.403,-0.439 -0.379,-1.127 -0.791,-2.353 -1.203,-3.578 -0.33,-0.98 -0.659,-1.959 -0.973,-2.889 -0.59,0.191 -1.175,0.397 -1.778,0.545 l -0.897,0.245 c -0.298,0.083 -0.604,0.137 -0.906,0.206 -2.419,0.538 -4.893,0.82 -7.371,0.84 l 0.017,2.276 c 2.398,-0.018 4.794,-0.266 7.144,-0.74 0.388,-0.085 0.776,0.178 0.868,0.586 l 0.824,3.701 c 0.091,0.404 -0.187,0.811 -0.626,0.914 -2.155,0.46 -4.383,0.727 -6.543,0.811 -2.151,0.071 -4.373,-0.012 -6.546,-0.203 -0.226,-0.025 -0.422,-0.13 -0.56,-0.292 -0.138,-0.162 -0.199,-0.367 -0.173,-0.569 0.151,-1.179 0.314,-2.462 0.477,-3.745 0.13,-1.024 0.26,-2.05 0.384,-3.023 l -0.923,-0.12 -0.916,-0.164 -0.458,-0.08 c -0.153,-0.027 -0.306,-0.053 -0.456,-0.091 l -0.907,-0.207 c -2.414,-0.568 -4.772,-1.382 -7.016,-2.44 l -0.969,2.059 c 2.17,1.022 4.437,1.837 6.761,2.431 0.384,0.098 0.623,0.492 0.528,0.903 l -0.87,3.691 c -0.094,0.401 -0.523,0.656 -0.961,0.553 -2.14,-0.515 -4.253,-1.263 -6.234,-2.117 -1.979,-0.839 -3.935,-1.901 -5.808,-3.014 -0.195,-0.117 -0.328,-0.294 -0.384,-0.497 -0.055,-0.204 -0.022,-0.414 0.089,-0.585 0.645,-0.999 1.347,-2.085 2.048,-3.171 0.561,-0.868 1.121,-1.736 1.654,-2.561 -0.268,-0.158 -0.517,-0.343 -0.773,-0.518 l -0.765,-0.53 c -0.501,-0.365 -0.984,-0.753 -1.48,-1.126 -1.926,-1.56 -3.687,-3.322 -5.244,-5.249 l -1.768,1.432 c 1.509,1.863 3.198,3.581 5.034,5.121 0.303,0.257 0.334,0.731 0.074,1.056 l -2.382,2.952 c -0.26,0.324 -0.746,0.354 -1.094,0.068 -0.212,-0.175 -0.424,-0.352 -0.637,-0.528 -0.214,-0.176 -0.425,-0.354 -0.625,-0.545 -0.404,-0.378 -0.809,-0.756 -1.212,-1.133 -0.771,-0.792 -1.544,-1.575 -2.235,-2.407 -0.718,-0.802 -1.372,-1.68 -2.047,-2.544 -0.32,-0.446 -0.639,-0.893 -0.958,-1.339 l -0.241,-0.334 -0.225,-0.344 c -0.15,-0.228 -0.3,-0.456 -0.45,-0.684 -0.126,-0.19 -0.17,-0.406 -0.132,-0.613 0.038,-0.207 0.159,-0.382 0.333,-0.487 1.016,-0.618 2.121,-1.289 3.226,-1.961 0.883,-0.537 1.766,-1.074 2.604,-1.585 -0.315,-0.534 -0.616,-1.077 -0.926,-1.614 l -0.842,-1.663 c -1.063,-2.245 -1.89,-4.597 -2.461,-7.008 l -2.213,0.527 c 0.556,2.332 1.338,4.611 2.326,6.796 0.16,0.363 -0.016,0.803 -0.394,0.984 l -3.427,1.624 c -0.374,0.178 -0.825,-0.005 -1.013,-0.413 -0.115,-0.25 -0.229,-0.501 -0.344,-0.751 -0.111,-0.252 -0.233,-0.5 -0.329,-0.759 -0.198,-0.516 -0.397,-1.032 -0.596,-1.546 -0.103,-0.256 -0.182,-0.521 -0.268,-0.782 -0.084,-0.262 -0.168,-0.523 -0.252,-0.784 -0.083,-0.261 -0.165,-0.521 -0.247,-0.78 -0.07,-0.264 -0.14,-0.525 -0.209,-0.787 -0.069,-0.26 -0.138,-0.521 -0.206,-0.783 -0.069,-0.261 -0.143,-0.523 -0.194,-0.791 -0.115,-0.533 -0.229,-1.069 -0.345,-1.605 -0.108,-0.538 -0.187,-1.082 -0.284,-1.623 -0.043,-0.271 -0.099,-0.539 -0.133,-0.811 -0.036,-0.272 -0.071,-0.543 -0.106,-0.813 -0.031,-0.226 0.024,-0.44 0.148,-0.611 0.125,-0.17 0.31,-0.276 0.513,-0.295 1.183,-0.117 2.469,-0.244 3.757,-0.372 1.027,-0.102 2.056,-0.204 3.033,-0.301 -0.045,-0.307 -0.049,-0.618 -0.074,-0.927 l -0.063,-0.927 c -0.022,-0.62 -0.025,-1.24 -0.039,-1.859 0.023,-2.479 0.306,-4.955 0.842,-7.377 l -2.222,-0.49 c -0.517,2.342 -0.809,4.733 -0.872,7.13 -0.013,0.396 -0.362,0.716 -0.781,0.715 l -3.792,-0.027 c -0.414,-0.002 -0.741,-0.364 -0.735,-0.814 0.006,-0.275 0.011,-0.551 0.016,-0.827 l 0.01,-0.414 0.029,-0.414 c 0.044,-0.551 0.087,-1.103 0.13,-1.653 0.072,-0.548 0.144,-1.093 0.215,-1.636 l 0.056,-0.406 c 0.021,-0.135 0.048,-0.269 0.072,-0.403 0.05,-0.267 0.099,-0.534 0.148,-0.799 0.403,-2.11 0.955,-4.265 1.649,-6.332 0.068,-0.217 0.205,-0.388 0.394,-0.486 0.191,-0.097 0.405,-0.112 0.597,-0.041 1.117,0.408 2.331,0.852 3.546,1.295 0.97,0.354 1.942,0.708 2.863,1.045 0.435,-1.163 0.909,-2.311 1.461,-3.423 1.091,-2.227 2.413,-4.34 3.939,-6.292 l -1.791,-1.403 c -1.479,1.888 -2.776,3.917 -3.87,6.051 -0.177,0.355 -0.626,0.495 -1.003,0.312 l -3.407,-1.665 c -0.373,-0.181 -0.516,-0.651 -0.321,-1.056 0.98,-1.97 2.156,-3.879 3.437,-5.619 1.282,-1.727 2.731,-3.416 4.234,-4.999 0.16,-0.161 0.365,-0.25 0.577,-0.256 0.213,-0.007 0.412,0.073 0.554,0.219 0.829,0.852 1.731,1.779 2.632,2.706 0.721,0.74 1.442,1.481 2.127,2.183 l 0.668,-0.647 0.699,-0.613 c 0.233,-0.203 0.463,-0.411 0.701,-0.61 l 0.729,-0.576 c 1.948,-1.532 4.059,-2.856 6.287,-3.951 l -1.003,-2.042 c -2.154,1.056 -4.209,2.313 -6.125,3.756 -0.31,0.246 -0.773,0.179 -1.033,-0.149 l -2.343,-2.982 c -0.256,-0.325 -0.183,-0.814 0.167,-1.097 1.746,-1.345 3.643,-2.538 5.544,-3.558 1.908,-0.987 3.935,-1.885 5.974,-2.658 0.212,-0.084 0.437,-0.067 0.631,0.018 0.195,0.086 0.34,0.244 0.404,0.438 0.379,1.126 0.79,2.353 1.202,3.578 0.33,0.98 0.66,1.959 0.973,2.889 0.59,-0.192 1.176,-0.397 1.778,-0.546 l 0.897,-0.244 c 0.299,-0.083 0.605,-0.136 0.906,-0.207 2.419,-0.538 4.894,-0.819 7.371,-0.84 l -0.017,-2.275 c -2.397,0.018 -4.793,0.266 -7.144,0.74 -0.387,0.085 -0.775,-0.178 -0.868,-0.586 l -0.823,-3.702 c -0.092,-0.404 0.187,-0.81 0.625,-0.912 2.155,-0.461 4.383,-0.729 6.543,-0.812 2.151,-0.071 4.374,0.012 6.547,0.203 0.225,0.025 0.422,0.13 0.559,0.292 0.138,0.162 0.2,0.366 0.173,0.568 -0.15,1.18 -0.314,2.462 -0.477,3.746 -0.13,1.024 -0.26,2.05 -0.384,3.024 l 0.923,0.119 0.916,0.163 0.458,0.081 c 0.153,0.026 0.306,0.054 0.456,0.091 l 0.908,0.207 c 2.414,0.568 4.771,1.382 7.015,2.44 l 0.97,-2.059 c -2.17,-1.021 -4.438,-1.837 -6.762,-2.431 -0.384,-0.098 -0.622,-0.493 -0.527,-0.903 l 0.87,-3.691 c 0.093,-0.401 0.522,-0.657 0.96,-0.553 2.141,0.515 4.253,1.263 6.234,2.116 1.979,0.839 3.935,1.901 5.808,3.015 0.196,0.117 0.329,0.294 0.384,0.497 0.055,0.204 0.023,0.414 -0.088,0.585 -0.646,0.999 -1.347,2.085 -2.049,3.171 -0.56,0.868 -1.121,1.736 -1.653,2.561 0.267,0.158 0.517,0.342 0.772,0.518 l 0.765,0.53 c 0.501,0.365 0.985,0.753 1.48,1.127 1.927,1.558 3.687,3.321 5.244,5.248 l 1.769,-1.432 c -1.51,-1.863 -3.198,-3.581 -5.035,-5.122 -0.302,-0.256 -0.334,-0.73 -0.073,-1.055 l 2.381,-2.952 c 0.26,-0.324 0.746,-0.354 1.094,-0.068 0.212,0.175 0.425,0.352 0.637,0.527 0.214,0.176 0.425,0.354 0.625,0.546 0.404,0.378 0.809,0.756 1.212,1.133 0.771,0.792 1.544,1.575 2.235,2.406 0.718,0.803 1.372,1.681 2.048,2.545 0.319,0.446 0.639,0.893 0.958,1.339 l 0.24,0.334 0.225,0.343 c 0.15,0.229 0.301,0.458 0.451,0.685 0.125,0.19 0.169,0.406 0.131,0.613 -0.038,0.207 -0.158,0.382 -0.333,0.487 -1.016,0.618 -2.121,1.289 -3.226,1.961 -0.882,0.537 -1.765,1.074 -2.603,1.585 0.314,0.534 0.616,1.077 0.926,1.614 l 0.841,1.662 c 1.063,2.246 1.891,4.597 2.461,7.009 l 2.214,-0.527 c -0.557,-2.332 -1.339,-4.61 -2.326,-6.797 -0.161,-0.362 0.015,-0.803 0.393,-0.983 l 3.427,-1.623 c 0.374,-0.179 0.825,0.004 1.014,0.412 0.114,0.25 0.229,0.5 0.343,0.751 0.112,0.252 0.234,0.5 0.329,0.759 0.199,0.516 0.398,1.032 0.596,1.546 0.103,0.256 0.183,0.52 0.268,0.782 0.085,0.262 0.169,0.523 0.252,0.784 0.083,0.26 0.166,0.521 0.248,0.78 0.069,0.263 0.139,0.525 0.209,0.787 0.068,0.259 0.137,0.521 0.206,0.782 0.069,0.263 0.142,0.524 0.194,0.792 0.114,0.533 0.229,1.069 0.344,1.605 0.108,0.538 0.187,1.082 0.284,1.622 0.044,0.271 0.1,0.54 0.134,0.812 0.035,0.272 0.071,0.543 0.106,0.813 0.03,0.226 -0.025,0.44 -0.149,0.611 -0.125,0.17 -0.309,0.276 -0.512,0.295 -1.184,0.117 -2.47,0.244 -3.757,0.371 -1.028,0.103 -2.057,0.205 -3.033,0.302 0.044,0.307 0.049,0.618 0.074,0.926 l 0.062,0.928 c 0.022,0.62 0.026,1.24 0.039,1.859 -0.023,2.479 -0.306,4.955 -0.841,7.376 l 2.222,0.49 c 0.516,-2.342 0.809,-4.732 0.872,-7.129"
             style="fill:#d4d4d5;fill-opacity:1;fill-rule:nonzero;stroke:none"
             id="path158" /></g><g
           id="g160"
           transform="translate(61.7397,79.6665)"><path
             d="m 0,0 c 0.216,-0.358 -0.256,-1.331 -0.368,-1.641 -0.047,-0.129 -0.096,-0.268 -0.059,-0.401 0.163,-0.591 1.962,-0.479 2.434,-0.532 1.084,-0.12 2.168,-0.373 3.101,-0.961 1.531,-0.966 1.274,-1.931 2.648,-2.375 1.876,-0.607 3.629,0.777 4.036,0.193 0.527,-0.755 -0.473,-1.704 -0.912,-2.235 -0.47,-0.567 -0.711,-0.743 -0.674,-1.038 0.063,-0.505 0.895,-0.672 1.275,-0.804 0.797,-0.275 1.412,-0.534 2.102,-1.019 1.54,-1.082 3.08,-2.165 4.621,-3.247 0.998,-0.701 1.194,-1.534 0.9,-2.702 -0.294,-1.176 -0.856,-2.424 -1.973,-2.897 -0.248,-0.105 -0.548,-0.197 -0.64,-0.45 -0.167,-0.457 0.443,-0.82 0.72,-1.079 0.397,-0.372 0.779,-0.757 1.15,-1.153 0.722,-0.772 1.399,-1.587 2.042,-2.427 0.251,-0.329 0.451,-0.801 0.016,-1.082 -0.191,-0.124 -0.425,-0.154 -0.651,-0.183 -0.138,-0.017 -0.746,-0.051 -0.719,-0.28 0.011,-0.083 0.113,-0.113 0.195,-0.124 0.946,-0.125 1.902,-0.188 2.84,-0.371 0.626,-0.123 2.015,-0.286 1.499,-1.257 -0.172,-0.323 -0.485,-0.541 -0.725,-0.816 -0.537,-0.618 -0.66,-1.463 -0.691,-2.253 -0.034,-0.824 -0.234,-1.626 -0.498,-2.412 -0.56,-1.674 -1.475,-3.199 -2.461,-4.652 -1.586,-2.334 -3.345,-4.55 -5.258,-6.625 -1.097,-1.19 -2.383,-2.133 -3.544,-3.253 -2.945,-2.849 -2.465,-3.496 -4.419,-4.906 -1.934,-1.396 -3.968,-1.893 -6.251,-2.449 -2.036,-0.495 -4.062,-1.069 -6.148,-1.317 -2.158,-0.256 -4.21,0.068 -6.327,0.492 -2.822,0.565 -5.591,1.706 -7.38,4.061 -0.893,1.175 -1.377,2.595 -1.706,4.019 -0.132,0.569 -0.125,1.359 -0.407,1.865 -0.295,0.527 -1.012,0.736 -1.534,0.943 -4.985,1.971 -7.041,9.193 -3.843,13.51 0.672,0.906 1.603,1.388 2.522,1.997 0.084,0.056 0.175,0.125 0.186,0.224 0.053,0.492 -0.864,1.054 -1.142,1.402 -0.471,0.586 -0.795,1.28 -1.015,1.995 -0.313,1.011 -0.45,2.065 -0.525,3.117 -0.031,0.431 -0.048,0.86 -0.095,1.29 -0.03,0.274 -0.152,0.82 0.097,1.036 0.11,0.095 0.262,0.041 0.387,0.019 0.075,-0.014 0.16,-0.013 0.22,0.036 0.092,0.075 0.078,0.218 0.048,0.333 -0.144,0.576 -0.365,1.121 -0.445,1.712 -0.084,0.614 -0.026,1.242 0.11,1.844 0.245,1.087 0.689,2.161 1.228,3.133 0.406,0.732 0.865,0.063 1.293,-0.312 0.68,-0.596 0.287,1.281 0.256,1.491 -0.139,0.952 -0.2,1.943 0.102,2.871 0.416,1.279 1.45,2.245 2.444,3.151 l 3.181,2.902 c 0.796,0.725 1.597,1.455 2.514,2.018 1.568,0.962 3.388,1.062 5.18,1.135 3.208,0.129 6.443,0.021 9.634,0.422 0.292,0.037 1.105,0.297 1.357,0.12 C -0.042,0.057 -0.019,0.031 0,0"
             style="fill:#0c0c3f;fill-opacity:1;fill-rule:nonzero;stroke:none"
             id="path162" /></g><g
           id="g164"
           transform="translate(64.9551,40.9531)"><path
             d="m 0,0 c -3.485,0.29 -6.468,1.618 -6.418,1.823 0.038,0.144 1.472,-0.064 1.624,-0.073 0.81,-0.053 1.623,-0.09 2.435,-0.082 0.468,0.007 0.948,0.031 1.38,0.213 0.069,0.028 0.142,0.066 0.181,0.13 0.084,0.136 -0.016,0.31 -0.125,0.424 -0.439,0.464 -1.079,0.679 -1.571,1.084 -0.036,0.03 -0.072,0.063 -0.085,0.106 -0.016,0.067 0.033,0.138 0.097,0.169 0.062,0.03 0.134,0.028 0.205,0.025 C -1.158,3.772 -0.079,3.384 0.929,2.896 2.062,2.348 3.133,1.547 4.345,1.2 5.699,0.811 6.514,0.932 6.521,0.78 6.536,0.482 3.395,-0.282 0,0 m 15.966,3.543 c 0,0 -7.19,-0.1 -9.349,0.353 C 2.395,4.78 1.878,4.928 1.878,4.928 1.751,4.963 1.545,5.026 1.419,5.063 c 0,0 -1.675,0.514 -2.644,0.716 -1.038,0.214 -2.107,0.177 -3.159,0.14 C -5.383,5.882 -6.389,5.847 -7.372,5.653 -8.297,5.473 -9.168,4.954 -9.979,4.488 -10.864,3.979 -12.367,2.98 -12.367,2.98 c -0.11,-0.075 -0.115,-0.199 -0.01,-0.28 0,0 1.995,-1.546 3.463,-2.305 3.616,-1.875 9.391,-2.22 9.391,-2.22 0.13,-0.007 0.241,-0.014 0.245,-0.014 0.003,0 0.114,0.002 0.246,0.005 l 0.559,0.019 c 0.132,0.005 0.241,0.01 0.241,0.01 0.002,0 0.103,0.007 0.224,0.015 0.124,0.007 0.42,0.027 0.417,0.024 -0.002,0 -0.007,-0.005 -0.015,-0.012 -0.031,-0.024 -0.107,-0.083 -0.189,-0.147 0,0 -1.918,-1.492 -3.403,-1.97 -0.421,-0.135 -0.841,-0.236 -1.257,-0.307 -2.255,-0.382 -4.409,0.125 -6.194,0.885 -0.243,0.103 -0.479,0.211 -0.706,0.322 -0.228,0.11 -0.447,0.224 -0.659,0.339 -0.002,0 -0.002,0.002 -0.002,0.002 -0.637,0.347 -1.202,0.706 -1.671,1.028 -0.158,0.109 -0.306,0.215 -0.443,0.316 -0.129,0.097 -0.249,0.187 -0.359,0.27 -0.007,0.007 -0.013,0.012 -0.02,0.017 -0.079,0.063 -0.153,0.121 -0.22,0.175 -0.245,0.194 -0.378,0.314 -0.378,0.314 -0.096,0.086 -0.258,0.094 -0.362,0.015 -0.366,-0.285 -0.732,-0.57 -1.099,-0.856 -0.105,-0.082 -0.144,-0.245 -0.088,-0.363 0,0 0.009,-0.016 0.022,-0.047 0.015,-0.032 0.032,-0.066 0.052,-0.101 0.005,-0.01 0.01,-0.02 0.017,-0.032 0.019,-0.037 0.039,-0.076 0.061,-0.115 0.01,-0.023 0.024,-0.045 0.038,-0.069 0.041,-0.071 0.086,-0.148 0.135,-0.229 0.034,-0.054 0.069,-0.111 0.106,-0.169 0.037,-0.055 0.076,-0.114 0.117,-0.171 0.16,-0.228 0.334,-0.442 0.517,-0.641 1.942,-2.128 4.996,-2.693 7.099,-3.054 4.008,-0.689 4.718,0.29 6.691,-0.9 0.996,-0.598 1.759,-1.416 3.197,-1.522 0.45,-0.033 1.27,-0.02 2.596,0.599 1.127,0.524 2.073,1.23 2.848,1.968 0.064,0.061 0.128,0.123 0.189,0.185 0.944,0.963 1.874,2.342 1.874,2.342 0.073,0.109 0.035,0.155 -0.086,0.102 0,0 -2.558,-1.117 -4.775,-1.326 -1.83,-0.174 -4.183,0.234 -4.183,0.234 -0.13,0.022 -0.13,0.054 0.002,0.073 0,0 8.093,1.07 12.123,5.203 0.315,0.322 0.62,0.663 0.912,1.026 0.505,0.627 1.183,1.724 1.183,1.724 0.069,0.113 0.019,0.202 -0.113,0.201"
             style="fill:#d6d5d6;fill-opacity:1;fill-rule:nonzero;stroke:none"
             id="path166" /></g><g
           id="g168"
           transform="translate(52.6519,24.4683)"><path
             d="m 0,0 c -0.078,-0.256 -1.766,0.049 -2.042,0.099 -2.213,0.398 -5.886,1.049 -8.052,4.008 -0.032,0.044 -0.062,0.086 -0.093,0.13 -1.097,1.561 -1.516,3.31 -1.2,3.522 0.221,0.145 0.629,-0.424 0.762,-0.539 0.311,-0.271 0.707,-0.433 1.099,-0.548 0.54,-0.158 1.108,-0.246 1.611,-0.493 0.442,-0.218 0.814,-0.547 1.184,-0.872 0.871,-0.772 1.746,-1.542 2.617,-2.314 0.108,-0.094 0.214,-0.19 0.322,-0.285 0.423,-0.374 0.87,-0.694 1.323,-1.031 0.153,-0.113 1.127,-0.754 1.127,-0.754 0.11,-0.072 0.294,-0.182 0.409,-0.245 0,0 0.978,-0.53 0.933,-0.678"
             style="fill:#d6d5d6;fill-opacity:1;fill-rule:nonzero;stroke:none"
             id="path170" /></g><g
           id="g172"
           transform="translate(67.9282,29.0776)"><path
             d="m 0,0 c -0.015,-0.524 -1.63,-1.594 -1.724,-1.657 -2.956,-1.941 -7.547,-2.373 -11.867,-0.905 -0.716,0.243 -1.395,0.529 -2.004,0.826 -1.748,0.849 -2.927,1.792 -2.809,2.102 0.168,0.438 2.804,-0.696 6.817,-0.275 1.072,0.113 1.997,0.209 3.206,0.581 1.28,0.397 1.695,0.736 2.936,0.966 C -4.073,1.895 -2.7,1.829 -2.649,1.564 -2.595,1.288 -3.996,0.912 -3.936,0.627 -3.905,0.486 -3.516,0.423 -1.55,0.322 -0.383,0.261 -0.088,0.26 -0.015,0.091 -0.003,0.062 0.002,0.032 0,0"
             style="fill:#d6d5d6;fill-opacity:1;fill-rule:nonzero;stroke:none"
             id="path174" /></g><g
           id="g176"
           transform="translate(58.5693,32.8076)"><path
             d="m 0,0 c -0.01,-0.268 -2.744,-0.72 -6.123,-0.337 -1.574,0.179 -10.234,1.159 -11.5,5.88 -0.107,0.403 -0.161,0.831 -0.165,1.269 -0.006,1.125 0.326,2.301 0.953,3.208 0.839,1.21 2.174,1.893 3.795,2.72 0.743,0.381 1.619,0.73 1.619,0.73 0.122,0.049 0.309,0.027 0.416,-0.05 0,0 0.758,-0.54 1.26,-0.879 0.737,-0.496 1.958,-1.254 1.958,-1.254 0.111,-0.07 0.219,-0.124 0.239,-0.121 0.02,0.002 -0.065,-0.037 -0.191,-0.075 0,0 -1.197,-0.365 -2.449,-0.997 -1.804,-0.912 -2.737,-2.115 -2.921,-1.948 -0.074,0.067 0.059,0.277 0.524,1.442 0.128,0.319 0.215,0.546 0.215,0.546 0.047,0.122 -0.019,0.194 -0.145,0.159 0,0 -1.26,-0.344 -1.943,-1.435 -1.097,-1.754 0.108,-3.78 0.225,-3.97 1.082,-1.753 3.078,-1.994 3.078,-1.994 0.13,-0.016 0.239,0.079 0.241,0.21 0,0 0.016,0.936 0.016,0.941 0,0.003 0.013,0.772 0.013,0.772 0.002,0.132 0.08,0.163 0.174,0.071 0,0 2.011,-1.992 3.875,-2.958 C -6,1.497 -5.174,1.176 -4.4,0.936 -1.923,0.168 0.008,0.226 0,0"
             style="fill:#d6d5d6;fill-opacity:1;fill-rule:nonzero;stroke:none"
             id="path178" /></g><g
           id="g180"
           transform="translate(39.0034,40.4507)"><path
             d="m 0,0 c -0.182,-3.007 1.573,-5.567 1.573,-5.567 0.074,-0.108 0.03,-0.17 -0.096,-0.136 0,0 -2.153,0.566 -3.735,2.059 -0.053,0.049 -0.103,0.1 -0.156,0.152 -1.508,1.522 -2.037,3.231 -2.234,4.144 -0.003,0.019 -0.009,0.037 -0.012,0.057 -0.114,0.636 -0.17,2.49 -0.17,2.49 -0.003,0.132 -0.007,0.239 -0.007,0.239 0,0.002 0.019,0.108 0.042,0.236 0,0 0.199,1.084 0.521,1.792 0.993,2.178 3.18,3.334 3.18,3.334 0.116,0.06 0.277,0.025 0.356,-0.08 0,0 0.064,-0.082 0.16,-0.302 0.091,-0.209 0.108,-0.303 0.108,-0.303 0.024,-0.128 -0.052,-0.286 -0.167,-0.35 0,0 -0.504,-0.28 -0.93,-0.68 C -2.609,6.111 -2.933,4.945 -3.113,4.286 -3.438,3.093 -3.295,1.687 -3.295,1.687 c 0.014,-0.131 0.058,-0.135 0.098,-0.01 0,0 0.667,2.061 1.883,3.415 0.608,0.677 1.565,1.36 1.565,1.36 0.106,0.076 0.277,0.069 0.378,-0.015 0,0 0.416,-0.348 0.735,-0.718 C 1.604,5.439 1.812,5.122 1.812,5.122 1.884,5.013 1.879,4.837 1.802,4.731 1.802,4.731 0.401,2.825 0.084,0.777 0.042,0.513 0.015,0.253 0,0"
             style="fill:#d6d5d6;fill-opacity:1;fill-rule:nonzero;stroke:none"
             id="path182" /></g><g
           id="g184"
           transform="translate(75.5664,47.8696)"><path
             d="m 0,0 c -3.401,-0.333 -5.963,0.629 -6.691,0.924 -1.886,0.763 -3.231,1.795 -4.05,2.53 -0.013,0.013 -0.023,0.028 -0.029,0.046 -0.005,0.015 -0.005,0.026 -0.005,0.028 -0.006,0.345 -0.013,0.691 -0.02,1.038 -10e-4,0.076 0.076,0.126 0.145,0.094 0.416,-0.2 0.866,-0.399 1.35,-0.59 0.666,-0.262 1.657,-0.566 1.657,-0.566 0.124,-0.039 0.14,-0.006 0.035,0.071 0,0 -0.856,0.624 -1.411,1.104 -0.038,0.032 -0.079,0.068 -0.119,0.103 -0.619,0.544 -1.2,1.131 -1.75,1.744 -0.096,0.108 -0.121,0.147 -0.121,0.147 -0.069,0.111 -0.126,0.202 -0.128,0.203 0,0.002 -0.009,0.112 -0.015,0.243 0,0 -0.046,0.819 -0.025,1.261 0.003,0.044 0.005,0.091 0.029,0.128 0.07,0.115 0.503,0.121 0.628,0.137 0.274,0.037 0.549,0.055 0.826,0.057 C -8.88,8.705 -8.192,8.555 -7.372,8.291 -5.337,7.634 -3.411,6.575 -3.495,6.368 -3.533,6.277 -3.923,6.435 -4.77,6.442 -5.366,6.449 -5.975,6.346 -5.975,6.346 -6.104,6.324 -6.125,6.241 -6.019,6.164 c 0,0 1.573,-1.163 2.985,-1.793 C -2.649,4.199 -1.845,3.848 -0.762,3.572 1.807,2.916 5.333,3.027 5.333,3.027 5.447,3.032 5.545,3.034 5.57,3.036 h 0.007 c 0.046,0.002 0.09,0.002 0.131,0.002 h 0.108 c 0,0 1.098,0.009 1.212,-0.183 C 7.032,2.85 7.033,2.843 7.035,2.838 7.185,2.281 3.873,0.381 0,0"
             style="fill:#d6d5d6;fill-opacity:1;fill-rule:nonzero;stroke:none"
             id="path186" /></g><g
           id="g188"
           transform="translate(64.2222,58.5977)"><path
             d="m 0,0 c 0.063,-0.115 0.222,-0.21 0.354,-0.21 0,0 3.207,-0.019 5.604,-0.805 2.81,-0.922 5.638,-3.202 5.638,-3.202 0.102,-0.082 0.292,-0.137 0.423,-0.122 0,0 1.238,0.143 2.028,0.272 0.716,0.117 1.807,0.345 1.807,0.345 0.129,0.026 0.167,0.131 0.084,0.233 0,0 -0.802,0.98 -1.572,1.725 -1.197,1.158 -2.312,2.237 -3.989,2.903 C 8.746,1.787 7.284,1.765 5.433,1.738 4.765,1.729 3.883,1.663 2.119,1.532 1.062,1.454 -0.171,1.347 -0.171,1.347 -0.303,1.335 -0.393,1.22 -0.373,1.09 c 0,0 0.04,-0.252 0.142,-0.55 C -0.128,0.233 0,0 0,0"
             style="fill:#d6d5d6;fill-opacity:1;fill-rule:nonzero;stroke:none"
             id="path190" /></g><g
           id="g192"
           transform="translate(79.5728,63.1885)"><path
             d="m 0,0 c -0.104,-0.403 -0.309,-0.811 -0.43,-1.009 -0.543,-0.887 -1.372,-1.158 -2.378,-1.126 -1.916,0.064 -3.767,0.665 -5.641,1.068 -2.009,0.433 -4.389,0.706 -6.216,-0.441 -0.345,-0.218 -1.031,-0.86 -1.48,-0.633 -0.16,0.081 -0.284,0.28 -0.326,0.346 -0.059,0.093 -0.235,0.371 -0.188,0.637 0.055,0.305 0.369,0.405 0.892,0.77 0.204,0.144 0.474,0.351 0.768,0.639 0.031,0.031 0.009,0.083 -0.035,0.08 -1.781,-0.13 -6.055,-0.329 -10.271,0.63 -1.432,0.327 -2.836,0.78 -4.184,1.367 -0.939,0.409 -1.844,0.871 -2.729,1.39 -0.158,0.095 -0.324,0.196 -0.416,0.356 -0.098,0.168 -0.098,0.376 -0.09,0.572 0.046,1.29 0.25,2.564 0.614,3.784 0.524,1.757 1.379,3.406 2.567,4.841 0.032,0.041 -0.016,0.094 -0.06,0.071 -1.161,-0.644 -2.78,-1.745 -4.241,-3.541 -0.071,-0.088 -0.142,-0.177 -0.211,-0.268 -0.325,-0.418 -0.625,-0.857 -0.902,-1.308 -0.148,-0.246 -0.292,-0.496 -0.424,-0.748 -0.063,-0.119 -0.123,-0.236 -0.182,-0.356 -0.029,-0.058 -0.124,-0.309 -0.176,-0.187 -0.003,0.008 -0.007,0.02 -0.01,0.033 -0.18,0.725 -0.246,1.477 -0.204,2.22 0.025,0.43 0.083,0.858 0.175,1.278 0.1,0.445 0.243,0.886 0.44,1.299 0.14,0.292 0.305,0.568 0.504,0.824 0.516,0.666 1.234,1.102 2.018,1.388 1.827,0.662 3.706,0.793 5.634,0.851 2.037,0.058 4.074,-0.009 6.111,0.048 0.049,0.002 0.066,-0.063 0.022,-0.085 -1.047,-0.552 -1.931,-1.042 -2.621,-1.432 -1.367,-0.773 -2.425,-1.407 -3.707,-2.384 -0.525,-0.4 -0.966,-0.769 -1.31,-1.069 -0.042,-0.035 0.003,-0.101 0.052,-0.076 1.674,0.87 5.808,2.822 9.991,2.946 3.027,0.09 4.566,-0.824 4.952,-1.067 0.711,-0.448 1.218,-0.952 1.552,-1.336 0.003,-0.002 0.005,-0.005 0.007,-0.008 0,-0.002 0.002,-0.006 0.002,-0.009 0.008,-0.023 -0.007,-0.054 -0.036,-0.059 -0.553,-0.116 -1.114,-0.229 -1.684,-0.34 -0.625,-0.12 -1.244,-0.235 -1.854,-0.341 -0.01,-10e-4 -0.018,-0.007 -0.025,-0.013 -0.027,-0.024 -0.015,-0.076 0.032,-0.078 2.331,-0.044 6.742,-0.428 6.742,-0.428 0.129,-0.01 0.337,-0.007 0.458,0.01 L -8.415,9.042 C -8.166,8.845 -9.12,8.152 -9.266,8.049 -9.683,7.758 -10.151,7.537 -10.642,7.4 -11.503,7.163 -12.415,7.252 -13.294,7.104 -13.316,7.101 -13.34,7.096 -13.362,7.092 c -0.992,-0.174 -1.591,-0.416 -2.204,-0.613 -2.741,-0.88 -5.727,-0.875 -6.567,-0.874 -0.052,0 -0.104,0 -0.155,0.002 -0.052,0 -0.106,0 -0.16,0.002 -0.113,0.002 -0.224,0.005 -0.335,0.009 -0.086,10e-4 -0.175,0.005 -0.266,0.009 -0.056,0.002 -0.11,0.006 -0.166,0.009 -0.087,0.003 -0.175,0.009 -0.261,0.015 -0.012,0 -0.024,0.002 -0.035,0.002 -0.076,0.005 -0.15,0.01 -0.224,0.017 -0.101,0.006 -0.201,0.015 -0.299,0.023 -0.15,0.015 -0.298,0.031 -0.445,0.046 -0.337,0.037 -0.662,0.082 -0.979,0.131 -0.136,0.022 -0.274,0.044 -0.415,0.069 -0.168,0.031 -0.333,0.061 -0.495,0.093 -0.147,0.03 -0.29,0.061 -0.431,0.091 -0.144,0.032 -0.282,0.064 -0.418,0.096 -0.07,0.015 -0.137,0.032 -0.204,0.049 -0.204,0.051 -0.403,0.105 -0.597,0.157 -0.12,0.032 -0.239,0.067 -0.361,0.103 -0.121,0.035 -0.239,0.07 -0.355,0.107 -0.172,0.052 -0.341,0.107 -0.501,0.16 -0.017,0.006 -0.036,0.012 -0.052,0.017 -0.01,0.002 -0.02,0.005 -0.032,0.011 -0.049,0.02 -0.101,0.033 -0.151,0.052 -0.029,0.011 -0.056,0.022 -0.084,0.034 l -0.041,0.019 c -0.011,0.005 -0.024,0.016 -0.036,0.011 -0.005,-0.001 0.02,-0.028 0.021,-0.029 0.012,-0.014 0.024,-0.026 0.036,-0.039 l 0.071,-0.078 c 0.068,-0.073 0.135,-0.147 0.206,-0.218 0.012,-0.012 0.024,-0.025 0.036,-0.037 0.074,-0.073 0.346,-0.34 0.779,-0.661 0.612,-0.453 1.238,-0.788 1.605,-0.971 0,0 1.145,-0.665 2.302,-0.93 2.129,-0.488 3.828,0.165 7.161,-0.443 0.924,-0.169 2.219,-0.464 3.752,-1.02 0.126,-0.046 0.219,0.12 0.117,0.204 -0.387,0.313 -0.777,0.627 -1.172,0.94 -0.312,0.248 -0.347,0.307 -0.651,0.516 -0.251,0.174 -0.478,0.305 -0.664,0.401 -0.069,0.035 -0.06,0.135 0.011,0.164 5.02,1.956 7.486,1.43 8.762,0.743 C -6.792,5.23 -4.901,4.103 -2.97,2.953 -2.333,2.572 -1.798,2.253 -1.424,2.029 -1.391,2.009 -1.396,1.958 -1.433,1.947 -1.839,1.803 -2.408,1.644 -3.101,1.567 -4.272,1.439 -4.923,1.652 -4.955,1.529 -5.007,1.33 -3.391,0.287 -1.697,0.575 c 0.9,0.152 1.333,0.596 1.574,0.392 C 0.111,0.769 0.101,0.386 0,0"
             style="fill:#d6d5d6;fill-opacity:1;fill-rule:nonzero;stroke:none"
             id="path194" /></g><g
           id="g196"
           transform="translate(40.061,63.8008)"><path
             d="M 0,0 C 0.089,-0.097 0.201,-0.075 0.248,0.048 L 0.538,0.8 c 0.047,0.123 0.023,0.31 -0.054,0.417 0,0 -0.63,0.87 -0.734,1.953 -0.064,0.674 0.104,1.342 0.104,1.342 0.032,0.127 0.13,0.151 0.217,0.053 L 1.24,3.249 c 0.087,-0.098 0.211,-0.085 0.276,0.03 0,0 0.19,0.337 0.354,0.616 0.151,0.256 0.327,0.545 0.327,0.545 0.069,0.112 0.074,0.299 0.012,0.414 0,0 -0.466,0.876 -0.711,1.612 C 1.18,7.425 1.048,8.701 1.048,8.701 1.035,8.832 0.942,8.869 0.842,8.783 c 0,0 -1.241,-1.057 -1.841,-2.467 C -1.225,5.787 -1.723,4.571 -1.473,2.996 -1.204,1.298 0,0 0,0"
             style="fill:#8b9195;fill-opacity:1;fill-rule:nonzero;stroke:none"
             id="path198" /></g><g
           id="g200"
           transform="translate(36.7427,64.0581)"><path
             d="m 0,0 c -0.118,0.057 -0.255,0.005 -0.305,-0.117 0,0 -0.38,-0.932 -0.472,-1.826 -0.078,-0.77 -0.215,-2.102 0.6,-3.333 0.849,-1.286 2.404,-1.71 2.404,-1.71 0.126,-0.035 0.234,0.044 0.239,0.175 l 0.032,0.809 c 0.004,0.131 -0.079,0.301 -0.185,0.377 0,0 -0.801,0.572 -1.23,1.51 -0.327,0.716 -0.344,1.484 -0.344,1.484 -0.003,0.131 0.092,0.192 0.21,0.134 0,0 0.356,-0.173 0.657,-0.34 0.408,-0.226 0.91,-0.555 0.91,-0.555 0.109,-0.072 0.245,-0.033 0.301,0.086 0,0 0.16,0.341 0.239,0.751 0.056,0.286 0.059,0.51 0.059,0.51 0.002,0.131 -0.086,0.298 -0.196,0.371 0,0 -0.935,0.619 -1.598,0.992 C 0.788,-0.383 0,0 0,0"
             style="fill:#8b9195;fill-opacity:1;fill-rule:nonzero;stroke:none"
             id="path202" /></g><g
           id="g204"
           transform="translate(35.9424,56.1406)"><path
             d="m 0,0 c -0.121,0.052 -0.211,-0.013 -0.202,-0.144 0,0 0.121,-1.61 0.282,-2.046 0.409,-1.116 1.11,-1.82 1.629,-2.341 0.458,-0.46 0.995,-0.856 0.995,-0.856 0.106,-0.078 0.226,-0.04 0.268,0.085 0,0 0.02,0.059 0.06,0.221 0.059,0.233 0.085,0.407 0.085,0.407 0.019,0.13 -0.017,0.331 -0.079,0.446 0,0 -0.285,0.531 -0.424,1.076 C 2.532,-2.827 2.5,-2.516 2.5,-2.516 2.487,-2.385 2.576,-2.309 2.696,-2.347 L 2.823,-2.406 2.94,-2.46 c 0.101,-0.063 0.206,-0.01 0.235,0.119 0,0 0.024,0.106 0.041,0.319 0.019,0.233 0.009,0.367 0.009,0.367 -0.01,0.132 -0.116,0.282 -0.236,0.337 0,0 -1.243,0.561 -1.991,0.888 C 0.59,-0.252 0,0 0,0"
             style="fill:#8b9195;fill-opacity:1;fill-rule:nonzero;stroke:none"
             id="path206" /></g><g
           id="g208"
           transform="translate(61.9585,56.8345)"><path
             d="m 0,0 c -0.252,-0.426 -1.227,0.113 -2.572,-0.15 -1.175,-0.231 -1.038,-0.762 -2.347,-1.124 -1.758,-0.487 -3.176,0.148 -3.451,0.549 -0.095,0.14 -0.16,0.294 -0.16,0.294 -0.077,0.185 -0.091,0.313 -0.133,0.766 -0.022,0.253 -0.069,0.501 -0.109,0.75 C -8.806,1.301 -8.816,1.514 -8.976,1.679 -9.003,1.708 -9.035,1.734 -9.074,1.746 -9.146,1.768 -9.228,1.728 -9.276,1.668 -9.278,1.665 -9.281,1.664 -9.281,1.66 V 1.659 C -9.379,1.532 -9.375,1.36 -9.391,1.21 V 1.205 1.204 C -9.406,1.032 -9.423,0.861 -9.452,0.691 -9.505,0.359 -9.605,0.023 -9.829,-0.234 c -0.18,-0.209 -0.46,-0.351 -0.733,-0.236 -0.16,0.067 -0.285,0.2 -0.369,0.35 -0.056,0.103 -0.095,0.208 -0.123,0.314 -0.108,0.41 -0.046,0.853 -0.1,1.274 -0.01,0.076 -0.023,0.155 -0.062,0.222 -0.115,0.2 -0.308,0.123 -0.4,-0.046 -0.195,-0.375 -0.246,-0.8 -0.352,-1.202 0,0 -0.119,-0.42 -0.337,-0.774 -0.101,-0.167 -0.217,-0.288 -0.233,-0.305 0,0 -0.065,-0.069 -0.139,-0.132 -0.093,-0.077 -1.386,-1.038 -2.923,-0.748 -1.185,0.223 -1.029,0.912 -2.302,1.254 -1.28,0.344 -2.216,-0.14 -2.417,0.263 -0.11,0.221 0.125,0.563 0.593,1.247 0.312,0.455 0.616,0.9 1.155,1.343 0.116,0.097 0.251,0.198 0.881,0.545 0.206,0.113 0.464,0.253 0.793,0.428 0.112,0.061 0.218,0.116 0.316,0.168 0.812,0.432 1.091,0.574 1.064,0.675 -0.041,0.141 -0.649,0.124 -1.394,0.104 -0.211,-0.005 -0.388,-0.015 -0.388,-0.015 -0.485,-0.025 -0.52,-0.052 -0.726,-0.049 -0.298,0.004 -0.615,0.009 -0.818,0.207 -0.159,0.16 -0.185,0.383 -0.193,0.545 -0.056,1.023 0.401,2.198 0.612,2.678 0.049,0.113 0.085,0.189 0.097,0.214 0.155,0.317 0.383,0.752 0.7,1.247 2.543,-2.083 4.913,-3.29 6.591,-3.994 1.065,-0.448 2.08,-0.789 3.002,-1.059 0.812,-0.237 1.547,-0.418 2.181,-0.564 h 10e-4 C -5.617,3.666 -5.396,3.615 -5.193,3.57 -4.385,3.388 -3.637,3.245 -2.969,3.131 -2.381,3.032 -1.852,2.956 -1.399,2.896 -1.092,2.493 -0.692,1.91 -0.325,1.148 0.116,0.238 0.037,0.062 0,0"
             style="fill:#8b9195;fill-opacity:1;fill-rule:nonzero;stroke:none"
             id="path210" /></g><g
           id="g212"
           transform="translate(61.9907,52.21)"><path
             d="m 0,0 c -0.005,-0.391 -0.083,-0.925 -0.406,-1.424 -0.684,-1.054 -2.186,-1.524 -3.754,-1.143 0.177,-0.152 0.376,-0.31 0.6,-0.469 0.267,-0.187 0.523,-0.341 0.759,-0.47 -0.31,-0.05 -0.69,-0.086 -1.121,-0.067 -0.28,0.01 -0.88,0.04 -1.586,0.303 -1.296,0.486 -2.484,1.566 -2.83,2.939 -0.018,0.08 -0.056,0.258 -0.163,0.265 -0.071,0.005 -0.111,-0.049 -0.135,-0.116 v -0.002 c -0.025,-0.069 -0.032,-0.15 -0.032,-0.197 -0.01,-0.691 -0.019,-1.384 -0.027,-2.075 -0.009,-0.674 -0.073,-1.374 -0.009,-2.043 0.006,-0.055 0.039,-0.109 0.092,-0.123 0.197,-0.053 0.379,0.449 0.443,0.572 0.15,0.285 0.32,0.647 0.74,0.455 0.111,-0.051 0.205,-0.133 0.281,-0.229 0.116,-0.145 0.254,-0.316 0.261,-0.512 0.006,-0.145 -0.052,-0.27 -0.126,-0.383 -0.332,-0.503 -0.807,-0.86 -1.146,-1.069 0,0 -0.002,0 -0.004,-0.002 -0.239,-0.148 -0.409,-0.222 -0.409,-0.222 -0.885,-0.389 -1.663,-0.383 -1.845,-0.378 0,0 -1.182,0.029 -2.503,0.897 0,0 -0.415,0.273 -0.739,0.774 -0.062,0.097 -0.131,0.222 -0.126,0.383 0.007,0.166 0.091,0.282 0.187,0.416 0.093,0.129 0.209,0.29 0.42,0.35 0.057,0.017 0.145,0.042 0.244,0.017 0.16,-0.039 0.233,-0.177 0.432,-0.497 0.321,-0.516 0.401,-0.582 0.453,-0.568 0.059,0.014 0.079,0.126 0.086,0.167 0.091,0.548 0,1.597 -0.012,1.995 -0.024,0.723 0.14,1.431 -0.027,2.075 -0.023,0.091 -0.082,0.314 -0.166,0.315 -0.083,0.002 -0.149,-0.212 -0.166,-0.265 -0.16,-0.49 -1.215,-2.295 -2.83,-2.939 -0.545,-0.217 -1.049,-0.259 -1.586,-0.303 -0.45,-0.039 -1.097,-0.052 -1.119,0.067 -0.015,0.079 0.255,0.155 0.759,0.47 0.408,0.258 0.615,0.381 0.598,0.469 -0.046,0.231 -1.427,-0.239 -2.584,0.312 -0.627,0.298 -1.087,0.849 -1.355,1.353 -0.266,0.499 -0.345,0.949 -0.217,1.069 0.241,0.224 1.084,-0.816 2.733,-1.199 0.543,-0.126 1.049,-0.131 1.499,-0.082 0.542,0.059 1.003,0.197 1.353,0.303 2.968,0.895 3.199,3.115 4.851,3.051 0.142,-0.005 0.27,-0.027 0.386,-0.063 0.456,-0.135 0.758,-0.476 1.129,-0.9 0.42,-0.477 0.925,-1.053 1.845,-1.547 0.203,-0.107 0.425,-0.212 0.671,-0.312 0.546,-0.219 1.836,-0.716 3.466,-0.45 0.089,0.015 0.175,0.031 0.261,0.049 h 0.003 c 1.067,0.224 1.859,0.703 2.338,1.052 C -0.078,0.109 0.001,0.069 0,0"
             style="fill:#8b9195;fill-opacity:1;fill-rule:nonzero;stroke:none"
             id="path214" /></g><g
           id="g216"
           transform="translate(42.5322,53.2598)"><path
             d="M 0,0 C 0.078,0.123 0.3,0.154 0.421,0.193 0.635,0.263 0.849,0.333 1.062,0.402 1.494,0.542 1.682,0.325 1.937,0.01 2.266,-0.398 2.759,-0.667 3.278,-0.736 3.338,-0.744 3.401,-0.75 3.452,-0.784 3.745,-0.981 2.815,-1.214 2.695,-1.229 2.195,-1.294 1.682,-1.23 1.21,-1.055 0.798,-0.901 0.334,-0.654 0.061,-0.301 0.003,-0.226 -0.048,-0.129 -0.019,-0.039 -0.014,-0.025 -0.008,-0.012 0,0"
             style="fill:#8b9195;fill-opacity:1;fill-rule:nonzero;stroke:none"
             id="path218" /></g><g
           id="g220"
           transform="translate(60.9058,53.2598)"><path
             d="m 0,0 c -0.078,0.123 -0.3,0.154 -0.422,0.193 -0.213,0.07 -0.426,0.14 -0.64,0.209 -0.431,0.14 -0.62,-0.077 -0.875,-0.392 -0.329,-0.408 -0.822,-0.677 -1.341,-0.746 -0.06,-0.008 -0.123,-0.014 -0.174,-0.048 -0.293,-0.197 0.637,-0.43 0.757,-0.445 0.5,-0.065 1.013,-10e-4 1.485,0.174 0.412,0.154 0.876,0.401 1.149,0.754 0.058,0.075 0.11,0.172 0.08,0.262 C 0.014,-0.025 0.008,-0.012 0,0"
             style="fill:#8b9195;fill-opacity:1;fill-rule:nonzero;stroke:none"
             id="path222" /></g><g
           id="g224"
           transform="translate(49.8794,58.0884)"><path
             d="m 0,0 c -0.376,-1.03 -3.472,-1.476 -4.925,-0.037 -0.468,0.463 -0.972,1.328 -0.686,1.918 0.206,0.113 0.464,0.253 0.793,0.428 C -4.706,2.37 -4.6,2.425 -4.501,2.478 -3.804,2.565 -2.959,2.44 -2.434,2.304 -2.223,2.249 -0.177,1.692 0.019,0.432 0.039,0.309 0.061,0.165 0,0"
             style="fill:#d6d5d6;fill-opacity:1;fill-rule:nonzero;stroke:none"
             id="path226" /></g><g
           id="g228"
           transform="translate(53.9834,59.9888)"><path
             d="m 0,0 c -0.13,-0.313 -0.372,-0.58 -0.686,-0.711 -0.203,-0.085 -0.448,-0.133 -0.563,-0.321 -0.079,-0.129 -0.073,-0.29 -0.084,-0.441 -0.023,-0.313 -0.131,-0.708 -0.375,-0.923 -0.068,-0.06 -0.155,-0.107 -0.246,-0.1 -0.236,0.02 -0.446,0.358 -0.552,0.541 -0.135,0.237 -0.22,0.503 -0.242,0.774 -0.011,0.136 -0.015,0.287 -0.113,0.38 -0.058,0.055 -0.14,0.077 -0.218,0.098 -0.844,0.229 -1.665,0.544 -2.446,0.936 -0.786,0.395 -1.532,0.868 -2.224,1.41 -0.715,0.562 -1.351,1.2 -1.908,1.919 -0.244,0.314 -0.473,0.641 -0.685,0.978 -0.035,0.056 -0.071,0.116 -0.076,0.182 -0.006,0.074 0.028,0.146 0.061,0.213 0.213,0.428 0.45,0.845 0.708,1.248 C -6.911,3.919 -3.711,2.215 -0.305,1.204 -0.215,1.177 -0.12,1.148 -0.054,1.081 -0.006,1.032 0.022,0.968 0.044,0.903 0.144,0.609 0.119,0.286 0,0"
             style="fill:#d6d5d6;fill-opacity:1;fill-rule:nonzero;stroke:none"
             id="path230" /></g><g
           id="g232"
           transform="translate(59.0381,59.1553)"><path
             d="m 0,0 c -0.229,-1.32 -1.888,-1.925 -2.979,-1.983 -0.961,-0.053 -2.406,0.269 -2.583,1.066 -0.168,0.759 0.888,1.584 1.459,1.91 0.415,0.236 0.823,0.352 1.17,0.406 h 0.002 C -2.697,1.345 -2.476,1.294 -2.272,1.249 -1.465,1.067 -0.716,0.924 -0.049,0.811 0.059,0.418 0.023,0.142 0,0"
             style="fill:#d6d5d6;fill-opacity:1;fill-rule:nonzero;stroke:none"
             id="path234" /></g><g
           id="g236"
           transform="translate(45.8057,50.5225)"><path
             d="M 0,0 C -0.007,-0.094 -0.034,-0.192 -0.093,-0.268 -0.155,-0.347 -0.248,-0.396 -0.344,-0.43 -0.564,-0.505 -0.804,-0.5 -1.037,-0.48 -1.903,-0.404 -2.754,-0.121 -3.511,0.307 -3.75,0.442 -4.013,0.604 -4.266,0.786 -4.532,1.285 -4.611,1.734 -4.483,1.854 -4.242,2.078 -3.399,1.039 -1.75,0.656 -1.207,0.53 -0.701,0.524 -0.251,0.573 -0.079,0.449 0.019,0.258 0,0"
             style="fill:#d6d5d6;fill-opacity:1;fill-rule:nonzero;stroke:none"
             id="path238" /></g><g
           id="g240"
           transform="translate(60.2437,51.0566)"><path
             d="m 0,0 c -0.013,-0.035 -0.042,-0.061 -0.07,-0.085 -0.529,-0.451 -1.305,-0.595 -1.979,-0.578 -0.898,0.023 -1.792,0.304 -2.566,0.755 -0.171,0.099 -0.336,0.207 -0.495,0.324 -0.101,0.074 -0.276,0.208 -0.223,0.355 0.028,0.081 0.127,0.071 0.197,0.06 0.224,-0.035 0.435,-0.148 0.64,-0.24 0.014,-0.007 0.028,-0.013 0.042,-0.019 0.916,-0.37 1.886,-0.57 2.876,-0.516 0.357,0.019 0.707,0.095 1.063,0.111 C -0.422,0.171 0.075,0.206 0,0"
             style="fill:#d6d5d6;fill-opacity:1;fill-rule:nonzero;stroke:none"
             id="path242" /></g><g
           id="g244"
           transform="translate(55.104,47.8735)"><path
             d="m 0,0 c 0.005,-0.145 -0.052,-0.27 -0.126,-0.383 -0.332,-0.502 -0.808,-0.859 -1.146,-1.068 0,0 -0.002,0 -0.004,-0.002 -0.655,-0.265 -1.422,-0.44 -1.965,-0.007 -0.464,0.369 -0.472,0.942 -0.485,1.487 -0.031,1.275 0.043,2.545 0.084,3.819 0.022,0.726 0.017,1.508 0.268,2.196 0.094,0.259 0.251,0.406 0.415,0.472 0.456,-0.135 0.758,-0.477 1.129,-0.9 0.056,-0.358 0.018,-0.813 0.08,-1.46 V 4.153 C -1.774,4.083 -1.781,4.002 -1.781,3.956 -1.792,3.264 -1.8,2.572 -1.808,1.881 -1.817,1.207 -1.881,0.507 -1.817,-0.162 c 0.005,-0.056 0.039,-0.109 0.091,-0.123 0.198,-0.054 0.379,0.448 0.444,0.571 0.15,0.285 0.32,0.648 0.74,0.455 0.111,-0.05 0.205,-0.133 0.281,-0.229 C -0.145,0.367 -0.007,0.197 0,0"
             style="fill:#d6d5d6;fill-opacity:1;fill-rule:nonzero;stroke:none"
             id="path246" /></g><g
           id="g248"
           transform="translate(75.5664,47.8696)"><path
             d="m 0,0 c -3.401,-0.333 -5.963,0.629 -6.691,0.924 -1.886,0.763 -3.231,1.795 -4.05,2.53 -0.013,0.013 -0.023,0.028 -0.029,0.046 -0.005,0.015 -0.005,0.026 -0.005,0.028 -0.006,0.345 -0.013,0.691 -0.02,1.038 -10e-4,0.076 0.076,0.126 0.145,0.094 0.416,-0.2 0.866,-0.399 1.35,-0.59 0.666,-0.262 1.657,-0.566 1.657,-0.566 0.124,-0.039 0.14,-0.006 0.035,0.071 0,0 -0.856,0.624 -1.411,1.104 C -7.633,4.202 -6.076,3.767 -4.356,3.44 -0.549,2.715 2.854,2.751 5.57,3.036 h 0.007 c 0.046,0.002 0.09,0.002 0.131,0.002 0.768,0.013 1.246,0 1.32,-0.183 C 7.032,2.85 7.033,2.843 7.035,2.838 7.185,2.281 3.873,0.381 0,0"
             style="fill:#8b9195;fill-opacity:1;fill-rule:nonzero;stroke:none"
             id="path250" /></g><g
           id="g252"
           transform="translate(40.48,34.7476)"><path
             d="m 0,0 c 0,0 -2.152,0.566 -3.735,2.06 -0.052,0.048 -0.103,0.099 -0.155,0.151 -1.508,1.522 -2.038,3.231 -2.235,4.144 -0.003,0.019 -0.008,0.038 -0.012,0.058 -0.124,0.58 -0.311,1.559 -0.176,2.729 0.089,-1.118 0.616,-2.16 1.5,-2.824 C -3.881,5.617 -2.646,5.405 -1.477,5.703 -1.659,2.696 0.096,0.136 0.096,0.136 0.17,0.028 0.126,-0.034 0,0"
             style="fill:#8b9195;fill-opacity:1;fill-rule:nonzero;stroke:none"
             id="path254" /></g><g
           id="g256"
           transform="translate(45.9204,29.7754)"><path
             d="m 0,0 c 0.872,-0.772 1.746,-1.542 2.618,-2.314 -1.123,0.008 -1.29,-0.025 -2.06,0.059 -1.881,0.209 -3.126,0.583 -4.013,1.185 -1.097,1.561 -1.517,3.31 -1.2,3.523 0.221,0.144 0.629,-0.425 0.762,-0.54 C -3.583,1.642 -3.187,1.48 -2.794,1.365 -2.255,1.207 -1.687,1.119 -1.183,0.872 -0.742,0.654 -0.369,0.325 0,0"
             style="fill:#8b9195;fill-opacity:1;fill-rule:nonzero;stroke:none"
             id="path258" /></g><g
           id="g260"
           transform="translate(40.9468,38.3506)"><path
             d="M 0,0 C -0.108,0.403 -0.162,0.831 -0.165,1.27 0.001,1.018 0.223,0.713 0.499,0.383 c 0.772,-0.919 2.897,-3.12 8.828,-4.418 1.605,-0.35 2.557,-0.433 3.895,-0.572 2.478,-0.768 4.409,-0.71 4.401,-0.936 C 17.612,-5.811 14.879,-6.263 11.5,-5.88 9.925,-5.702 1.266,-4.721 0,0"
             style="fill:#8b9195;fill-opacity:1;fill-rule:nonzero;stroke:none"
             id="path262" /></g><g
           id="g264"
           transform="translate(67.9282,29.0776)"><path
             d="m 0,0 c -1.893,-0.831 -6.214,-1.355 -7.267,-1.481 -1.389,-0.169 -4.335,-0.442 -7.429,-0.3 -0.253,0.011 -0.541,0.027 -0.899,0.045 -1.748,0.849 -2.927,1.792 -2.809,2.102 0.168,0.438 2.804,-0.696 6.817,-0.275 1.072,0.113 1.997,0.209 3.206,0.581 1.28,0.397 1.695,0.736 2.936,0.966 C -4.073,1.895 -2.7,1.829 -2.649,1.564 -2.595,1.288 -3.996,0.912 -3.936,0.627 -3.905,0.486 -3.516,0.423 -1.55,0.322 -0.383,0.261 -0.088,0.26 -0.015,0.091 -0.003,0.062 0.002,0.032 0,0"
             style="fill:#8b9195;fill-opacity:1;fill-rule:nonzero;stroke:none"
             id="path266" /></g><g
           id="g268"
           transform="translate(56.3057,37.6362)"><path
             d="M 0,0 C -0.729,-0.019 -1.38,-0.052 -1.95,-0.091 -2.752,-0.145 -3.757,-0.236 -4.941,0.005 -5.125,0.204 -5.299,0.418 -5.459,0.646 -5.5,0.703 -5.538,0.762 -5.575,0.817 -5.612,0.875 -5.647,0.932 -5.681,0.986 -5.732,1.065 -5.777,1.143 -5.816,1.215 -5.832,1.239 -5.845,1.261 -5.855,1.284 -5.877,1.323 -5.897,1.362 -5.916,1.399 -5.922,1.411 -5.927,1.421 -5.933,1.431 -5.953,1.466 -5.97,1.5 -5.985,1.532 c -0.013,0.03 -0.022,0.047 -0.022,0.047 -0.055,0.118 -0.016,0.282 0.088,0.363 0.367,0.286 0.733,0.571 1.099,0.856 0.104,0.079 0.266,0.071 0.362,-0.015 0,0 0.133,-0.12 0.378,-0.314 0.067,-0.054 0.142,-0.113 0.221,-0.175 0.006,-0.005 0.013,-0.01 0.02,-0.017 0.11,-0.083 0.229,-0.173 0.359,-0.27 0.136,-0.101 0.285,-0.207 0.443,-0.317 0.472,-0.328 1.035,-0.686 1.67,-1.027 0,0 0,-0.002 0.002,-0.002 C -1.153,0.546 -0.934,0.432 -0.706,0.322 -0.479,0.21 -0.243,0.103 0,0"
             style="fill:#8b9195;fill-opacity:1;fill-rule:nonzero;stroke:none"
             id="path270" /></g><g
           id="g272"
           transform="translate(66.7217,39.1479)"><path
             d="M 0,0 C -0.32,-0.019 -0.667,-0.03 -1.038,-0.034 -0.7,-0.023 -0.354,-0.012 0,0"
             style="fill:#8b9195;fill-opacity:1;fill-rule:nonzero;stroke:none"
             id="path274" /></g><g
           id="g276"
           transform="translate(75.8579,37.2588)"><path
             d="m 0,0 c 0,0 -0.93,-1.379 -1.874,-2.341 -0.061,-0.062 -0.125,-0.125 -0.189,-0.185 -1.585,-0.279 -3.831,-0.439 -6.406,0.116 -2.046,0.441 -3.689,1.202 -4.889,1.903 0.416,0.07 0.836,0.172 1.257,0.306 1.485,0.479 3.403,1.971 3.403,1.971 0.082,0.063 0.158,0.123 0.189,0.146 1.474,0.095 2.708,0.221 3.616,0.337 2.633,0.335 4.544,0.594 6.781,1.498 0.428,0.174 0.826,0.354 1.193,0.535 -4.03,-4.133 -12.123,-5.203 -12.123,-5.203 -0.131,-0.019 -0.131,-0.05 -10e-4,-0.072 0,0 2.352,-0.408 4.183,-0.235 2.216,0.209 4.774,1.327 4.774,1.327 C 0.036,0.155 0.073,0.109 0,0"
             style="fill:#8b9195;fill-opacity:1;fill-rule:nonzero;stroke:none"
             id="path278" /></g><g
           id="g280"
           transform="translate(44.2349,74.9526)"><path
             d="M 0,0 C 0.29,-0.484 0.494,-1.417 1.283,-2.231 0.958,-2.649 0.658,-3.088 0.381,-3.54 0.233,-3.786 0.089,-4.035 -0.043,-4.288 c -0.063,-0.118 -0.124,-0.235 -0.183,-0.356 -0.028,-0.057 -0.123,-0.308 -0.175,-0.187 -0.003,0.009 -0.007,0.021 -0.01,0.034 -0.18,0.725 -0.246,1.477 -0.204,2.22 0.025,0.43 0.083,0.858 0.175,1.278 0.1,0.445 0.243,0.886 0.44,1.299"
             style="fill:#8b9195;fill-opacity:1;fill-rule:nonzero;stroke:none"
             id="path282" /></g><g
           id="g284"
           transform="translate(79.5728,63.1885)"><path
             d="m 0,0 c -0.104,-0.403 -0.309,-0.811 -0.43,-1.009 -0.543,-0.887 -1.372,-1.158 -2.378,-1.126 -1.916,0.064 -3.767,0.665 -5.641,1.068 -2.009,0.433 -4.389,0.706 -6.216,-0.441 -0.345,-0.218 -1.031,-0.86 -1.48,-0.633 -0.16,0.081 -0.284,0.28 -0.326,0.346 -0.059,0.093 -0.235,0.371 -0.188,0.637 0.055,0.305 0.369,0.405 0.892,0.77 0.204,0.144 0.474,0.351 0.768,0.639 0.031,0.031 0.009,0.083 -0.035,0.08 -1.781,-0.13 -6.055,-0.329 -10.271,0.63 -1.432,0.327 -2.836,0.78 -4.184,1.367 -0.939,0.409 -1.844,0.871 -2.729,1.39 -0.158,0.095 -0.324,0.196 -0.416,0.356 -0.098,0.168 -0.098,0.376 -0.09,0.572 0.046,1.29 0.25,2.564 0.614,3.784 0.207,-0.047 0.43,-0.076 0.664,-0.077 0.774,-0.009 1.158,0.278 2.196,0.723 1.417,0.609 2.543,0.863 3.92,1.174 0.363,0.083 0.703,0.149 1.025,0.203 0.64,0.108 1.45,0.217 2.496,0.271 3.779,0.197 9.126,-0.307 9.126,-0.307 0.194,-0.018 0.378,-0.037 0.55,-0.053 0,-0.002 0.002,-0.006 0.002,-0.009 0.008,-0.023 -0.007,-0.054 -0.036,-0.059 -0.553,-0.116 -1.114,-0.229 -1.684,-0.34 -0.625,-0.12 -1.244,-0.235 -1.854,-0.341 -0.01,-10e-4 -0.018,-0.007 -0.025,-0.013 -0.315,-0.005 -0.661,-0.019 -1.079,-0.058 -0.974,-0.09 -1.371,-0.225 -2.641,-0.486 -3.544,-0.73 -5.693,-0.763 -5.693,-0.994 0.004,-0.097 0.621,-0.178 1.854,-0.336 2.663,-0.341 3.996,-0.513 4.177,-0.524 1.744,-0.114 1.897,0.04 4.419,-0.056 0.514,-0.021 0.957,-0.037 1.331,-0.056 -0.992,-0.174 -1.591,-0.416 -2.204,-0.613 -2.741,-0.88 -5.727,-0.875 -6.567,-0.874 -0.052,0 -0.104,0 -0.155,0.002 -0.052,0 -0.106,0 -0.16,0.002 -0.113,0.002 -0.224,0.005 -0.335,0.009 -0.09,10e-4 -0.179,0.006 -0.266,0.009 -0.056,0.002 -0.11,0.006 -0.166,0.009 -0.087,0.003 -0.175,0.009 -0.261,0.015 -0.012,0 -0.024,0.002 -0.035,0.002 -0.076,0.005 -0.15,0.01 -0.224,0.017 -0.101,0.006 -0.201,0.015 -0.299,0.023 -0.15,0.015 -0.298,0.031 -0.445,0.046 -0.337,0.037 -0.662,0.082 -0.979,0.131 -0.14,0.022 -0.278,0.046 -0.415,0.069 -0.168,0.031 -0.333,0.061 -0.495,0.093 -0.147,0.03 -0.29,0.061 -0.431,0.091 -0.144,0.032 -0.282,0.064 -0.418,0.096 -0.07,0.015 -0.137,0.032 -0.204,0.049 -0.204,0.051 -0.403,0.105 -0.597,0.157 -0.123,0.033 -0.243,0.069 -0.361,0.103 -0.121,0.035 -0.239,0.07 -0.355,0.107 -0.172,0.052 -0.341,0.107 -0.501,0.16 -0.017,0.006 -0.036,0.012 -0.052,0.017 -0.01,0.002 -0.02,0.005 -0.032,0.011 -0.037,0.01 -0.077,0.025 -0.125,0.042 -0.023,0.008 -0.049,0.018 -0.076,0.029 -0.221,0.088 -0.288,0.144 -0.305,0.129 -0.069,-0.059 0.718,-1.352 1.593,-2.161 2.034,-1.882 5.083,-2.504 7.721,-2.942 1.228,-0.204 2.47,-0.344 3.714,-0.418 1.3,-0.076 2.613,-0.083 3.893,-0.346 1.302,-0.264 2.537,-0.79 3.838,-1.063 1.509,-0.316 3.046,-0.484 4.585,-0.536 0.765,-0.027 1.535,-0.024 2.293,0.089 0.632,0.095 1.165,0.359 1.77,0.514 0.076,0.02 0.157,0.037 0.232,0.015 C -0.1,0.152 -0.035,0.083 0,0"
             style="fill:#8b9195;fill-opacity:1;fill-rule:nonzero;stroke:none"
             id="path286" /></g></g></g><g
       id="g288"><g
         id="g290"><g
           id="g296"><g
             id="g298"><path
               d="m 510.267,17.352 h 5.245 V 85.54 h -5.245 z"
               style="fill:url(#linearGradient306);stroke:none"
               id="path308" /></g></g></g></g></g></svg>
