<?xml version="1.0" encoding="UTF-8" standalone="no"?>
<svg
   xmlns:dc="http://purl.org/dc/elements/1.1/"
   xmlns:cc="http://creativecommons.org/ns#"
   xmlns:rdf="http://www.w3.org/1999/02/22-rdf-syntax-ns#"
   xmlns:svg="http://www.w3.org/2000/svg"
   xmlns="http://www.w3.org/2000/svg"
   xmlns:sodipodi="http://sodipodi.sourceforge.net/DTD/sodipodi-0.dtd"
   xmlns:inkscape="http://www.inkscape.org/namespaces/inkscape"
   version="1.1"
   id="svg2"
   xml:space="preserve"
   width="426.66666"
   height="137.33333"
   viewBox="0 0 426.66666 137.33333"
   sodipodi:docname="Olympus-locker-logo-mobile.ai"><metadata
     id="metadata8"><rdf:RDF><cc:Work
         rdf:about=""><dc:format>image/svg+xml</dc:format><dc:type
           rdf:resource="http://purl.org/dc/dcmitype/StillImage" /></cc:Work></rdf:RDF></metadata><defs
     id="defs6"><clipPath
       clipPathUnits="userSpaceOnUse"
       id="clipPath18"><path
         d="M 0,103 H 320 V 0 H 0 Z"
         id="path16" /></clipPath><clipPath
       clipPathUnits="userSpaceOnUse"
       id="clipPath50"><path
         d="M 9.143,4 H 104 V 98.857 H 9.143 Z"
         id="path48" /></clipPath><linearGradient
       x1="0"
       y1="0"
       x2="1"
       y2="0"
       gradientUnits="userSpaceOnUse"
       gradientTransform="matrix(0,-94.135475,94.135475,0,56.678768,98.490753)"
       spreadMethod="pad"
       id="linearGradient74"><stop
         style="stop-opacity:1;stop-color:#e94747"
         offset="0"
         id="stop68" /><stop
         style="stop-opacity:1;stop-color:#42d7f8"
         offset="0.00000034"
         id="stop70" /><stop
         style="stop-opacity:1;stop-color:#4860f9"
         offset="1"
         id="stop72" /></linearGradient><linearGradient
       x1="0"
       y1="0"
       x2="1"
       y2="0"
       gradientUnits="userSpaceOnUse"
       gradientTransform="matrix(0,62.540691,-62.540691,0,56.678764,20.152674)"
       spreadMethod="pad"
       id="linearGradient96"><stop
         style="stop-opacity:1;stop-color:#e94747"
         offset="0"
         id="stop90" /><stop
         style="stop-opacity:1;stop-color:#42d7f8"
         offset="0.00000034"
         id="stop92" /><stop
         style="stop-opacity:1;stop-color:#4861f9"
         offset="1"
         id="stop94" /></linearGradient><linearGradient
       x1="0"
       y1="0"
       x2="1"
       y2="0"
       gradientUnits="userSpaceOnUse"
       gradientTransform="matrix(0,-63.573513,63.573513,0,56.678852,83.209778)"
       spreadMethod="pad"
       id="linearGradient116"><stop
         style="stop-opacity:1;stop-color:#42d5f8"
         offset="0"
         id="stop112" /><stop
         style="stop-opacity:1;stop-color:#284ff3"
         offset="1"
         id="stop114" /></linearGradient><clipPath
       clipPathUnits="userSpaceOnUse"
       id="clipPath126"><path
         d="M 9.143,4 H 104 V 98.857 H 9.143 Z"
         id="path124" /></clipPath><linearGradient
       x1="0"
       y1="0"
       x2="1"
       y2="0"
       gradientUnits="userSpaceOnUse"
       gradientTransform="matrix(0,-68.187889,-68.187889,0,127.88893,85.539368)"
       spreadMethod="pad"
       id="linearGradient278"><stop
         style="stop-opacity:1;stop-color:#3bc6f3"
         offset="0"
         id="stop272" /><stop
         style="stop-opacity:1;stop-color:#3bc6f3"
         offset="0.00102244"
         id="stop274" /><stop
         style="stop-opacity:1;stop-color:#3950e2"
         offset="1"
         id="stop276" /></linearGradient></defs><sodipodi:namedview
     pagecolor="#ffffff"
     bordercolor="#666666"
     borderopacity="1"
     objecttolerance="10"
     gridtolerance="10"
     guidetolerance="10"
     inkscape:pageopacity="0"
     inkscape:pageshadow="2"
     inkscape:window-width="640"
     inkscape:window-height="480"
     id="namedview4" /><g
     id="g10"
     inkscape:groupmode="layer"
     inkscape:label="Olympus-locker-logo-mobile"
     transform="matrix(1.3333333,0,0,-1.3333333,0,137.33333)"><g
       id="g12"><g
         id="g14"
         clip-path="url(#clipPath18)"><g
           id="g20"
           transform="translate(200.1679,51.7913)"><path
             d="m 0,0 c -0.121,1.539 -0.181,2.569 -0.287,3.593 -0.623,6.009 -3.938,9.235 -9.725,9.479 -5.217,0.219 -8.801,-2.461 -10.078,-7.524 -0.689,-2.733 -0.673,-5.494 -0.361,-8.267 0.053,-0.472 0.163,-0.938 0.268,-1.401 1.474,-6.475 6.108,-8.523 11.791,-7.789 4.13,0.534 6.603,3.071 7.604,7.013 C -0.342,-3.142 -0.203,-1.31 0,0 m -10.389,-15.179 c -5.729,-0.023 -10.28,2.076 -12.556,7.593 -0.858,2.079 -1.302,4.433 -1.414,6.687 -0.123,2.463 0.044,5.033 0.636,7.419 1.6,6.455 6.541,9.91 13.521,9.819 C -2.425,16.238 2.94,11.334 3.5,3.558 3.689,0.934 3.669,-1.789 3.182,-4.36 1.859,-11.338 -3.122,-15.168 -10.389,-15.179"
             style="fill:#ffffff;fill-opacity:1;fill-rule:nonzero;stroke:none"
             id="path22" /></g><g
           id="g24"
           transform="translate(291.5529,64.6923)"><path
             d="m 0,0 v -11.991 c 2.753,0.19 5.465,0.147 8.082,0.622 2.743,0.499 3.999,2.622 3.929,5.701 -0.065,2.839 -1.283,4.572 -4.074,5.038 C 5.378,-0.202 2.748,-0.2 0,0 m -3.639,3.163 c 4.293,-0.21 8.48,-0.155 12.592,-0.688 4.16,-0.54 6.322,-3.03 6.706,-6.75 0.47,-4.543 -1.15,-7.504 -5.055,-9.249 -0.282,-0.126 -0.557,-0.268 -0.928,-0.448 2.724,-4.529 5.414,-9.002 8.232,-13.687 -1.449,0 -2.706,-0.047 -3.954,0.036 -0.28,0.019 -0.6,0.454 -0.784,0.767 -2.149,3.663 -4.298,7.326 -6.387,11.022 -0.412,0.728 -0.876,0.964 -1.679,0.936 -1.663,-0.058 -3.33,-0.018 -5.145,-0.018 v -12.686 h -3.598 z"
             style="fill:#ffffff;fill-opacity:1;fill-rule:nonzero;stroke:none"
             id="path26" /></g><g
           id="g28"
           transform="translate(237.7868,67.6102)"><path
             d="m 0,0 h 3.546 v -15.053 c 1.618,1.763 3.003,3.269 4.385,4.778 2.869,3.135 5.764,6.247 8.585,9.424 0.626,0.705 1.254,0.974 2.153,0.912 C 19.563,0 20.465,0.048 21.66,0.048 c -1.546,-1.685 -2.894,-3.164 -4.253,-4.633 -2.4,-2.594 -4.779,-5.209 -7.229,-7.755 -0.681,-0.707 -0.756,-1.142 -0.138,-1.964 3.77,-5.016 7.472,-10.082 11.195,-15.133 0.229,-0.311 0.439,-0.635 0.79,-1.145 -1.409,0 -2.63,-0.056 -3.84,0.036 -0.343,0.026 -0.722,0.434 -0.966,0.756 -3.191,4.21 -6.361,8.435 -9.536,12.657 -0.306,0.405 -0.613,0.809 -0.985,1.299 C 5.71,-16.712 4.754,-17.48 3.911,-18.357 3.638,-18.641 3.568,-19.21 3.565,-19.65 3.538,-23.223 3.55,-26.797 3.55,-30.481 H 0 Z"
             style="fill:#ffffff;fill-opacity:1;fill-rule:nonzero;stroke:none"
             id="path30" /></g><g
           id="g32"
           transform="translate(281.1139,40.2816)"><path
             d="M 0,0 V -3.161 H -17.038 V 27.3 h 16.986 v -3.125 h -13.319 v -9.73 H -0.85 V 11.16 H -13.404 V 0 Z"
             style="fill:#ffffff;fill-opacity:1;fill-rule:nonzero;stroke:none"
             id="path34" /></g><g
           id="g36"
           transform="translate(231.0595,40.8085)"><path
             d="m 0,0 c 0.057,-3.734 0.755,-3.141 -2.839,-3.753 -2.659,-0.453 -5.482,-0.483 -8.163,-0.149 -5.254,0.654 -8.575,3.878 -10.09,8.881 -1.197,3.953 -1.267,7.997 -0.215,11.998 1.737,6.613 7.189,10.516 14.315,10.341 2.83,-0.07 5.595,-0.456 8.22,-1.796 -0.498,-1.024 -0.964,-1.981 -1.479,-3.037 -0.619,0.229 -1.199,0.443 -1.779,0.658 -2.395,0.889 -4.879,1.188 -7.38,0.756 -4.335,-0.747 -6.937,-3.498 -8.098,-7.614 -0.912,-3.233 -0.862,-6.538 0.018,-9.775 1.461,-5.374 5.879,-8.147 11.798,-7.444 C -3.808,-0.711 -1.943,-0.324 0,0"
             style="fill:#ffffff;fill-opacity:1;fill-rule:nonzero;stroke:none"
             id="path38" /></g><g
           id="g40"
           transform="translate(155.0794,67.6171)"><path
             d="M 0,0 H 3.566 V -13.569 -27.286 H 16.96 v -3.239 H 0 Z"
             style="fill:#ffffff;fill-opacity:1;fill-rule:nonzero;stroke:none"
             id="path42" /></g></g></g><g
       id="g44"><g
         id="g46"
         clip-path="url(#clipPath50)"><g
           id="g52"
           transform="translate(102.9336,51.423)"><path
             d="m 0,0 c 0,-25.546 -20.709,-46.255 -46.255,-46.255 -25.546,0 -46.255,20.709 -46.255,46.255 0,25.546 20.709,46.255 46.255,46.255 C -20.709,46.255 0,25.546 0,0"
             style="fill:#0c0c3f;fill-opacity:1;fill-rule:nonzero;stroke:none"
             id="path54" /></g></g></g><g
       id="g56"><g
         id="g58"><g
           id="g64"><g
             id="g66"><path
               d="M 9.611,51.423 C 9.611,25.428 30.684,4.355 56.679,4.355 v 0 c 25.995,0 47.068,21.073 47.068,47.068 v 0 c 0,25.995 -21.073,47.068 -47.068,47.068 v 0 C 30.684,98.491 9.611,77.418 9.611,51.423 M 39.014,9.607 c -5.403,2.285 -10.257,5.557 -14.425,9.726 v 0 c -4.169,4.168 -7.441,9.022 -9.727,14.425 v 0 c -2.365,5.595 -3.565,11.537 -3.565,17.665 v 0 c 0,6.128 1.2,12.07 3.565,17.665 v 0 c 2.286,5.403 5.558,10.257 9.727,14.425 v 0 c 4.168,4.169 9.022,7.441 14.425,9.727 v 0 c 5.595,2.366 11.537,3.566 17.665,3.566 v 0 c 6.127,0 12.07,-1.2 17.664,-3.566 v 0 c 5.404,-2.286 10.258,-5.558 14.426,-9.727 v 0 c 4.169,-4.168 7.441,-9.022 9.726,-14.425 v 0 c 2.366,-5.595 3.566,-11.537 3.566,-17.665 v 0 c 0,-6.128 -1.2,-12.07 -3.566,-17.665 v 0 C 96.21,28.355 92.938,23.501 88.769,19.333 v 0 C 84.601,15.164 79.747,11.892 74.343,9.607 v 0 C 68.749,7.24 62.806,6.041 56.679,6.041 v 0 c -6.128,0 -12.07,1.199 -17.665,3.566"
               style="fill:url(#linearGradient74);stroke:none"
               id="path76" /></g></g></g></g><g
       id="g78"><g
         id="g80"><g
           id="g86"><g
             id="g88"><path
               d="m 25.409,51.423 c 0,-17.27 13.999,-31.27 31.27,-31.27 v 0 c 17.27,0 31.27,14 31.27,31.27 v 0 c 0,17.27 -14,31.271 -31.27,31.271 v 0 c -17.271,0 -31.27,-14.001 -31.27,-31.271"
               style="fill:url(#linearGradient96);stroke:none"
               id="path98" /></g></g></g></g><g
       id="g100"><g
         id="g102"><g
           id="g108"><g
             id="g110"><path
               d="m 24.892,51.423 c 0,-17.555 14.231,-31.787 31.787,-31.787 v 0 c 17.555,0 31.786,14.232 31.786,31.787 v 0 c 0,17.556 -14.231,31.787 -31.786,31.787 v 0 C 39.123,83.21 24.892,68.979 24.892,51.423 M 35.393,30.138 c -5.685,5.686 -8.816,13.245 -8.816,21.285 v 0 c 0,8.04 3.131,15.6 8.816,21.285 v 0 c 5.687,5.686 13.246,8.817 21.286,8.817 v 0 c 8.04,0 15.599,-3.131 21.284,-8.817 v 0 c 5.686,-5.685 8.818,-13.245 8.818,-21.285 v 0 c 0,-8.04 -3.132,-15.599 -8.818,-21.285 v 0 C 72.278,24.453 64.719,21.322 56.679,21.322 v 0 c -8.04,0 -15.599,3.131 -21.286,8.816"
               style="fill:url(#linearGradient116);stroke:none"
               id="path118" /></g></g></g></g><g
       id="g120"><g
         id="g122"
         clip-path="url(#clipPath126)"><g
           id="g128"
           transform="translate(89.6636,59.3303)"><path
             d="M 0,0 C 0.6,-2.52 0.92,-5.105 0.949,-7.693 0.931,-9.095 0.892,-10.5 0.706,-11.89 c -0.02,-0.171 0.04,-0.345 0.168,-0.485 0.128,-0.14 0.312,-0.235 0.512,-0.262 1.185,-0.164 2.476,-0.342 3.765,-0.52 1.011,-0.14 2.023,-0.28 2.983,-0.413 -0.066,-0.461 -0.155,-0.918 -0.23,-1.378 l -0.117,-0.689 c -0.039,-0.229 -0.095,-0.455 -0.142,-0.682 -0.097,-0.454 -0.194,-0.907 -0.29,-1.358 -0.11,-0.447 -0.231,-0.889 -0.346,-1.33 -0.058,-0.22 -0.117,-0.44 -0.175,-0.661 -0.061,-0.221 -0.136,-0.438 -0.204,-0.658 -0.141,-0.438 -0.283,-0.878 -0.425,-1.32 -0.153,-0.437 -0.326,-0.868 -0.491,-1.302 l -0.253,-0.649 c -0.082,-0.217 -0.187,-0.424 -0.28,-0.636 l -2.1,0.9 c 0.98,2.293 1.746,4.679 2.276,7.116 0.089,0.406 -0.173,0.799 -0.584,0.879 l -3.72,0.735 c -0.411,0.08 -0.807,-0.137 -0.884,-0.485 -0.55,-2.527 -1.388,-4.993 -2.493,-7.342 l -0.477,-0.941 c -0.16,-0.314 -0.309,-0.633 -0.491,-0.934 -0.352,-0.608 -0.683,-1.229 -1.076,-1.811 -0.093,-0.145 -0.114,-0.327 -0.061,-0.508 0.054,-0.182 0.178,-0.347 0.347,-0.458 0.998,-0.66 2.084,-1.379 3.171,-2.097 0.851,-0.564 1.702,-1.127 2.51,-1.663 -0.246,-0.394 -0.534,-0.762 -0.8,-1.144 l -0.406,-0.568 -0.202,-0.284 -0.214,-0.275 c -0.286,-0.366 -0.572,-0.73 -0.856,-1.093 l -0.212,-0.272 -0.224,-0.262 c -0.15,-0.173 -0.299,-0.346 -0.447,-0.519 -0.149,-0.172 -0.298,-0.345 -0.448,-0.518 l -0.225,-0.261 -0.237,-0.249 c -0.319,-0.333 -0.639,-0.668 -0.96,-1.003 -0.158,-0.17 -0.326,-0.33 -0.496,-0.488 l -0.509,-0.477 c -0.342,-0.314 -0.675,-0.639 -1.037,-0.929 l -1.503,1.722 c 1.88,1.641 3.601,3.463 5.132,5.432 0.258,0.326 0.195,0.792 -0.146,1.045 l -3.036,2.271 c -0.332,0.246 -0.786,0.224 -1.007,-0.055 -1.591,-2.04 -3.411,-3.898 -5.42,-5.53 l -0.835,-0.64 -0.417,-0.322 c -0.141,-0.104 -0.288,-0.2 -0.431,-0.301 l -0.865,-0.601 c -0.292,-0.195 -0.594,-0.373 -0.89,-0.561 -0.146,-0.091 -0.244,-0.248 -0.274,-0.435 -0.031,-0.188 0.01,-0.391 0.113,-0.564 0.611,-1.03 1.275,-2.15 1.94,-3.269 0.52,-0.879 1.041,-1.757 1.535,-2.591 -0.407,-0.226 -0.814,-0.452 -1.221,-0.677 -0.204,-0.113 -0.405,-0.229 -0.61,-0.338 l -0.623,-0.313 c -0.416,-0.206 -0.825,-0.422 -1.241,-0.619 -0.42,-0.188 -0.838,-0.376 -1.253,-0.563 -0.411,-0.194 -0.841,-0.354 -1.268,-0.523 -0.215,-0.083 -0.429,-0.167 -0.645,-0.252 -0.215,-0.084 -0.43,-0.168 -0.651,-0.238 -0.44,-0.146 -0.881,-0.292 -1.322,-0.438 -0.11,-0.036 -0.22,-0.074 -0.332,-0.106 l -0.335,-0.093 -0.672,-0.181 -0.608,2.203 c 2.404,0.664 4.745,1.556 6.981,2.662 0.371,0.185 0.515,0.636 0.321,1.007 l -1.745,3.367 c -0.194,0.371 -0.61,0.544 -0.929,0.385 -1.155,-0.588 -2.359,-1.071 -3.571,-1.529 -0.305,-0.108 -0.615,-0.204 -0.922,-0.307 l -0.461,-0.153 -0.23,-0.077 -0.234,-0.065 -0.937,-0.26 c -0.156,-0.042 -0.311,-0.091 -0.468,-0.128 l -0.474,-0.107 -1.027,-0.235 -1.037,-0.184 -0.518,-0.093 c -0.173,-0.03 -0.348,-0.046 -0.522,-0.07 l -1.044,-0.135 c -0.171,-0.027 -0.328,-0.11 -0.436,-0.265 -0.109,-0.151 -0.161,-0.349 -0.142,-0.55 0.105,-1.193 0.221,-2.49 0.336,-3.787 0.089,-1.017 0.179,-2.034 0.264,-3 -0.464,-0.033 -0.928,-0.067 -1.393,-0.1 -0.465,-0.016 -0.93,-0.03 -1.394,-0.045 -0.232,-0.006 -0.464,-0.021 -0.695,-0.02 -0.231,0.003 -0.462,0.005 -0.693,0.008 -0.46,0.008 -0.919,0.003 -1.374,0.022 -0.907,0.059 -1.832,0.086 -2.752,0.209 l -0.692,0.08 c -0.231,0.028 -0.462,0.05 -0.691,0.093 -0.458,0.079 -0.916,0.159 -1.373,0.238 l 0.41,2.248 c 2.455,-0.449 4.952,-0.661 7.447,-0.632 0.415,0.012 0.74,0.362 0.726,0.781 l -0.117,3.79 c -0.015,0.419 -0.315,0.749 -0.671,0.737 -2.588,-0.036 -5.175,0.251 -7.7,0.808 -0.689,0.133 -1.361,0.336 -2.039,0.516 -0.342,0.083 -0.671,0.207 -1.005,0.312 -0.333,0.111 -0.669,0.214 -1,0.33 -0.161,0.062 -0.343,0.046 -0.507,-0.044 -0.164,-0.089 -0.297,-0.246 -0.368,-0.434 -0.425,-1.12 -0.886,-2.338 -1.348,-3.555 -0.362,-0.955 -0.724,-1.909 -1.068,-2.816 -0.431,0.174 -0.869,0.334 -1.297,0.517 -0.425,0.188 -0.85,0.375 -1.274,0.563 -0.211,0.095 -0.427,0.181 -0.633,0.284 -0.207,0.103 -0.414,0.205 -0.62,0.307 -0.411,0.206 -0.821,0.41 -1.228,0.613 -0.396,0.222 -0.796,0.445 -1.197,0.67 -0.201,0.113 -0.401,0.226 -0.603,0.34 -0.195,0.123 -0.391,0.247 -0.587,0.37 -0.391,0.25 -0.782,0.5 -1.174,0.751 -0.377,0.271 -0.754,0.543 -1.13,0.814 l 1.342,1.85 c 2.019,-1.466 4.178,-2.737 6.435,-3.798 0.379,-0.168 0.824,0.006 0.993,0.389 l 1.543,3.464 c 0.169,0.384 0.042,0.811 -0.285,0.955 -2.357,1.093 -4.567,2.473 -6.602,4.068 -0.273,0.22 -0.554,0.431 -0.822,0.656 l -0.791,0.693 -0.396,0.346 -0.378,0.366 -0.756,0.731 c -0.124,0.119 -0.289,0.188 -0.477,0.177 -0.186,-0.009 -0.374,-0.092 -0.519,-0.232 -0.868,-0.825 -1.811,-1.723 -2.754,-2.62 -0.74,-0.704 -1.48,-1.407 -2.183,-2.075 -0.315,0.342 -0.631,0.685 -0.946,1.028 -0.302,0.355 -0.604,0.709 -0.905,1.063 -0.148,0.178 -0.306,0.349 -0.446,0.532 -0.142,0.183 -0.284,0.365 -0.426,0.547 -0.28,0.365 -0.572,0.719 -0.837,1.089 -0.522,0.744 -1.071,1.488 -1.55,2.282 l -0.37,0.59 -0.184,0.296 -0.17,0.304 c -0.225,0.406 -0.449,0.813 -0.673,1.218 l 2.014,1.081 c 1.179,-2.198 2.568,-4.284 4.143,-6.219 0.269,-0.317 0.745,-0.353 1.064,-0.081 l 2.894,2.451 c 0.318,0.272 0.39,0.712 0.159,0.983 -1.637,2.005 -3.027,4.21 -4.17,6.533 l -0.236,0.471 -0.212,0.482 -0.425,0.964 c -0.132,0.326 -0.253,0.656 -0.381,0.983 -0.126,0.328 -0.257,0.654 -0.36,0.99 -0.053,0.164 -0.181,0.295 -0.355,0.366 -0.174,0.072 -0.381,0.078 -0.572,0.016 -1.14,-0.368 -2.379,-0.768 -3.618,-1.168 -0.972,-0.313 -1.943,-0.625 -2.866,-0.923 l -0.213,0.664 -0.185,0.673 c -0.123,0.45 -0.254,0.896 -0.37,1.345 -0.204,0.905 -0.442,1.798 -0.59,2.696 -0.357,1.783 -0.556,3.652 -0.634,5.502 l 2.283,0.104 c 0.113,-2.492 0.466,-4.973 1.05,-7.398 0.086,-0.406 0.507,-0.643 0.913,-0.536 l 3.67,0.957 c 0.404,0.107 0.651,0.471 0.579,0.82 -0.601,2.52 -0.921,5.105 -0.95,7.693 0.019,1.402 0.057,2.807 0.244,4.198 0.02,0.171 -0.041,0.344 -0.169,0.485 -0.127,0.14 -0.311,0.235 -0.511,0.262 -1.186,0.163 -2.476,0.341 -3.766,0.519 -1.011,0.141 -2.022,0.281 -2.983,0.414 0.067,0.46 0.156,0.918 0.231,1.378 l 0.116,0.688 c 0.04,0.229 0.095,0.455 0.142,0.683 0.097,0.454 0.194,0.907 0.29,1.357 0.11,0.447 0.232,0.89 0.346,1.33 0.059,0.22 0.117,0.44 0.176,0.662 0.06,0.221 0.136,0.437 0.204,0.657 0.141,0.438 0.282,0.879 0.424,1.32 0.153,0.437 0.327,0.869 0.492,1.303 l 0.253,0.648 c 0.082,0.218 0.186,0.425 0.279,0.637 l 2.101,-0.9 c -0.981,-2.293 -1.746,-4.679 -2.277,-7.117 -0.088,-0.406 0.173,-0.799 0.584,-0.879 l 3.721,-0.735 c 0.411,-0.08 0.807,0.138 0.883,0.485 0.55,2.528 1.388,4.993 2.494,7.343 l 0.477,0.941 c 0.16,0.313 0.308,0.632 0.491,0.933 0.351,0.608 0.683,1.229 1.076,1.811 0.093,0.145 0.114,0.327 0.06,0.509 -0.054,0.181 -0.178,0.346 -0.346,0.457 -0.999,0.661 -2.085,1.379 -3.171,2.097 -0.851,0.564 -1.702,1.128 -2.511,1.663 0.246,0.395 0.534,0.763 0.801,1.144 l 0.405,0.568 0.203,0.284 0.214,0.275 c 0.286,0.366 0.571,0.731 0.855,1.094 l 0.213,0.272 0.224,0.261 c 0.149,0.174 0.298,0.347 0.447,0.519 0.148,0.173 0.297,0.345 0.447,0.519 l 0.225,0.26 0.238,0.25 c 0.318,0.333 0.638,0.667 0.959,1.002 0.158,0.17 0.326,0.33 0.497,0.488 l 0.509,0.477 c 0.341,0.315 0.674,0.64 1.037,0.93 l 1.502,-1.723 c -1.88,-1.64 -3.601,-3.462 -5.132,-5.432 -0.257,-0.326 -0.195,-0.791 0.146,-1.044 l 3.037,-2.271 c 0.332,-0.247 0.786,-0.224 1.007,0.055 1.59,2.039 3.411,3.898 5.419,5.53 l 0.835,0.64 0.417,0.321 c 0.142,0.104 0.288,0.201 0.432,0.301 l 0.864,0.601 c 0.292,0.195 0.595,0.373 0.891,0.562 0.146,0.091 0.244,0.247 0.274,0.435 0.03,0.187 -0.01,0.39 -0.113,0.563 -0.611,1.03 -1.276,2.15 -1.94,3.27 -0.521,0.878 -1.041,1.756 -1.535,2.591 0.406,0.225 0.813,0.451 1.22,0.677 0.204,0.112 0.406,0.228 0.611,0.338 l 0.622,0.312 c 0.416,0.206 0.825,0.423 1.242,0.619 0.42,0.189 0.837,0.377 1.252,0.563 0.412,0.194 0.841,0.354 1.269,0.523 0.214,0.084 0.429,0.168 0.644,0.252 0.215,0.085 0.431,0.169 0.652,0.239 0.439,0.146 0.881,0.291 1.321,0.438 0.111,0.035 0.221,0.073 0.332,0.106 l 0.336,0.092 0.671,0.181 0.609,-2.202 c -2.405,-0.664 -4.746,-1.557 -6.981,-2.662 -0.372,-0.185 -0.516,-0.637 -0.322,-1.008 l 1.745,-3.367 c 0.194,-0.371 0.61,-0.544 0.929,-0.384 1.155,0.588 2.36,1.071 3.571,1.528 0.306,0.109 0.615,0.204 0.922,0.308 l 0.461,0.153 0.231,0.077 0.234,0.064 0.936,0.261 c 0.156,0.042 0.311,0.09 0.469,0.128 l 0.473,0.106 1.027,0.235 1.037,0.184 0.519,0.094 c 0.173,0.03 0.348,0.046 0.522,0.07 l 1.044,0.134 c 0.17,0.027 0.327,0.111 0.436,0.265 0.108,0.152 0.16,0.35 0.142,0.551 -0.106,1.192 -0.221,2.489 -0.336,3.786 -0.09,1.017 -0.179,2.034 -0.264,3 0.463,0.034 0.928,0.067 1.392,0.101 0.466,0.015 0.931,0.03 1.395,0.045 0.232,0.006 0.463,0.02 0.695,0.019 0.231,-0.003 0.462,-0.005 0.692,-0.007 0.461,-0.008 0.92,-0.003 1.374,-0.022 0.908,-0.059 1.832,-0.087 2.753,-0.21 l 0.692,-0.08 c 0.23,-0.027 0.462,-0.049 0.69,-0.093 0.458,-0.079 0.916,-0.158 1.373,-0.237 l -0.41,-2.249 c -2.454,0.449 -4.952,0.661 -7.447,0.633 -0.415,-0.013 -0.74,-0.363 -0.725,-0.781 l 0.117,-3.791 c 0.014,-0.418 0.314,-0.749 0.67,-0.737 2.589,0.036 5.176,-0.251 7.7,-0.807 0.69,-0.133 1.362,-0.337 2.04,-0.517 0.341,-0.082 0.67,-0.206 1.005,-0.312 0.333,-0.111 0.669,-0.214 1,-0.33 0.161,-0.062 0.342,-0.046 0.506,0.044 0.165,0.09 0.298,0.246 0.369,0.435 0.424,1.119 0.885,2.337 1.347,3.554 0.362,0.955 0.725,1.909 1.069,2.816 0.431,-0.174 0.869,-0.333 1.296,-0.516 0.425,-0.188 0.85,-0.376 1.275,-0.563 0.211,-0.096 0.426,-0.182 0.633,-0.285 0.207,-0.102 0.413,-0.205 0.619,-0.307 0.412,-0.205 0.822,-0.41 1.228,-0.612 0.397,-0.222 0.796,-0.446 1.198,-0.671 0.2,-0.113 0.401,-0.226 0.602,-0.339 0.196,-0.124 0.391,-0.247 0.587,-0.371 0.391,-0.25 0.783,-0.5 1.174,-0.75 0.377,-0.272 0.754,-0.543 1.13,-0.814 l -1.342,-1.85 c -2.018,1.465 -4.177,2.736 -6.434,3.797 -0.38,0.169 -0.825,-0.006 -0.994,-0.389 l -1.543,-3.464 c -0.169,-0.383 -0.041,-0.811 0.286,-0.955 2.356,-1.092 4.566,-2.472 6.601,-4.068 0.273,-0.219 0.554,-0.43 0.823,-0.655 l 0.79,-0.694 0.397,-0.345 0.377,-0.367 0.757,-0.73 c 0.123,-0.12 0.288,-0.189 0.476,-0.178 0.187,0.01 0.374,0.093 0.52,0.232 0.867,0.826 1.811,1.723 2.754,2.621 0.74,0.703 1.48,1.406 2.183,2.074 0.315,-0.342 0.63,-0.685 0.945,-1.027 0.302,-0.355 0.604,-0.71 0.905,-1.063 0.148,-0.178 0.306,-0.349 0.447,-0.533 0.142,-0.182 0.284,-0.364 0.425,-0.546 0.28,-0.366 0.572,-0.72 0.838,-1.089 0.522,-0.745 1.071,-1.488 1.55,-2.283 l 0.369,-0.59 0.184,-0.295 0.171,-0.304 C 3.133,12.568 3.358,12.162 3.581,11.756 L 1.568,10.675 c -1.18,2.198 -2.569,4.284 -4.144,6.219 -0.269,0.317 -0.745,0.353 -1.063,0.081 l -2.894,-2.45 c -0.319,-0.272 -0.39,-0.713 -0.159,-0.984 1.636,-2.004 3.026,-4.209 4.169,-6.533 l 0.236,-0.471 0.212,-0.482 0.426,-0.964 c 0.132,-0.325 0.252,-0.655 0.38,-0.983 0.127,-0.327 0.258,-0.653 0.36,-0.99 0.054,-0.163 0.182,-0.294 0.356,-0.366 0.174,-0.072 0.38,-0.078 0.571,-0.016 1.14,0.368 2.379,0.768 3.618,1.168 0.972,0.313 1.943,0.626 2.867,0.923 L 6.716,4.163 6.901,3.49 C 7.023,3.041 7.154,2.594 7.271,2.146 7.475,1.241 7.712,0.348 7.861,-0.551 8.217,-2.334 8.417,-4.202 8.495,-6.053 L 6.212,-6.157 C 6.098,-3.665 5.745,-1.184 5.162,1.241 5.076,1.648 4.654,1.884 4.248,1.777 L 0.579,0.821 C 0.174,0.714 -0.073,0.349 0,0 m 4.719,-6.946 c 0.012,-0.396 0.362,-0.716 0.78,-0.714 l 3.793,0.027 c 0.414,0.001 0.741,0.363 0.734,0.813 -0.005,0.276 -0.01,0.551 -0.016,0.828 L 10,-5.578 9.971,-5.165 c -0.043,0.552 -0.087,1.103 -0.13,1.654 -0.072,0.547 -0.144,1.093 -0.215,1.636 L 9.57,-1.469 C 9.549,-1.334 9.522,-1.201 9.498,-1.067 9.449,-0.799 9.4,-0.533 9.351,-0.267 8.947,1.843 8.396,3.998 7.702,6.065 7.633,6.281 7.496,6.452 7.307,6.55 7.117,6.648 6.902,6.662 6.711,6.591 5.594,6.184 4.38,5.74 3.165,5.296 2.194,4.942 1.223,4.588 0.301,4.252 -0.133,5.414 -0.608,6.563 -1.16,7.674 c -1.091,2.228 -2.412,4.341 -3.939,6.293 l 1.792,1.403 C -1.829,13.482 -0.531,11.452 0.563,9.318 0.74,8.963 1.189,8.824 1.566,9.006 l 3.407,1.666 c 0.372,0.18 0.515,0.65 0.32,1.056 -0.98,1.97 -2.156,3.879 -3.437,5.618 -1.282,1.728 -2.731,3.416 -4.233,5 -0.161,0.161 -0.365,0.249 -0.578,0.256 -0.213,0.007 -0.412,-0.073 -0.553,-0.22 -0.829,-0.852 -1.731,-1.778 -2.633,-2.705 -0.721,-0.74 -1.442,-1.481 -2.127,-2.184 l -0.667,0.647 -0.699,0.614 c -0.234,0.202 -0.464,0.411 -0.701,0.61 l -0.73,0.576 c -1.948,1.531 -4.058,2.856 -6.287,3.95 l 1.003,2.043 c 2.155,-1.056 4.209,-2.313 6.125,-3.757 0.311,-0.246 0.773,-0.179 1.033,0.15 l 2.343,2.982 c 0.257,0.325 0.183,0.813 -0.167,1.097 -1.746,1.345 -3.643,2.538 -5.544,3.558 -1.907,0.987 -3.934,1.885 -5.974,2.658 -0.211,0.084 -0.436,0.067 -0.63,-0.018 -0.195,-0.086 -0.34,-0.245 -0.404,-0.438 -0.379,-1.127 -0.791,-2.353 -1.203,-3.578 -0.329,-0.98 -0.659,-1.959 -0.972,-2.889 -0.591,0.191 -1.176,0.397 -1.779,0.545 l -0.897,0.245 c -0.299,0.083 -0.604,0.136 -0.906,0.206 -2.418,0.538 -4.893,0.82 -7.371,0.84 l 0.017,2.275 c 2.398,-0.017 4.794,-0.265 7.144,-0.739 0.387,-0.085 0.776,0.177 0.868,0.586 l 0.824,3.701 c 0.091,0.404 -0.187,0.811 -0.626,0.913 -2.155,0.461 -4.383,0.728 -6.543,0.812 -2.151,0.071 -4.373,-0.012 -6.546,-0.204 -0.226,-0.024 -0.422,-0.129 -0.56,-0.291 -0.138,-0.162 -0.199,-0.367 -0.173,-0.569 0.151,-1.179 0.314,-2.462 0.477,-3.745 0.13,-1.025 0.26,-2.05 0.384,-3.024 l -0.923,-0.119 -0.916,-0.164 -0.458,-0.081 c -0.153,-0.026 -0.306,-0.053 -0.456,-0.09 l -0.907,-0.207 c -2.414,-0.569 -4.772,-1.383 -7.016,-2.44 l -0.969,2.059 c 2.17,1.021 4.437,1.837 6.761,2.431 0.384,0.098 0.623,0.492 0.528,0.903 l -0.87,3.691 c -0.093,0.401 -0.523,0.656 -0.961,0.553 -2.14,-0.515 -4.253,-1.263 -6.234,-2.117 -1.979,-0.839 -3.935,-1.901 -5.808,-3.014 -0.195,-0.117 -0.328,-0.294 -0.384,-0.498 -0.055,-0.203 -0.023,-0.414 0.089,-0.584 0.645,-0.999 1.347,-2.085 2.048,-3.171 0.561,-0.868 1.121,-1.737 1.653,-2.561 -0.267,-0.158 -0.516,-0.343 -0.772,-0.518 l -0.765,-0.53 c -0.5,-0.366 -0.985,-0.753 -1.479,-1.127 -1.927,-1.559 -3.687,-3.321 -5.245,-5.248 l -1.768,1.432 c 1.509,1.863 3.197,3.58 5.034,5.121 0.303,0.257 0.334,0.731 0.074,1.056 l -2.382,2.951 c -0.26,0.325 -0.746,0.355 -1.094,0.069 -0.212,-0.176 -0.424,-0.352 -0.637,-0.528 -0.213,-0.176 -0.425,-0.354 -0.625,-0.545 -0.404,-0.378 -0.809,-0.756 -1.212,-1.134 -0.77,-0.791 -1.544,-1.574 -2.235,-2.406 -0.718,-0.802 -1.372,-1.68 -2.047,-2.544 -0.319,-0.446 -0.639,-0.893 -0.958,-1.339 l -0.24,-0.334 -0.226,-0.344 c -0.15,-0.228 -0.3,-0.457 -0.45,-0.685 -0.126,-0.189 -0.17,-0.405 -0.132,-0.612 0.038,-0.207 0.159,-0.382 0.333,-0.487 1.016,-0.618 2.121,-1.289 3.226,-1.961 0.883,-0.537 1.766,-1.075 2.604,-1.585 -0.315,-0.534 -0.616,-1.077 -0.927,-1.615 l -0.841,-1.662 c -1.063,-2.245 -1.89,-4.597 -2.461,-7.008 l -2.213,0.526 c 0.556,2.333 1.338,4.611 2.326,6.797 0.16,0.363 -0.016,0.803 -0.394,0.984 l -3.427,1.623 c -0.373,0.179 -0.825,-0.005 -1.013,-0.412 -0.115,-0.25 -0.229,-0.501 -0.344,-0.751 -0.111,-0.252 -0.233,-0.5 -0.329,-0.759 -0.198,-0.516 -0.397,-1.032 -0.596,-1.547 -0.103,-0.256 -0.182,-0.52 -0.268,-0.781 -0.084,-0.262 -0.168,-0.523 -0.252,-0.784 -0.083,-0.261 -0.165,-0.521 -0.247,-0.781 -0.07,-0.263 -0.14,-0.525 -0.209,-0.786 -0.069,-0.26 -0.138,-0.521 -0.207,-0.783 -0.068,-0.262 -0.141,-0.524 -0.193,-0.791 -0.115,-0.533 -0.229,-1.069 -0.344,-1.605 -0.109,-0.538 -0.188,-1.083 -0.285,-1.623 -0.043,-0.271 -0.099,-0.54 -0.133,-0.812 -0.036,-0.271 -0.071,-0.542 -0.107,-0.813 -0.03,-0.225 0.025,-0.44 0.15,-0.61 0.124,-0.17 0.309,-0.276 0.512,-0.295 1.183,-0.117 2.47,-0.244 3.756,-0.372 1.029,-0.102 2.057,-0.204 3.034,-0.301 -0.045,-0.307 -0.049,-0.618 -0.074,-0.927 l -0.063,-0.927 c -0.022,-0.62 -0.025,-1.24 -0.038,-1.86 0.022,-2.478 0.305,-4.955 0.841,-7.376 l -2.222,-0.49 c -0.517,2.342 -0.81,4.733 -0.872,7.13 -0.013,0.396 -0.362,0.716 -0.781,0.715 l -3.792,-0.027 c -0.414,-0.002 -0.741,-0.364 -0.735,-0.814 0.006,-0.275 0.011,-0.551 0.016,-0.827 l 0.01,-0.415 0.029,-0.413 c 0.044,-0.551 0.087,-1.103 0.13,-1.653 0.072,-0.548 0.144,-1.093 0.216,-1.636 l 0.055,-0.407 c 0.022,-0.134 0.048,-0.268 0.072,-0.402 0.05,-0.267 0.099,-0.534 0.148,-0.799 0.403,-2.111 0.955,-4.266 1.649,-6.332 0.069,-0.217 0.205,-0.388 0.394,-0.486 0.191,-0.098 0.405,-0.112 0.597,-0.041 1.117,0.408 2.331,0.851 3.546,1.295 0.97,0.354 1.941,0.708 2.863,1.044 0.435,-1.162 0.909,-2.311 1.461,-3.422 1.091,-2.227 2.413,-4.34 3.939,-6.292 l -1.791,-1.403 c -1.479,1.887 -2.776,3.917 -3.87,6.051 -0.177,0.355 -0.626,0.495 -1.003,0.312 l -3.407,-1.665 c -0.373,-0.181 -0.516,-0.651 -0.321,-1.056 0.98,-1.97 2.156,-3.88 3.437,-5.619 1.282,-1.728 2.731,-3.416 4.234,-4.999 0.16,-0.162 0.365,-0.25 0.578,-0.256 0.212,-0.007 0.411,0.073 0.553,0.219 0.829,0.852 1.731,1.779 2.632,2.706 0.721,0.74 1.442,1.48 2.127,2.183 l 0.668,-0.647 0.698,-0.613 c 0.235,-0.203 0.464,-0.411 0.702,-0.61 l 0.729,-0.577 c 1.948,-1.531 4.059,-2.855 6.287,-3.95 l -1.003,-2.042 c -2.154,1.055 -4.209,2.313 -6.125,3.756 -0.31,0.246 -0.773,0.179 -1.033,-0.149 l -2.342,-2.983 c -0.257,-0.324 -0.184,-0.813 0.166,-1.097 1.746,-1.345 3.643,-2.537 5.544,-3.557 1.908,-0.987 3.935,-1.885 5.975,-2.658 0.211,-0.084 0.436,-0.068 0.63,0.017 0.195,0.087 0.34,0.245 0.404,0.438 0.379,1.127 0.79,2.353 1.202,3.579 0.33,0.979 0.66,1.959 0.973,2.889 0.59,-0.192 1.176,-0.397 1.778,-0.546 l 0.897,-0.245 c 0.299,-0.083 0.605,-0.136 0.907,-0.206 2.418,-0.538 4.892,-0.819 7.37,-0.84 l -0.017,-2.275 c -2.397,0.017 -4.793,0.266 -7.144,0.74 -0.387,0.085 -0.776,-0.178 -0.868,-0.586 l -0.823,-3.702 c -0.092,-0.404 0.187,-0.81 0.625,-0.913 2.155,-0.46 4.383,-0.728 6.543,-0.811 2.151,-0.071 4.374,0.011 6.547,0.203 0.226,0.025 0.422,0.13 0.559,0.291 0.138,0.162 0.2,0.367 0.173,0.569 -0.15,1.18 -0.314,2.462 -0.477,3.745 -0.13,1.025 -0.26,2.05 -0.384,3.024 l 0.923,0.12 0.916,0.163 0.458,0.081 c 0.153,0.026 0.306,0.053 0.457,0.091 l 0.907,0.207 c 2.413,0.568 4.771,1.382 7.015,2.439 l 0.97,-2.058 c -2.17,-1.022 -4.438,-1.837 -6.762,-2.431 -0.384,-0.098 -0.622,-0.493 -0.527,-0.903 l 0.87,-3.691 c 0.093,-0.401 0.523,-0.657 0.96,-0.553 2.141,0.515 4.253,1.262 6.234,2.116 1.98,0.839 3.935,1.901 5.809,3.015 0.195,0.117 0.328,0.294 0.383,0.497 0.056,0.204 0.023,0.414 -0.088,0.585 -0.646,0.998 -1.347,2.084 -2.049,3.17 -0.56,0.869 -1.121,1.737 -1.653,2.561 0.267,0.158 0.517,0.343 0.772,0.519 l 0.765,0.53 c 0.501,0.365 0.985,0.753 1.48,1.126 1.927,1.559 3.687,3.322 5.244,5.248 l 1.769,-1.431 c -1.51,-1.863 -3.198,-3.581 -5.035,-5.122 -0.302,-0.256 -0.334,-0.73 -0.073,-1.056 l 2.381,-2.951 c 0.26,-0.324 0.746,-0.354 1.094,-0.068 0.212,0.175 0.425,0.351 0.638,0.527 0.213,0.176 0.424,0.354 0.624,0.546 0.404,0.378 0.809,0.756 1.212,1.133 0.771,0.791 1.544,1.575 2.235,2.406 0.718,0.802 1.372,1.68 2.048,2.544 0.319,0.447 0.639,0.894 0.958,1.34 l 0.24,0.334 0.225,0.343 c 0.15,0.229 0.301,0.457 0.451,0.685 0.125,0.189 0.169,0.406 0.131,0.613 -0.038,0.207 -0.158,0.382 -0.333,0.487 -1.016,0.617 -2.121,1.289 -3.226,1.96 -0.882,0.538 -1.765,1.075 -2.603,1.585 0.314,0.535 0.615,1.078 0.926,1.615 l 0.842,1.662 c 1.062,2.245 1.89,4.597 2.46,7.009 l 2.214,-0.527 c -0.557,-2.333 -1.339,-4.611 -2.326,-6.797 -0.161,-0.362 0.015,-0.803 0.393,-0.983 l 3.427,-1.624 c 0.374,-0.178 0.825,0.005 1.014,0.413 0.114,0.25 0.229,0.5 0.343,0.75 0.112,0.253 0.234,0.501 0.329,0.76 0.199,0.516 0.398,1.031 0.596,1.546 0.103,0.256 0.183,0.52 0.268,0.782 0.084,0.262 0.169,0.523 0.252,0.783 0.083,0.261 0.165,0.522 0.248,0.781 0.07,0.263 0.139,0.525 0.209,0.786 0.068,0.26 0.137,0.521 0.206,0.783 0.069,0.262 0.142,0.524 0.194,0.792 0.114,0.533 0.229,1.068 0.344,1.605 0.108,0.538 0.188,1.082 0.284,1.622 0.044,0.271 0.1,0.54 0.134,0.812 0.035,0.271 0.071,0.543 0.106,0.813 0.03,0.226 -0.025,0.44 -0.149,0.61 -0.125,0.171 -0.309,0.276 -0.512,0.296 -1.184,0.117 -2.47,0.244 -3.757,0.371 -1.028,0.102 -2.057,0.205 -3.033,0.302 0.044,0.307 0.049,0.617 0.074,0.926 l 0.062,0.928 c 0.022,0.619 0.025,1.239 0.039,1.859 -0.023,2.478 -0.306,4.955 -0.841,7.376 l 2.222,0.49 c 0.516,-2.342 0.809,-4.733 0.872,-7.13"
             style="fill:#d4d4d5;fill-opacity:1;fill-rule:nonzero;stroke:none"
             id="path130" /></g><g
           id="g132"
           transform="translate(61.7396,79.6664)"><path
             d="m 0,0 c 0.216,-0.358 -0.256,-1.331 -0.368,-1.64 -0.046,-0.13 -0.096,-0.269 -0.059,-0.402 0.163,-0.591 1.962,-0.479 2.434,-0.532 1.084,-0.12 2.168,-0.373 3.101,-0.961 1.531,-0.966 1.274,-1.931 2.648,-2.375 1.877,-0.607 3.63,0.777 4.036,0.193 0.527,-0.755 -0.472,-1.704 -0.912,-2.234 -0.47,-0.567 -0.711,-0.744 -0.674,-1.039 0.063,-0.504 0.895,-0.672 1.275,-0.804 0.797,-0.275 1.412,-0.534 2.102,-1.019 1.54,-1.082 3.08,-2.164 4.621,-3.246 0.998,-0.702 1.194,-1.534 0.901,-2.703 -0.295,-1.176 -0.857,-2.424 -1.974,-2.896 -0.248,-0.105 -0.548,-0.198 -0.64,-0.451 -0.167,-0.457 0.443,-0.82 0.72,-1.079 0.397,-0.371 0.779,-0.757 1.15,-1.153 0.723,-0.772 1.399,-1.587 2.042,-2.427 0.252,-0.328 0.451,-0.801 0.016,-1.082 -0.191,-0.123 -0.425,-0.155 -0.651,-0.183 -0.138,-0.017 -0.746,-0.051 -0.718,-0.281 0.009,-0.082 0.112,-0.112 0.194,-0.123 0.947,-0.125 1.902,-0.187 2.84,-0.371 0.626,-0.123 2.015,-0.286 1.499,-1.257 -0.172,-0.323 -0.485,-0.541 -0.725,-0.816 -0.537,-0.618 -0.66,-1.463 -0.691,-2.253 -0.034,-0.824 -0.234,-1.626 -0.497,-2.412 -0.561,-1.673 -1.476,-3.199 -2.463,-4.652 -1.585,-2.334 -3.344,-4.55 -5.256,-6.625 -1.098,-1.19 -2.384,-2.133 -3.545,-3.253 -2.945,-2.849 -2.465,-3.496 -4.419,-4.906 -1.934,-1.396 -3.968,-1.894 -6.251,-2.449 -2.036,-0.495 -4.062,-1.069 -6.148,-1.316 -2.158,-0.257 -4.209,0.067 -6.327,0.491 -2.822,0.565 -5.591,1.706 -7.379,4.061 -0.894,1.175 -1.377,2.596 -1.707,4.019 -0.132,0.569 -0.125,1.359 -0.407,1.865 -0.295,0.528 -1.012,0.736 -1.534,0.943 -4.985,1.971 -7.041,9.193 -3.843,13.509 0.672,0.908 1.603,1.389 2.522,1.998 0.084,0.056 0.176,0.125 0.186,0.224 0.054,0.492 -0.863,1.054 -1.142,1.402 -0.47,0.586 -0.795,1.281 -1.015,1.995 -0.313,1.011 -0.45,2.065 -0.525,3.118 -0.031,0.43 -0.048,0.86 -0.095,1.289 -0.03,0.274 -0.152,0.82 0.097,1.036 0.11,0.095 0.262,0.041 0.387,0.019 0.075,-0.013 0.161,-0.013 0.22,0.036 0.092,0.075 0.077,0.218 0.048,0.333 -0.144,0.575 -0.364,1.121 -0.445,1.712 -0.083,0.614 -0.026,1.242 0.11,1.844 0.245,1.087 0.689,2.161 1.228,3.133 0.406,0.732 0.865,0.063 1.293,-0.312 0.68,-0.596 0.287,1.281 0.256,1.492 -0.138,0.951 -0.199,1.942 0.102,2.87 0.417,1.279 1.45,2.245 2.444,3.151 1.06,0.967 2.121,1.935 3.181,2.902 0.796,0.725 1.597,1.455 2.514,2.018 1.568,0.963 3.388,1.063 5.181,1.135 3.207,0.129 6.442,0.021 9.633,0.423 0.292,0.036 1.105,0.296 1.357,0.119 C -0.042,0.057 -0.019,0.031 0,0"
             style="fill:#0c0c3f;fill-opacity:1;fill-rule:nonzero;stroke:none"
             id="path134" /></g><g
           id="g136"
           transform="translate(64.9552,40.9532)"><path
             d="m 0,0 c -3.485,0.29 -6.469,1.618 -6.418,1.823 0.037,0.144 1.471,-0.064 1.623,-0.074 0.811,-0.052 1.623,-0.089 2.435,-0.081 0.469,0.007 0.949,0.031 1.381,0.213 0.069,0.028 0.141,0.066 0.18,0.13 0.085,0.136 -0.015,0.31 -0.124,0.424 -0.439,0.464 -1.079,0.679 -1.571,1.084 -0.036,0.03 -0.073,0.062 -0.085,0.106 -0.016,0.068 0.033,0.138 0.097,0.169 0.062,0.03 0.134,0.028 0.205,0.025 C -1.158,3.772 -0.079,3.384 0.929,2.896 2.061,2.348 3.133,1.547 4.345,1.2 5.699,0.811 6.514,0.932 6.521,0.78 6.536,0.482 3.395,-0.282 0,0 m 15.966,3.543 c 0,0 -7.19,-0.1 -9.349,0.353 C 2.395,4.78 1.878,4.928 1.878,4.928 1.751,4.963 1.546,5.026 1.419,5.063 c 0,0 -1.675,0.514 -2.644,0.716 -1.038,0.214 -2.107,0.177 -3.159,0.14 C -5.383,5.882 -6.389,5.846 -7.372,5.653 -8.297,5.472 -9.168,4.953 -9.979,4.488 -10.864,3.979 -12.367,2.98 -12.367,2.98 c -0.11,-0.075 -0.115,-0.199 -0.01,-0.28 0,0 1.995,-1.546 3.463,-2.306 3.615,-1.874 9.391,-2.219 9.391,-2.219 0.13,-0.007 0.241,-0.014 0.244,-0.014 0.004,0 0.115,0.002 0.246,0.005 l 0.56,0.019 c 0.132,0.005 0.241,0.01 0.241,0.01 0.002,0 0.103,0.007 0.224,0.015 0.123,0.007 0.42,0.027 0.416,0.024 -10e-4,0 -0.006,-0.006 -0.015,-0.012 -0.03,-0.024 -0.106,-0.083 -0.189,-0.147 0,0 -1.917,-1.491 -3.402,-1.97 -0.421,-0.135 -0.841,-0.236 -1.257,-0.307 -2.256,-0.382 -4.409,0.125 -6.194,0.885 -0.243,0.103 -0.479,0.211 -0.707,0.322 -0.227,0.11 -0.446,0.224 -0.658,0.339 -0.002,0 -0.002,0.002 -0.002,0.002 -0.637,0.347 -1.202,0.706 -1.671,1.028 -0.158,0.109 -0.306,0.215 -0.443,0.316 -0.13,0.097 -0.249,0.188 -0.359,0.27 -0.007,0.007 -0.013,0.012 -0.02,0.017 -0.079,0.062 -0.153,0.121 -0.221,0.175 -0.244,0.194 -0.377,0.314 -0.377,0.314 -0.096,0.086 -0.258,0.094 -0.363,0.015 -0.365,-0.285 -0.731,-0.57 -1.098,-0.856 -0.105,-0.081 -0.144,-0.245 -0.088,-0.363 0,0 0.008,-0.017 0.022,-0.047 0.015,-0.032 0.032,-0.066 0.052,-0.101 0.005,-0.01 0.01,-0.02 0.017,-0.032 0.018,-0.037 0.039,-0.076 0.06,-0.115 0.011,-0.023 0.024,-0.045 0.039,-0.069 0.041,-0.071 0.086,-0.148 0.135,-0.229 0.034,-0.054 0.069,-0.111 0.106,-0.168 0.037,-0.056 0.076,-0.115 0.117,-0.173 0.16,-0.227 0.333,-0.441 0.517,-0.64 1.942,-2.128 4.995,-2.693 7.099,-3.054 4.008,-0.689 4.717,0.29 6.691,-0.9 0.996,-0.598 1.759,-1.416 3.197,-1.522 0.45,-0.034 1.269,-0.02 2.596,0.598 1.127,0.525 2.073,1.231 2.848,1.969 0.064,0.061 0.128,0.123 0.189,0.185 0.944,0.963 1.874,2.341 1.874,2.341 0.072,0.11 0.035,0.156 -0.086,0.103 0,0 -2.559,-1.117 -4.775,-1.326 -1.83,-0.174 -4.183,0.234 -4.183,0.234 -0.13,0.022 -0.13,0.054 0.002,0.073 0,0 8.093,1.07 12.123,5.203 0.315,0.321 0.62,0.663 0.912,1.026 0.505,0.627 1.183,1.724 1.183,1.724 0.069,0.113 0.018,0.202 -0.113,0.201"
             style="fill:#d6d5d6;fill-opacity:1;fill-rule:nonzero;stroke:none"
             id="path138" /></g><g
           id="g140"
           transform="translate(52.6519,24.4682)"><path
             d="m 0,0 c -0.078,-0.256 -1.766,0.049 -2.043,0.099 -2.213,0.398 -5.885,1.049 -8.051,4.008 -0.032,0.044 -0.062,0.086 -0.093,0.13 -1.097,1.561 -1.516,3.31 -1.2,3.523 0.221,0.145 0.629,-0.425 0.762,-0.54 0.31,-0.271 0.706,-0.433 1.099,-0.548 0.539,-0.158 1.107,-0.246 1.611,-0.493 0.442,-0.218 0.814,-0.546 1.184,-0.872 0.871,-0.772 1.746,-1.542 2.617,-2.314 0.108,-0.094 0.214,-0.19 0.322,-0.285 0.423,-0.374 0.87,-0.694 1.323,-1.031 0.153,-0.113 1.127,-0.754 1.127,-0.754 0.109,-0.072 0.294,-0.182 0.409,-0.245 0,0 0.979,-0.53 0.933,-0.678"
             style="fill:#d6d5d6;fill-opacity:1;fill-rule:nonzero;stroke:none"
             id="path142" /></g><g
           id="g144"
           transform="translate(67.9284,29.0777)"><path
             d="m 0,0 c -0.015,-0.524 -1.63,-1.594 -1.724,-1.657 -2.957,-1.941 -7.548,-2.373 -11.867,-0.905 -0.716,0.243 -1.396,0.529 -2.004,0.826 -1.748,0.849 -2.928,1.792 -2.81,2.102 0.169,0.438 2.805,-0.696 6.818,-0.275 1.072,0.113 1.997,0.209 3.206,0.581 1.28,0.397 1.695,0.735 2.935,0.966 C -4.074,1.894 -2.7,1.829 -2.65,1.564 -2.596,1.288 -3.996,0.912 -3.936,0.627 -3.905,0.486 -3.516,0.423 -1.551,0.322 -0.383,0.261 -0.088,0.26 -0.015,0.091 -0.004,0.062 0.002,0.032 0,0"
             style="fill:#d6d5d6;fill-opacity:1;fill-rule:nonzero;stroke:none"
             id="path146" /></g><g
           id="g148"
           transform="translate(58.5693,32.8076)"><path
             d="m 0,0 c -0.01,-0.268 -2.744,-0.72 -6.123,-0.337 -1.574,0.179 -10.234,1.159 -11.5,5.88 -0.107,0.403 -0.161,0.831 -0.165,1.269 -0.006,1.125 0.326,2.301 0.953,3.208 0.839,1.21 2.174,1.892 3.795,2.72 0.743,0.381 1.619,0.73 1.619,0.73 0.122,0.049 0.309,0.026 0.416,-0.05 0,0 0.758,-0.54 1.26,-0.879 0.737,-0.495 1.958,-1.254 1.958,-1.254 0.111,-0.07 0.219,-0.124 0.239,-0.121 0.02,0.003 -0.065,-0.037 -0.191,-0.075 0,0 -1.197,-0.365 -2.449,-0.997 -1.804,-0.912 -2.737,-2.115 -2.921,-1.948 -0.074,0.067 0.059,0.277 0.524,1.442 0.128,0.319 0.215,0.546 0.215,0.546 0.047,0.122 -0.019,0.194 -0.145,0.16 0,0 -1.26,-0.345 -1.942,-1.436 -1.098,-1.754 0.108,-3.78 0.224,-3.97 1.082,-1.753 3.078,-1.994 3.078,-1.994 0.13,-0.016 0.239,0.079 0.241,0.21 0,0 0.016,0.936 0.016,0.941 0,0.003 0.013,0.772 0.013,0.772 0.002,0.132 0.08,0.164 0.174,0.071 0,0 2.011,-1.992 3.875,-2.958 C -6,1.497 -5.174,1.176 -4.401,0.935 -1.923,0.169 0.008,0.226 0,0"
             style="fill:#d6d5d6;fill-opacity:1;fill-rule:nonzero;stroke:none"
             id="path150" /></g><g
           id="g152"
           transform="translate(39.0036,40.4508)"><path
             d="m 0,0 c -0.182,-3.007 1.572,-5.567 1.572,-5.567 0.075,-0.108 0.031,-0.17 -0.096,-0.136 0,0 -2.152,0.566 -3.734,2.059 -0.053,0.049 -0.103,0.1 -0.155,0.152 -1.509,1.522 -2.038,3.231 -2.235,4.144 -0.004,0.019 -0.009,0.037 -0.012,0.058 -0.115,0.635 -0.17,2.489 -0.17,2.489 -0.004,0.131 -0.007,0.239 -0.007,0.239 0,0.002 0.018,0.108 0.042,0.236 0,0 0.199,1.084 0.521,1.792 0.993,2.177 3.18,3.333 3.18,3.333 0.116,0.061 0.277,0.026 0.356,-0.079 0,0 0.064,-0.082 0.16,-0.301 0.091,-0.209 0.108,-0.304 0.108,-0.304 0.023,-0.128 -0.052,-0.286 -0.167,-0.35 0,0 -0.504,-0.28 -0.93,-0.68 C -2.609,6.111 -2.933,4.945 -3.113,4.286 -3.438,3.093 -3.295,1.687 -3.295,1.687 c 0.014,-0.131 0.057,-0.135 0.098,-0.01 0,0 0.667,2.061 1.882,3.415 0.609,0.677 1.566,1.36 1.566,1.36 0.106,0.076 0.277,0.069 0.378,-0.015 0,0 0.416,-0.348 0.734,-0.718 C 1.605,5.439 1.812,5.122 1.812,5.122 1.884,5.012 1.879,4.837 1.802,4.731 1.802,4.731 0.401,2.825 0.084,0.777 0.042,0.512 0.015,0.253 0,0"
             style="fill:#d6d5d6;fill-opacity:1;fill-rule:nonzero;stroke:none"
             id="path154" /></g><g
           id="g156"
           transform="translate(75.5665,47.8699)"><path
             d="m 0,0 c -3.401,-0.334 -5.963,0.629 -6.691,0.924 -1.886,0.763 -3.231,1.795 -4.05,2.529 -0.014,0.014 -0.023,0.029 -0.029,0.046 -0.005,0.015 -0.005,0.027 -0.005,0.029 -0.006,0.345 -0.013,0.691 -0.02,1.038 -0.002,0.076 0.076,0.126 0.145,0.094 0.416,-0.2 0.866,-0.399 1.35,-0.59 0.666,-0.263 1.657,-0.566 1.657,-0.566 0.125,-0.039 0.14,-0.007 0.035,0.071 0,0 -0.856,0.623 -1.411,1.104 -0.038,0.032 -0.079,0.067 -0.119,0.103 -0.619,0.544 -1.2,1.131 -1.75,1.744 -0.096,0.108 -0.121,0.146 -0.121,0.146 -0.069,0.112 -0.126,0.203 -0.128,0.204 0,0.002 -0.009,0.112 -0.015,0.243 0,0 -0.046,0.819 -0.025,1.261 0.003,0.044 0.004,0.091 0.028,0.128 0.071,0.115 0.504,0.121 0.629,0.137 0.274,0.036 0.549,0.055 0.826,0.057 C -8.88,8.705 -8.193,8.555 -7.372,8.29 -5.338,7.633 -3.411,6.575 -3.495,6.367 -3.533,6.276 -3.923,6.435 -4.77,6.442 -5.366,6.448 -5.975,6.346 -5.975,6.346 -6.105,6.324 -6.125,6.241 -6.019,6.163 c 0,0 1.573,-1.162 2.985,-1.793 C -2.649,4.198 -1.845,3.848 -0.762,3.571 1.807,2.916 5.333,3.027 5.333,3.027 5.447,3.032 5.545,3.034 5.57,3.036 h 0.007 c 0.045,10e-4 0.089,10e-4 0.131,10e-4 h 0.108 c 0,0 1.098,0.01 1.212,-0.182 C 7.032,2.85 7.033,2.843 7.035,2.838 7.185,2.28 3.873,0.381 0,0"
             style="fill:#d6d5d6;fill-opacity:1;fill-rule:nonzero;stroke:none"
             id="path158" /></g><g
           id="g160"
           transform="translate(64.2221,58.5978)"><path
             d="m 0,0 c 0.063,-0.115 0.222,-0.21 0.354,-0.211 0,0 3.207,-0.018 5.604,-0.804 2.81,-0.922 5.638,-3.202 5.638,-3.202 0.102,-0.082 0.292,-0.137 0.423,-0.122 0,0 1.238,0.142 2.028,0.272 0.716,0.117 1.808,0.344 1.808,0.344 0.128,0.027 0.166,0.132 0.082,0.234 0,0 -0.801,0.98 -1.571,1.725 C 13.17,-0.606 12.054,0.473 10.377,1.139 8.746,1.787 7.284,1.765 5.433,1.738 4.765,1.728 3.883,1.663 2.119,1.532 1.062,1.454 -0.172,1.347 -0.172,1.347 -0.303,1.335 -0.393,1.22 -0.372,1.09 c 0,0 0.039,-0.252 0.14,-0.55 C -0.128,0.233 0,0 0,0"
             style="fill:#d6d5d6;fill-opacity:1;fill-rule:nonzero;stroke:none"
             id="path162" /></g><g
           id="g164"
           transform="translate(79.5728,63.1885)"><path
             d="m 0,0 c -0.104,-0.403 -0.308,-0.811 -0.43,-1.01 -0.543,-0.886 -1.372,-1.157 -2.378,-1.125 -1.916,0.064 -3.767,0.665 -5.641,1.068 -2.009,0.433 -4.389,0.706 -6.216,-0.441 -0.345,-0.218 -1.031,-0.86 -1.479,-0.632 -0.161,0.08 -0.285,0.279 -0.327,0.345 -0.059,0.093 -0.235,0.371 -0.187,0.637 0.053,0.305 0.369,0.405 0.891,0.77 0.204,0.144 0.474,0.351 0.769,0.639 0.03,0.03 0.008,0.083 -0.036,0.079 -1.781,-0.129 -6.055,-0.328 -10.271,0.631 -1.432,0.327 -2.836,0.78 -4.184,1.367 -0.939,0.409 -1.844,0.871 -2.729,1.39 -0.158,0.094 -0.324,0.195 -0.416,0.356 -0.098,0.168 -0.098,0.375 -0.09,0.573 0.046,1.289 0.25,2.563 0.614,3.783 0.524,1.757 1.378,3.407 2.567,4.841 0.032,0.04 -0.015,0.094 -0.059,0.071 -1.162,-0.644 -2.781,-1.745 -4.242,-3.541 -0.071,-0.088 -0.142,-0.177 -0.211,-0.268 -0.325,-0.418 -0.625,-0.857 -0.902,-1.308 -0.148,-0.246 -0.291,-0.496 -0.425,-0.749 -0.062,-0.118 -0.123,-0.236 -0.182,-0.355 -0.028,-0.058 -0.123,-0.309 -0.175,-0.187 -0.003,0.008 -0.007,0.02 -0.01,0.033 -0.18,0.725 -0.246,1.477 -0.204,2.22 0.025,0.43 0.083,0.858 0.175,1.278 0.1,0.445 0.243,0.886 0.44,1.299 0.14,0.292 0.305,0.568 0.504,0.824 0.516,0.666 1.234,1.102 2.018,1.387 1.827,0.663 3.706,0.794 5.634,0.851 2.038,0.059 4.074,-0.008 6.111,0.049 0.049,0.002 0.066,-0.064 0.022,-0.086 -1.047,-0.551 -1.932,-1.041 -2.621,-1.431 -1.367,-0.773 -2.425,-1.407 -3.708,-2.384 -0.524,-0.4 -0.965,-0.769 -1.309,-1.069 -0.042,-0.035 0.003,-0.101 0.052,-0.076 1.674,0.87 5.808,2.822 9.991,2.946 3.027,0.09 4.566,-0.824 4.952,-1.067 0.711,-0.448 1.218,-0.952 1.552,-1.336 0.003,-0.002 0.005,-0.005 0.007,-0.009 0,-10e-4 0.002,-0.005 0.002,-0.008 0.008,-0.024 -0.007,-0.054 -0.036,-0.059 -0.553,-0.116 -1.114,-0.229 -1.684,-0.34 -0.625,-0.12 -1.244,-0.235 -1.854,-0.341 -0.01,-0.002 -0.018,-0.007 -0.025,-0.013 -0.027,-0.024 -0.015,-0.076 0.032,-0.078 2.331,-0.044 6.742,-0.428 6.742,-0.428 0.13,-0.01 0.337,-0.007 0.458,0.01 L -8.415,9.042 C -8.166,8.845 -9.12,8.152 -9.266,8.049 -9.683,7.758 -10.151,7.537 -10.642,7.401 -11.503,7.163 -12.415,7.252 -13.294,7.104 -13.316,7.101 -13.34,7.096 -13.362,7.092 c -0.993,-0.173 -1.591,-0.416 -2.204,-0.613 -2.741,-0.88 -5.727,-0.875 -6.567,-0.873 -0.052,0 -0.104,0 -0.155,0.001 -0.052,0 -0.106,0 -0.16,0.002 -0.113,0.002 -0.224,0.005 -0.335,0.008 -0.086,0.002 -0.175,0.005 -0.266,0.011 -0.056,10e-4 -0.11,0.005 -0.166,0.008 -0.087,0.003 -0.175,0.008 -0.261,0.015 -0.012,0 -0.023,0.002 -0.035,0.002 -0.076,0.005 -0.15,0.01 -0.224,0.017 -0.102,0.006 -0.201,0.015 -0.299,0.023 -0.15,0.015 -0.298,0.031 -0.445,0.046 -0.337,0.037 -0.662,0.082 -0.979,0.131 -0.136,0.022 -0.275,0.044 -0.415,0.069 -0.168,0.031 -0.333,0.061 -0.495,0.093 -0.147,0.03 -0.29,0.061 -0.431,0.091 -0.144,0.032 -0.282,0.064 -0.418,0.096 -0.07,0.015 -0.137,0.032 -0.204,0.049 -0.204,0.051 -0.403,0.104 -0.597,0.157 -0.12,0.032 -0.239,0.067 -0.361,0.103 -0.121,0.035 -0.239,0.07 -0.355,0.107 -0.172,0.053 -0.341,0.107 -0.501,0.161 -0.017,0.005 -0.035,0.011 -0.052,0.016 -0.01,0.002 -0.02,0.005 -0.032,0.01 -0.049,0.021 -0.102,0.034 -0.151,0.053 -0.028,0.011 -0.056,0.022 -0.084,0.034 -0.014,0.006 -0.028,0.013 -0.041,0.019 -0.011,0.005 -0.024,0.016 -0.036,0.011 -0.005,-0.001 0.02,-0.028 0.021,-0.029 0.012,-0.013 0.024,-0.026 0.036,-0.039 l 0.071,-0.078 c 0.068,-0.073 0.135,-0.147 0.205,-0.218 0.013,-0.012 0.025,-0.025 0.037,-0.037 0.074,-0.073 0.346,-0.34 0.779,-0.661 0.612,-0.453 1.238,-0.788 1.605,-0.971 0,0 1.145,-0.665 2.302,-0.93 2.129,-0.488 3.828,0.165 7.161,-0.443 0.924,-0.169 2.218,-0.464 3.752,-1.02 0.126,-0.046 0.219,0.12 0.116,0.204 -0.385,0.313 -0.777,0.627 -1.171,0.94 -0.312,0.248 -0.347,0.307 -0.65,0.516 -0.252,0.174 -0.479,0.305 -0.664,0.401 -0.07,0.036 -0.061,0.135 0.009,0.164 5.021,1.956 7.487,1.431 8.763,0.743 C -6.792,5.23 -4.901,4.102 -2.97,2.953 -2.333,2.572 -1.798,2.253 -1.424,2.029 -1.39,2.009 -1.396,1.958 -1.433,1.947 -1.839,1.803 -2.408,1.643 -3.101,1.567 -4.273,1.439 -4.923,1.652 -4.955,1.529 -5.007,1.33 -3.391,0.287 -1.697,0.575 c 0.9,0.151 1.333,0.596 1.574,0.392 C 0.111,0.769 0.101,0.386 0,0"
             style="fill:#d6d5d6;fill-opacity:1;fill-rule:nonzero;stroke:none"
             id="path166" /></g><g
           id="g168"
           transform="translate(40.0608,63.8007)"><path
             d="M 0,0 C 0.089,-0.096 0.201,-0.075 0.248,0.048 L 0.538,0.8 c 0.048,0.123 0.023,0.31 -0.054,0.417 0,0 -0.629,0.87 -0.733,1.954 -0.065,0.673 0.103,1.341 0.103,1.341 0.033,0.127 0.13,0.151 0.217,0.053 L 1.24,3.249 c 0.087,-0.098 0.211,-0.085 0.276,0.03 0,0 0.19,0.337 0.354,0.616 0.151,0.256 0.328,0.545 0.328,0.545 0.068,0.112 0.074,0.299 0.012,0.415 0,0 -0.467,0.876 -0.712,1.612 -0.318,0.958 -0.45,2.234 -0.45,2.234 -0.013,0.13 -0.106,0.168 -0.206,0.082 0,0 -1.241,-1.057 -1.841,-2.466 C -1.224,5.786 -1.723,4.571 -1.473,2.996 -1.203,1.298 0,0 0,0"
             style="fill:#8b9195;fill-opacity:1;fill-rule:nonzero;stroke:none"
             id="path170" /></g><g
           id="g172"
           transform="translate(36.7427,64.058)"><path
             d="m 0,0 c -0.118,0.057 -0.255,0.005 -0.305,-0.117 0,0 -0.38,-0.932 -0.472,-1.826 -0.079,-0.771 -0.215,-2.102 0.6,-3.333 0.849,-1.285 2.403,-1.71 2.403,-1.71 0.127,-0.035 0.235,0.044 0.24,0.175 l 0.032,0.809 c 0.005,0.131 -0.079,0.301 -0.186,0.377 0,0 -0.8,0.573 -1.228,1.51 -0.328,0.716 -0.345,1.484 -0.345,1.484 -0.003,0.131 0.092,0.192 0.21,0.134 0,0 0.356,-0.173 0.657,-0.34 0.408,-0.227 0.91,-0.555 0.91,-0.555 0.11,-0.072 0.245,-0.033 0.301,0.086 0,0 0.16,0.341 0.239,0.751 0.056,0.287 0.059,0.51 0.059,0.51 0.002,0.132 -0.086,0.299 -0.196,0.371 0,0 -0.935,0.62 -1.598,0.992 C 0.788,-0.383 0,0 0,0"
             style="fill:#8b9195;fill-opacity:1;fill-rule:nonzero;stroke:none"
             id="path174" /></g><g
           id="g176"
           transform="translate(35.9423,56.1407)"><path
             d="m 0,0 c -0.121,0.052 -0.212,-0.013 -0.202,-0.144 0,0 0.122,-1.61 0.282,-2.047 0.409,-1.115 1.11,-1.819 1.629,-2.34 0.457,-0.46 0.995,-0.856 0.995,-0.856 0.106,-0.078 0.226,-0.04 0.268,0.085 0,0 0.02,0.059 0.061,0.221 0.058,0.233 0.084,0.407 0.084,0.407 0.019,0.13 -0.017,0.331 -0.079,0.447 0,0 -0.285,0.53 -0.424,1.075 -0.082,0.325 -0.113,0.636 -0.113,0.636 -0.013,0.131 0.075,0.207 0.196,0.169 l 0.126,-0.059 0.118,-0.055 c 0.1,-0.062 0.206,-0.009 0.235,0.119 0,0 0.024,0.107 0.041,0.32 0.018,0.233 0.008,0.367 0.008,0.367 -0.01,0.131 -0.116,0.283 -0.235,0.337 0,0 -1.244,0.561 -1.992,0.888 C 0.59,-0.252 0,0 0,0"
             style="fill:#8b9195;fill-opacity:1;fill-rule:nonzero;stroke:none"
             id="path178" /></g><g
           id="g180"
           transform="translate(61.9587,56.8345)"><path
             d="m 0,0 c -0.253,-0.426 -1.227,0.113 -2.572,-0.15 -1.175,-0.231 -1.038,-0.762 -2.348,-1.124 -1.758,-0.487 -3.175,0.148 -3.45,0.549 -0.096,0.14 -0.16,0.294 -0.16,0.294 -0.077,0.185 -0.091,0.313 -0.133,0.766 -0.022,0.253 -0.069,0.501 -0.11,0.75 C -8.806,1.301 -8.816,1.513 -8.976,1.679 -9.003,1.707 -9.035,1.734 -9.074,1.746 -9.147,1.768 -9.228,1.728 -9.277,1.669 -9.278,1.665 -9.281,1.663 -9.281,1.66 V 1.658 C -9.379,1.532 -9.376,1.36 -9.391,1.21 V 1.205 1.203 C -9.406,1.031 -9.423,0.861 -9.452,0.691 -9.506,0.359 -9.605,0.024 -9.829,-0.234 c -0.181,-0.209 -0.46,-0.351 -0.733,-0.236 -0.161,0.067 -0.285,0.2 -0.369,0.35 -0.056,0.103 -0.095,0.208 -0.124,0.314 -0.107,0.409 -0.045,0.853 -0.099,1.274 -0.01,0.076 -0.024,0.155 -0.062,0.222 -0.115,0.199 -0.309,0.123 -0.4,-0.047 -0.195,-0.374 -0.246,-0.799 -0.352,-1.201 0,0 -0.12,-0.42 -0.337,-0.774 -0.101,-0.167 -0.218,-0.288 -0.233,-0.305 0,0 -0.065,-0.069 -0.14,-0.132 -0.092,-0.077 -1.385,-1.038 -2.922,-0.748 -1.185,0.223 -1.03,0.912 -2.302,1.254 -1.28,0.344 -2.217,-0.14 -2.417,0.263 -0.11,0.221 0.125,0.563 0.593,1.247 0.312,0.455 0.615,0.9 1.155,1.343 0.116,0.097 0.251,0.198 0.881,0.545 0.206,0.113 0.464,0.253 0.792,0.428 0.113,0.061 0.219,0.116 0.317,0.168 0.812,0.432 1.091,0.574 1.064,0.675 -0.041,0.141 -0.649,0.124 -1.394,0.104 -0.211,-0.005 -0.388,-0.015 -0.388,-0.015 -0.485,-0.025 -0.521,-0.052 -0.726,-0.049 -0.299,0.003 -0.616,0.009 -0.818,0.207 -0.16,0.16 -0.185,0.383 -0.194,0.545 -0.055,1.023 0.402,2.198 0.612,2.678 0.049,0.113 0.086,0.189 0.098,0.214 0.155,0.317 0.383,0.752 0.699,1.247 2.544,-2.083 4.913,-3.29 6.592,-3.994 1.065,-0.449 2.08,-0.789 3.002,-1.059 0.812,-0.237 1.547,-0.418 2.181,-0.564 h 10e-4 C -5.618,3.666 -5.397,3.615 -5.193,3.57 -4.386,3.388 -3.637,3.244 -2.97,3.131 -2.381,3.032 -1.852,2.956 -1.399,2.896 -1.092,2.493 -0.693,1.91 -0.325,1.148 0.116,0.238 0.037,0.062 0,0"
             style="fill:#8b9195;fill-opacity:1;fill-rule:nonzero;stroke:none"
             id="path182" /></g><g
           id="g184"
           transform="translate(61.9906,52.2098)"><path
             d="m 0,0 c -0.005,-0.391 -0.083,-0.925 -0.406,-1.424 -0.684,-1.054 -2.186,-1.524 -3.754,-1.143 0.177,-0.152 0.376,-0.31 0.6,-0.468 0.267,-0.187 0.523,-0.343 0.759,-0.471 -0.31,-0.05 -0.689,-0.086 -1.121,-0.067 -0.28,0.01 -0.88,0.04 -1.586,0.303 -1.296,0.486 -2.484,1.566 -2.83,2.94 -0.018,0.079 -0.055,0.258 -0.163,0.264 -0.071,0.005 -0.111,-0.049 -0.135,-0.116 v -0.002 c -0.025,-0.069 -0.032,-0.15 -0.032,-0.197 -0.01,-0.691 -0.019,-1.384 -0.027,-2.075 -0.008,-0.674 -0.072,-1.373 -0.008,-2.042 0.005,-0.056 0.038,-0.11 0.091,-0.123 0.197,-0.054 0.379,0.448 0.443,0.571 0.15,0.285 0.32,0.647 0.74,0.455 0.111,-0.051 0.205,-0.133 0.281,-0.229 0.117,-0.145 0.255,-0.315 0.261,-0.513 0.006,-0.144 -0.052,-0.269 -0.126,-0.382 -0.332,-0.502 -0.807,-0.86 -1.146,-1.069 0,0 -0.002,0 -0.003,-10e-4 -0.24,-0.149 -0.41,-0.223 -0.41,-0.223 -0.885,-0.389 -1.663,-0.382 -1.845,-0.377 0,0 -1.182,0.028 -2.503,0.896 0,0 -0.415,0.273 -0.738,0.774 -0.063,0.098 -0.132,0.222 -0.127,0.382 0.007,0.167 0.091,0.284 0.187,0.417 0.093,0.13 0.209,0.29 0.42,0.35 0.057,0.017 0.145,0.042 0.244,0.017 0.16,-0.039 0.233,-0.177 0.432,-0.497 0.322,-0.516 0.401,-0.581 0.453,-0.568 0.059,0.013 0.079,0.126 0.086,0.167 0.091,0.548 0,1.598 -0.012,1.995 -0.023,0.723 0.14,1.431 -0.027,2.075 -0.023,0.091 -0.082,0.314 -0.167,0.315 -0.082,0.002 -0.148,-0.212 -0.165,-0.264 -0.16,-0.491 -1.215,-2.296 -2.83,-2.94 -0.546,-0.217 -1.05,-0.259 -1.585,-0.303 -0.45,-0.039 -1.098,-0.052 -1.12,0.067 -0.015,0.08 0.255,0.155 0.759,0.471 0.408,0.257 0.615,0.381 0.598,0.468 -0.045,0.231 -1.427,-0.239 -2.584,0.312 -0.627,0.298 -1.087,0.849 -1.355,1.353 -0.266,0.499 -0.345,0.949 -0.217,1.069 0.241,0.224 1.084,-0.816 2.734,-1.198 0.542,-0.127 1.048,-0.132 1.498,-0.083 0.543,0.059 1.003,0.197 1.353,0.303 2.968,0.895 3.199,3.115 4.851,3.051 0.142,-0.005 0.27,-0.027 0.386,-0.062 0.457,-0.135 0.758,-0.477 1.129,-0.9 0.42,-0.477 0.925,-1.054 1.846,-1.548 0.202,-0.108 0.424,-0.212 0.67,-0.311 0.546,-0.22 1.836,-0.717 3.466,-0.45 0.089,0.015 0.175,0.03 0.261,0.048 h 0.003 c 1.067,0.225 1.859,0.703 2.338,1.052 C -0.078,0.11 0.002,0.069 0,0"
             style="fill:#8b9195;fill-opacity:1;fill-rule:nonzero;stroke:none"
             id="path186" /></g><g
           id="g188"
           transform="translate(42.532,53.2596)"><path
             d="m 0,0 c 0.078,0.123 0.3,0.154 0.422,0.193 0.213,0.07 0.427,0.14 0.64,0.209 C 1.494,0.543 1.682,0.326 1.937,0.01 2.266,-0.398 2.759,-0.666 3.278,-0.736 3.338,-0.744 3.401,-0.75 3.452,-0.784 3.745,-0.981 2.815,-1.213 2.695,-1.229 2.196,-1.294 1.682,-1.23 1.21,-1.054 0.799,-0.901 0.334,-0.654 0.061,-0.301 0.003,-0.226 -0.048,-0.129 -0.018,-0.039 -0.014,-0.025 -0.008,-0.012 0,0"
             style="fill:#8b9195;fill-opacity:1;fill-rule:nonzero;stroke:none"
             id="path190" /></g><g
           id="g192"
           transform="translate(60.906,53.2596)"><path
             d="m 0,0 c -0.078,0.123 -0.3,0.154 -0.422,0.193 -0.213,0.07 -0.427,0.14 -0.64,0.209 -0.432,0.141 -0.62,-0.076 -0.875,-0.392 -0.329,-0.408 -0.822,-0.676 -1.341,-0.746 -0.061,-0.008 -0.124,-0.014 -0.174,-0.048 -0.293,-0.197 0.637,-0.429 0.757,-0.445 0.499,-0.065 1.013,-10e-4 1.485,0.175 0.411,0.153 0.876,0.4 1.149,0.753 0.058,0.075 0.109,0.172 0.079,0.262 C 0.014,-0.025 0.008,-0.012 0,0"
             style="fill:#8b9195;fill-opacity:1;fill-rule:nonzero;stroke:none"
             id="path194" /></g><g
           id="g196"
           transform="translate(49.8794,58.0885)"><path
             d="m 0,0 c -0.376,-1.03 -3.472,-1.476 -4.925,-0.037 -0.468,0.463 -0.972,1.328 -0.686,1.918 0.206,0.113 0.464,0.253 0.792,0.428 0.113,0.061 0.22,0.116 0.317,0.169 C -3.804,2.565 -2.96,2.44 -2.434,2.304 -2.223,2.248 -0.177,1.692 0.019,0.431 0.039,0.308 0.061,0.165 0,0"
             style="fill:#d6d5d6;fill-opacity:1;fill-rule:nonzero;stroke:none"
             id="path198" /></g><g
           id="g200"
           transform="translate(53.9834,59.9886)"><path
             d="m 0,0 c -0.13,-0.313 -0.372,-0.58 -0.686,-0.711 -0.203,-0.085 -0.448,-0.132 -0.563,-0.32 -0.079,-0.13 -0.073,-0.291 -0.084,-0.442 -0.023,-0.313 -0.131,-0.707 -0.375,-0.922 -0.068,-0.061 -0.155,-0.108 -0.246,-0.1 -0.237,0.02 -0.446,0.357 -0.552,0.541 -0.135,0.236 -0.22,0.502 -0.242,0.774 -0.011,0.135 -0.015,0.286 -0.113,0.379 -0.059,0.056 -0.14,0.078 -0.218,0.099 -0.844,0.228 -1.665,0.543 -2.446,0.936 -0.786,0.394 -1.532,0.867 -2.224,1.409 -0.715,0.562 -1.35,1.2 -1.908,1.919 -0.245,0.314 -0.473,0.641 -0.685,0.978 -0.035,0.056 -0.071,0.116 -0.076,0.182 -0.006,0.075 0.028,0.146 0.061,0.213 0.214,0.428 0.45,0.845 0.708,1.248 C -6.91,3.919 -3.712,2.215 -0.305,1.204 -0.215,1.177 -0.12,1.148 -0.054,1.081 -0.006,1.032 0.022,0.968 0.044,0.903 0.143,0.609 0.118,0.286 0,0"
             style="fill:#d6d5d6;fill-opacity:1;fill-rule:nonzero;stroke:none"
             id="path202" /></g><g
           id="g204"
           transform="translate(59.0379,59.1554)"><path
             d="m 0,0 c -0.229,-1.32 -1.888,-1.925 -2.978,-1.984 -0.962,-0.052 -2.407,0.27 -2.584,1.067 -0.168,0.759 0.888,1.584 1.46,1.91 0.414,0.236 0.822,0.352 1.169,0.406 h 0.002 C -2.697,1.345 -2.476,1.294 -2.272,1.249 -1.465,1.067 -0.716,0.924 -0.049,0.811 0.059,0.418 0.024,0.142 0,0"
             style="fill:#d6d5d6;fill-opacity:1;fill-rule:nonzero;stroke:none"
             id="path206" /></g><g
           id="g208"
           transform="translate(45.8058,50.5227)"><path
             d="M 0,0 C -0.007,-0.094 -0.034,-0.192 -0.093,-0.268 -0.155,-0.347 -0.248,-0.396 -0.344,-0.43 -0.565,-0.506 -0.804,-0.501 -1.037,-0.48 -1.903,-0.404 -2.754,-0.121 -3.511,0.307 -3.75,0.442 -4.013,0.603 -4.266,0.785 -4.532,1.284 -4.611,1.734 -4.483,1.854 -4.242,2.078 -3.399,1.038 -1.749,0.656 -1.207,0.529 -0.701,0.524 -0.251,0.573 -0.079,0.448 0.019,0.258 0,0"
             style="fill:#d6d5d6;fill-opacity:1;fill-rule:nonzero;stroke:none"
             id="path210" /></g><g
           id="g212"
           transform="translate(60.2437,51.0568)"><path
             d="m 0,0 c -0.013,-0.035 -0.042,-0.061 -0.07,-0.086 -0.529,-0.45 -1.305,-0.594 -1.979,-0.577 -0.898,0.023 -1.792,0.304 -2.566,0.755 -0.171,0.099 -0.336,0.207 -0.495,0.324 -0.101,0.074 -0.276,0.207 -0.223,0.355 0.028,0.081 0.127,0.071 0.197,0.06 0.224,-0.035 0.435,-0.148 0.64,-0.24 0.014,-0.007 0.028,-0.014 0.042,-0.019 0.916,-0.371 1.886,-0.57 2.876,-0.516 0.357,0.019 0.707,0.094 1.063,0.111 C -0.422,0.171 0.075,0.206 0,0"
             style="fill:#d6d5d6;fill-opacity:1;fill-rule:nonzero;stroke:none"
             id="path214" /></g><g
           id="g216"
           transform="translate(55.1041,47.8733)"><path
             d="m 0,0 c 0.005,-0.145 -0.052,-0.27 -0.126,-0.383 -0.332,-0.502 -0.808,-0.859 -1.146,-1.068 0,0 -0.002,0 -0.004,-0.002 -0.655,-0.264 -1.422,-0.44 -1.965,-0.007 -0.463,0.37 -0.472,0.943 -0.485,1.487 -0.031,1.276 0.043,2.545 0.084,3.819 0.022,0.726 0.017,1.509 0.268,2.196 0.094,0.26 0.251,0.406 0.414,0.472 0.457,-0.135 0.759,-0.477 1.13,-0.9 0.055,-0.357 0.018,-0.812 0.081,-1.459 V 4.153 C -1.775,4.084 -1.781,4.003 -1.781,3.956 -1.792,3.265 -1.8,2.572 -1.808,1.881 -1.817,1.207 -1.881,0.507 -1.817,-0.162 c 0.005,-0.055 0.039,-0.109 0.091,-0.123 0.197,-0.054 0.379,0.448 0.443,0.572 0.15,0.284 0.321,0.647 0.74,0.455 0.112,-0.051 0.206,-0.134 0.282,-0.23 C -0.145,0.367 -0.007,0.197 0,0"
             style="fill:#d6d5d6;fill-opacity:1;fill-rule:nonzero;stroke:none"
             id="path218" /></g><g
           id="g220"
           transform="translate(75.5665,47.8699)"><path
             d="m 0,0 c -3.401,-0.334 -5.963,0.629 -6.691,0.924 -1.886,0.763 -3.231,1.795 -4.05,2.529 -0.014,0.014 -0.023,0.029 -0.029,0.046 -0.005,0.015 -0.005,0.027 -0.005,0.029 -0.006,0.345 -0.013,0.691 -0.02,1.038 -0.002,0.076 0.076,0.126 0.145,0.094 0.416,-0.2 0.866,-0.399 1.35,-0.59 0.666,-0.263 1.657,-0.566 1.657,-0.566 0.125,-0.039 0.14,-0.007 0.035,0.071 0,0 -0.856,0.623 -1.411,1.104 C -7.633,4.202 -6.076,3.767 -4.357,3.44 -0.549,2.715 2.854,2.751 5.57,3.036 h 0.007 c 0.045,10e-4 0.089,10e-4 0.131,10e-4 0.767,0.014 1.246,0 1.32,-0.182 C 7.032,2.85 7.033,2.843 7.035,2.838 7.185,2.28 3.873,0.381 0,0"
             style="fill:#8b9195;fill-opacity:1;fill-rule:nonzero;stroke:none"
             id="path222" /></g><g
           id="g224"
           transform="translate(40.4799,34.7475)"><path
             d="M 0,0 C 0,0 -2.152,0.566 -3.735,2.06 -3.787,2.108 -3.838,2.159 -3.89,2.211 -5.398,3.733 -5.928,5.442 -6.125,6.356 -6.128,6.374 -6.133,6.393 -6.137,6.413 -6.261,6.993 -6.448,7.972 -6.313,9.142 -6.224,8.024 -5.697,6.983 -4.813,6.319 -3.881,5.617 -2.646,5.405 -1.476,5.703 -1.658,2.697 0.096,0.137 0.096,0.137 0.17,0.029 0.126,-0.034 0,0"
             style="fill:#8b9195;fill-opacity:1;fill-rule:nonzero;stroke:none"
             id="path226" /></g><g
           id="g228"
           transform="translate(45.9204,29.7755)"><path
             d="m 0,0 c 0.871,-0.772 1.746,-1.542 2.617,-2.314 -1.122,0.008 -1.289,-0.025 -2.059,0.059 -1.881,0.209 -3.127,0.583 -4.013,1.185 -1.097,1.56 -1.517,3.31 -1.2,3.522 0.221,0.145 0.629,-0.424 0.762,-0.539 C -3.583,1.642 -3.187,1.48 -2.794,1.365 -2.255,1.207 -1.687,1.119 -1.183,0.871 -0.742,0.654 -0.369,0.325 0,0"
             style="fill:#8b9195;fill-opacity:1;fill-rule:nonzero;stroke:none"
             id="path230" /></g><g
           id="g232"
           transform="translate(40.9468,38.3508)"><path
             d="M 0,0 C -0.108,0.403 -0.162,0.831 -0.165,1.269 0.002,1.018 0.222,0.713 0.499,0.383 c 0.772,-0.919 2.897,-3.12 8.828,-4.418 1.604,-0.351 2.557,-0.433 3.895,-0.573 2.477,-0.767 4.409,-0.709 4.401,-0.935 C 17.612,-5.811 14.879,-6.263 11.499,-5.88 9.925,-5.702 1.266,-4.721 0,0"
             style="fill:#8b9195;fill-opacity:1;fill-rule:nonzero;stroke:none"
             id="path234" /></g><g
           id="g236"
           transform="translate(67.9284,29.0777)"><path
             d="m 0,0 c -1.893,-0.831 -6.214,-1.355 -7.267,-1.481 -1.389,-0.169 -4.335,-0.442 -7.43,-0.3 -0.252,0.011 -0.541,0.027 -0.898,0.045 -1.748,0.849 -2.928,1.792 -2.81,2.102 0.169,0.438 2.805,-0.696 6.818,-0.275 1.072,0.113 1.997,0.209 3.206,0.581 1.28,0.397 1.695,0.735 2.935,0.966 C -4.074,1.894 -2.7,1.829 -2.65,1.564 -2.596,1.288 -3.996,0.912 -3.936,0.627 -3.905,0.486 -3.516,0.423 -1.551,0.322 -0.383,0.261 -0.088,0.26 -0.015,0.091 -0.004,0.062 0.002,0.032 0,0"
             style="fill:#8b9195;fill-opacity:1;fill-rule:nonzero;stroke:none"
             id="path238" /></g><g
           id="g240"
           transform="translate(56.3058,37.6362)"><path
             d="m 0,0 c -0.73,-0.018 -1.38,-0.052 -1.95,-0.091 -0.802,-0.054 -1.807,-0.145 -2.992,0.096 -0.183,0.199 -0.357,0.413 -0.517,0.64 -0.04,0.058 -0.079,0.117 -0.116,0.173 -0.037,0.057 -0.073,0.114 -0.106,0.168 -0.051,0.079 -0.097,0.157 -0.135,0.229 -0.015,0.024 -0.029,0.046 -0.039,0.069 -0.022,0.039 -0.042,0.078 -0.061,0.115 -0.006,0.012 -0.012,0.022 -0.017,0.032 -0.02,0.035 -0.037,0.069 -0.052,0.101 -0.013,0.031 -0.022,0.047 -0.022,0.047 -0.055,0.118 -0.017,0.282 0.088,0.363 0.367,0.286 0.733,0.571 1.099,0.856 0.104,0.079 0.266,0.071 0.362,-0.015 0,0 0.133,-0.12 0.378,-0.314 0.067,-0.054 0.141,-0.113 0.22,-0.175 0.007,-0.005 0.014,-0.01 0.021,-0.017 C -3.73,2.195 -3.61,2.103 -3.48,2.007 -3.344,1.906 -3.196,1.8 -3.037,1.69 c 0.472,-0.328 1.035,-0.686 1.67,-1.027 0,0 0,-0.002 0.002,-0.002 C -1.153,0.546 -0.934,0.432 -0.706,0.322 -0.479,0.211 -0.243,0.103 0,0"
             style="fill:#8b9195;fill-opacity:1;fill-rule:nonzero;stroke:none"
             id="path242" /></g><g
           id="g244"
           transform="translate(66.7216,39.1479)"><path
             d="M 0,0 C -0.32,-0.018 -0.667,-0.03 -1.038,-0.034 -0.699,-0.024 -0.354,-0.012 0,0"
             style="fill:#8b9195;fill-opacity:1;fill-rule:nonzero;stroke:none"
             id="path246" /></g><g
           id="g248"
           transform="translate(75.8581,37.2586)"><path
             d="m 0,0 c 0,0 -0.931,-1.379 -1.874,-2.341 -0.061,-0.062 -0.125,-0.125 -0.189,-0.185 -1.586,-0.279 -3.831,-0.439 -6.406,0.116 -2.046,0.441 -3.689,1.202 -4.889,1.903 0.416,0.07 0.835,0.172 1.257,0.307 1.485,0.478 3.403,1.97 3.403,1.97 0.082,0.064 0.158,0.123 0.188,0.146 1.475,0.095 2.709,0.221 3.617,0.337 2.633,0.336 4.544,0.594 6.781,1.499 0.428,0.173 0.825,0.354 1.193,0.534 -4.03,-4.133 -12.123,-5.203 -12.123,-5.203 -0.132,-0.018 -0.132,-0.05 -0.002,-0.072 0,0 2.353,-0.408 4.183,-0.235 2.217,0.209 4.775,1.327 4.775,1.327 C 0.035,0.155 0.072,0.11 0,0"
             style="fill:#8b9195;fill-opacity:1;fill-rule:nonzero;stroke:none"
             id="path250" /></g><g
           id="g252"
           transform="translate(44.235,74.9526)"><path
             d="M 0,0 C 0.29,-0.484 0.494,-1.417 1.283,-2.231 0.957,-2.649 0.657,-3.088 0.381,-3.539 0.233,-3.785 0.089,-4.035 -0.044,-4.288 -0.106,-4.406 -0.167,-4.524 -0.226,-4.643 -0.254,-4.701 -0.349,-4.952 -0.401,-4.83 c -0.003,0.008 -0.007,0.02 -0.01,0.033 -0.181,0.725 -0.246,1.477 -0.204,2.22 0.025,0.43 0.082,0.858 0.175,1.278 0.1,0.444 0.243,0.886 0.44,1.299"
             style="fill:#8b9195;fill-opacity:1;fill-rule:nonzero;stroke:none"
             id="path254" /></g><g
           id="g256"
           transform="translate(79.5728,63.1885)"><path
             d="m 0,0 c -0.104,-0.403 -0.308,-0.811 -0.43,-1.01 -0.543,-0.886 -1.372,-1.157 -2.378,-1.125 -1.916,0.064 -3.767,0.665 -5.641,1.068 -2.009,0.433 -4.389,0.706 -6.216,-0.441 -0.345,-0.218 -1.031,-0.86 -1.479,-0.632 -0.161,0.08 -0.285,0.279 -0.327,0.345 -0.059,0.093 -0.235,0.371 -0.187,0.637 0.053,0.305 0.369,0.405 0.891,0.77 0.204,0.144 0.474,0.351 0.769,0.639 0.03,0.03 0.008,0.083 -0.036,0.079 -1.781,-0.129 -6.055,-0.328 -10.271,0.631 -1.432,0.327 -2.836,0.78 -4.184,1.367 -0.939,0.409 -1.844,0.871 -2.729,1.39 -0.158,0.094 -0.324,0.195 -0.416,0.356 -0.098,0.168 -0.098,0.375 -0.09,0.573 0.046,1.289 0.25,2.563 0.614,3.783 0.207,-0.047 0.43,-0.075 0.664,-0.077 0.773,-0.009 1.158,0.278 2.196,0.723 1.417,0.608 2.543,0.863 3.92,1.175 0.363,0.082 0.703,0.148 1.025,0.202 0.64,0.108 1.449,0.217 2.496,0.271 3.779,0.197 9.126,-0.307 9.126,-0.307 0.194,-0.018 0.378,-0.037 0.55,-0.054 0,-10e-4 0.002,-0.005 0.002,-0.008 0.008,-0.024 -0.007,-0.054 -0.036,-0.059 -0.553,-0.116 -1.114,-0.229 -1.684,-0.34 -0.625,-0.12 -1.244,-0.235 -1.854,-0.341 -0.01,-0.002 -0.018,-0.007 -0.025,-0.013 -0.315,-0.005 -0.66,-0.019 -1.078,-0.058 -0.975,-0.091 -1.372,-0.225 -2.641,-0.487 -3.545,-0.729 -5.694,-0.761 -5.694,-0.992 0.004,-0.098 0.62,-0.179 1.854,-0.337 2.663,-0.341 3.996,-0.513 4.177,-0.525 1.744,-0.113 1.897,0.041 4.419,-0.055 0.514,-0.02 0.957,-0.037 1.331,-0.056 -0.993,-0.173 -1.591,-0.416 -2.204,-0.613 -2.741,-0.88 -5.727,-0.875 -6.567,-0.873 -0.052,0 -0.104,0 -0.155,0.001 -0.052,0 -0.106,0 -0.16,0.002 -0.113,0.002 -0.224,0.005 -0.335,0.008 -0.09,0.002 -0.179,0.007 -0.266,0.011 -0.056,10e-4 -0.11,0.005 -0.166,0.008 -0.087,0.003 -0.175,0.008 -0.261,0.015 -0.012,0 -0.023,0.002 -0.035,0.002 -0.076,0.005 -0.15,0.01 -0.224,0.017 -0.102,0.006 -0.201,0.015 -0.299,0.023 -0.15,0.015 -0.298,0.031 -0.445,0.046 -0.337,0.037 -0.662,0.082 -0.979,0.131 -0.14,0.022 -0.278,0.046 -0.415,0.069 -0.168,0.031 -0.333,0.061 -0.495,0.093 -0.147,0.03 -0.29,0.061 -0.431,0.091 -0.144,0.032 -0.282,0.064 -0.418,0.096 -0.07,0.015 -0.137,0.032 -0.204,0.049 -0.204,0.051 -0.403,0.104 -0.597,0.157 -0.123,0.033 -0.243,0.069 -0.361,0.103 -0.121,0.035 -0.239,0.07 -0.355,0.107 -0.172,0.053 -0.341,0.107 -0.501,0.161 -0.017,0.005 -0.035,0.011 -0.052,0.016 -0.01,0.002 -0.02,0.005 -0.032,0.01 -0.037,0.011 -0.078,0.026 -0.125,0.043 -0.023,0.008 -0.049,0.018 -0.076,0.028 -0.221,0.09 -0.288,0.145 -0.305,0.13 -0.069,-0.059 0.718,-1.352 1.593,-2.161 2.034,-1.882 5.083,-2.504 7.721,-2.942 1.228,-0.204 2.471,-0.344 3.714,-0.418 1.3,-0.076 2.613,-0.083 3.893,-0.346 1.302,-0.264 2.537,-0.79 3.838,-1.063 1.509,-0.315 3.046,-0.484 4.585,-0.536 0.765,-0.027 1.535,-0.024 2.293,0.089 0.632,0.094 1.165,0.359 1.77,0.514 0.076,0.02 0.157,0.037 0.232,0.015 C -0.099,0.152 -0.035,0.083 0,0"
             style="fill:#8b9195;fill-opacity:1;fill-rule:nonzero;stroke:none"
             id="path258" /></g></g></g><g
       id="g260"><g
         id="g262"><g
           id="g268"><g
             id="g270"><path
               d="m 125.267,17.351 h 5.245 V 85.54 h -5.245 z"
               style="fill:url(#linearGradient278);stroke:none"
               id="path280" /></g></g></g></g></g></svg>
